<svg xmlns="http://www.w3.org/2000/svg" xmlns:xlink="http://www.w3.org/1999/xlink" width="144" zoomAndPan="magnify" viewBox="0 0 108 72" height="96" preserveAspectRatio="xMidYMid meet" version="1.0"><defs><g/><clipPath id="8d7183d86a"><path d="M 30.4375 4.933594 L 84.4375 4.933594 L 84.4375 22.011719 L 30.4375 22.011719 Z M 30.4375 4.933594 " clip-rule="nonzero"/></clipPath><clipPath id="09b6a008ab"><path d="M 30.4375 23.394531 L 62.835938 23.394531 L 62.835938 40.472656 L 30.4375 40.472656 Z M 30.4375 23.394531 " clip-rule="nonzero"/></clipPath><clipPath id="18a06b4090"><path d="M 30.4375 41.855469 L 52.035156 41.855469 L 52.035156 58.933594 L 30.4375 58.933594 Z M 30.4375 41.855469 " clip-rule="nonzero"/></clipPath></defs><g clip-path="url(#8d7183d86a)"><path fill="#2599be" d="M 30.4375 4.933594 L 83.070312 4.933594 C 83.25 4.933594 83.425781 4.96875 83.59375 5.039062 C 83.761719 5.105469 83.910156 5.207031 84.035156 5.332031 C 84.164062 5.460938 84.261719 5.609375 84.332031 5.777344 C 84.402344 5.945312 84.4375 6.117188 84.4375 6.300781 L 84.4375 20.644531 C 84.4375 20.824219 84.402344 21 84.332031 21.167969 C 84.261719 21.335938 84.164062 21.480469 84.035156 21.609375 C 83.910156 21.738281 83.761719 21.835938 83.59375 21.90625 C 83.425781 21.976562 83.25 22.011719 83.070312 22.011719 L 30.4375 22.011719 C 30.253906 22.011719 30.082031 21.976562 29.914062 21.90625 C 29.746094 21.835938 29.597656 21.738281 29.472656 21.609375 C 29.34375 21.480469 29.242188 21.335938 29.175781 21.167969 C 29.105469 21 29.070312 20.824219 29.070312 20.644531 L 29.070312 6.300781 C 29.070312 6.117188 29.105469 5.945312 29.175781 5.777344 C 29.242188 5.609375 29.34375 5.460938 29.472656 5.332031 C 29.597656 5.207031 29.746094 5.105469 29.914062 5.039062 C 30.082031 4.96875 30.253906 4.933594 30.4375 4.933594 Z M 30.4375 4.933594 " fill-opacity="1" fill-rule="nonzero"/></g><g clip-path="url(#09b6a008ab)"><path fill="#2599be" d="M 30.4375 23.394531 L 61.46875 23.394531 C 61.652344 23.394531 61.824219 23.429688 61.992188 23.5 C 62.160156 23.566406 62.308594 23.667969 62.4375 23.796875 C 62.566406 23.921875 62.664062 24.070312 62.734375 24.238281 C 62.800781 24.40625 62.835938 24.578125 62.835938 24.761719 L 62.835938 39.105469 C 62.835938 39.285156 62.800781 39.460938 62.734375 39.628906 C 62.664062 39.796875 62.566406 39.945312 62.4375 40.070312 C 62.308594 40.199219 62.160156 40.296875 61.992188 40.367188 C 61.824219 40.4375 61.652344 40.472656 61.46875 40.472656 L 30.4375 40.472656 C 30.253906 40.472656 30.082031 40.4375 29.914062 40.367188 C 29.746094 40.296875 29.597656 40.199219 29.472656 40.070312 C 29.34375 39.945312 29.242188 39.796875 29.175781 39.628906 C 29.105469 39.460938 29.070312 39.285156 29.070312 39.105469 L 29.070312 24.761719 C 29.070312 24.578125 29.105469 24.40625 29.175781 24.238281 C 29.242188 24.070312 29.34375 23.921875 29.472656 23.796875 C 29.597656 23.667969 29.746094 23.566406 29.914062 23.5 C 30.082031 23.429688 30.253906 23.394531 30.4375 23.394531 Z M 30.4375 23.394531 " fill-opacity="1" fill-rule="nonzero"/></g><g clip-path="url(#18a06b4090)"><path fill="#2599be" d="M 30.4375 41.855469 L 50.671875 41.855469 C 50.851562 41.855469 51.027344 41.890625 51.195312 41.960938 C 51.359375 42.03125 51.507812 42.128906 51.636719 42.257812 C 51.765625 42.382812 51.863281 42.53125 51.933594 42.699219 C 52.003906 42.867188 52.035156 43.042969 52.035156 43.222656 L 52.035156 57.566406 C 52.035156 57.75 52.003906 57.921875 51.933594 58.089844 C 51.863281 58.257812 51.765625 58.40625 51.636719 58.53125 C 51.507812 58.660156 51.359375 58.761719 51.195312 58.828125 C 51.027344 58.898438 50.851562 58.933594 50.671875 58.933594 L 30.4375 58.933594 C 30.253906 58.933594 30.082031 58.898438 29.914062 58.828125 C 29.746094 58.761719 29.597656 58.660156 29.472656 58.53125 C 29.34375 58.40625 29.242188 58.257812 29.175781 58.089844 C 29.105469 57.921875 29.070312 57.75 29.070312 57.566406 L 29.070312 43.222656 C 29.070312 43.042969 29.105469 42.867188 29.175781 42.699219 C 29.242188 42.53125 29.34375 42.382812 29.472656 42.257812 C 29.597656 42.128906 29.746094 42.03125 29.914062 41.960938 C 30.082031 41.890625 30.253906 41.855469 30.4375 41.855469 Z M 30.4375 41.855469 " fill-opacity="1" fill-rule="nonzero"/></g><g fill="#737373" fill-opacity="1"><g transform="translate(24.315032, 15.133222)"><g><path d="M 2.578125 0 L 2.21875 0 L 1.953125 -0.78125 L 0.734375 -0.78125 L 0.46875 0 L 0.109375 0 L 1.109375 -2.859375 L 1.578125 -2.859375 Z M 1.3125 -2.515625 L 0.828125 -1.0625 L 1.859375 -1.0625 L 1.359375 -2.515625 Z M 1.3125 -2.515625 "/></g></g></g><g fill="#737373" fill-opacity="1"><g transform="translate(24.28222, 33.308328)"><g><path d="M 0.4375 0 L 0.4375 -2.859375 L 1.515625 -2.859375 C 1.691406 -2.859375 1.835938 -2.828125 1.953125 -2.765625 C 2.078125 -2.710938 2.171875 -2.632812 2.234375 -2.53125 C 2.296875 -2.425781 2.328125 -2.300781 2.328125 -2.15625 C 2.328125 -2.039062 2.289062 -1.929688 2.21875 -1.828125 C 2.15625 -1.722656 2.0625 -1.644531 1.9375 -1.59375 L 1.9375 -1.546875 C 2.132812 -1.503906 2.28125 -1.421875 2.375 -1.296875 C 2.46875 -1.171875 2.515625 -1.015625 2.515625 -0.828125 C 2.515625 -0.566406 2.4375 -0.363281 2.28125 -0.21875 C 2.132812 -0.0703125 1.90625 0 1.59375 0 Z M 1.5 -1.65625 C 1.65625 -1.65625 1.773438 -1.695312 1.859375 -1.78125 C 1.953125 -1.863281 2 -1.976562 2 -2.125 C 2 -2.269531 1.957031 -2.378906 1.875 -2.453125 C 1.789062 -2.535156 1.664062 -2.578125 1.5 -2.578125 L 0.765625 -2.578125 L 0.765625 -1.65625 Z M 1.578125 -0.28125 C 1.984375 -0.28125 2.1875 -0.460938 2.1875 -0.828125 C 2.1875 -1.191406 1.984375 -1.375 1.578125 -1.375 L 0.765625 -1.375 L 0.765625 -0.28125 Z M 1.578125 -0.28125 "/></g></g></g><g fill="#737373" fill-opacity="1"><g transform="translate(24.254094, 51.258318)"><g><path d="M 1.578125 0.046875 C 1.328125 0.046875 1.101562 -0.0078125 0.90625 -0.125 C 0.71875 -0.238281 0.566406 -0.40625 0.453125 -0.625 C 0.335938 -0.851562 0.28125 -1.117188 0.28125 -1.421875 C 0.28125 -1.734375 0.335938 -2 0.453125 -2.21875 C 0.566406 -2.4375 0.71875 -2.601562 0.90625 -2.71875 C 1.101562 -2.832031 1.328125 -2.890625 1.578125 -2.890625 C 1.847656 -2.890625 2.070312 -2.835938 2.25 -2.734375 C 2.425781 -2.640625 2.550781 -2.492188 2.625 -2.296875 L 2.40625 -2.140625 L 2.359375 -2.140625 C 2.285156 -2.304688 2.1875 -2.421875 2.0625 -2.484375 C 1.9375 -2.554688 1.773438 -2.59375 1.578125 -2.59375 C 1.398438 -2.59375 1.238281 -2.550781 1.09375 -2.46875 C 0.957031 -2.394531 0.847656 -2.269531 0.765625 -2.09375 C 0.679688 -1.914062 0.640625 -1.691406 0.640625 -1.421875 C 0.640625 -1.148438 0.679688 -0.925781 0.765625 -0.75 C 0.847656 -0.582031 0.957031 -0.457031 1.09375 -0.375 C 1.238281 -0.300781 1.398438 -0.265625 1.578125 -0.265625 C 1.785156 -0.265625 1.953125 -0.3125 2.078125 -0.40625 C 2.210938 -0.5 2.3125 -0.648438 2.375 -0.859375 L 2.421875 -0.859375 L 2.65625 -0.75 C 2.582031 -0.488281 2.453125 -0.289062 2.265625 -0.15625 C 2.085938 -0.0195312 1.859375 0.046875 1.578125 0.046875 Z M 1.578125 0.046875 "/></g></g></g><g fill="#737373" fill-opacity="1"><g transform="translate(30.436755, 66.133338)"><g><path d="M 2.578125 0 L 2.21875 0 L 1.953125 -0.78125 L 0.734375 -0.78125 L 0.46875 0 L 0.109375 0 L 1.109375 -2.859375 L 1.578125 -2.859375 Z M 1.3125 -2.515625 L 0.828125 -1.0625 L 1.859375 -1.0625 L 1.359375 -2.515625 Z M 1.3125 -2.515625 "/></g></g><g transform="translate(33.120347, 66.133338)"><g><path d="M 1.359375 0 L 0.921875 0 L 0.109375 -2.15625 L 0.453125 -2.15625 L 1.125 -0.359375 L 1.171875 -0.359375 L 1.84375 -2.15625 L 2.1875 -2.15625 Z M 1.359375 0 "/></g></g><g transform="translate(35.403549, 66.133338)"><g><path d="M 2.046875 -1 L 0.578125 -1 C 0.585938 -0.738281 0.648438 -0.546875 0.765625 -0.421875 C 0.878906 -0.304688 1.035156 -0.25 1.234375 -0.25 C 1.390625 -0.25 1.515625 -0.273438 1.609375 -0.328125 C 1.703125 -0.378906 1.773438 -0.460938 1.828125 -0.578125 L 1.875 -0.578125 L 2.078125 -0.46875 C 2.015625 -0.3125 1.914062 -0.1875 1.78125 -0.09375 C 1.644531 0 1.460938 0.046875 1.234375 0.046875 C 1.023438 0.046875 0.847656 0.00390625 0.703125 -0.078125 C 0.554688 -0.160156 0.441406 -0.285156 0.359375 -0.453125 C 0.273438 -0.617188 0.234375 -0.828125 0.234375 -1.078125 C 0.234375 -1.316406 0.273438 -1.519531 0.359375 -1.6875 C 0.453125 -1.863281 0.570312 -1.992188 0.71875 -2.078125 C 0.863281 -2.160156 1.03125 -2.203125 1.21875 -2.203125 C 1.5 -2.203125 1.710938 -2.125 1.859375 -1.96875 C 2.015625 -1.8125 2.097656 -1.578125 2.109375 -1.265625 C 2.109375 -1.148438 2.101562 -1.070312 2.09375 -1.03125 Z M 1.78125 -1.265625 C 1.78125 -1.492188 1.726562 -1.660156 1.625 -1.765625 C 1.53125 -1.867188 1.394531 -1.921875 1.21875 -1.921875 C 1.03125 -1.921875 0.878906 -1.867188 0.765625 -1.765625 C 0.660156 -1.660156 0.597656 -1.492188 0.578125 -1.265625 Z M 1.78125 -1.265625 "/></g></g><g transform="translate(37.700422, 66.133338)"><g><path d="M 0.375 0 L 0.375 -2.15625 L 0.671875 -2.15625 L 0.671875 -1.8125 L 0.71875 -1.8125 C 0.820312 -2.050781 1.007812 -2.171875 1.28125 -2.171875 C 1.425781 -2.171875 1.535156 -2.144531 1.609375 -2.09375 L 1.53125 -1.828125 L 1.5 -1.8125 C 1.414062 -1.851562 1.328125 -1.875 1.234375 -1.875 C 1.054688 -1.875 0.921875 -1.804688 0.828125 -1.671875 C 0.734375 -1.546875 0.6875 -1.34375 0.6875 -1.0625 L 0.6875 0 Z M 0.375 0 "/></g></g><g transform="translate(39.364484, 66.133338)"><g><path d="M 0.890625 0.046875 C 0.679688 0.046875 0.515625 -0.0078125 0.390625 -0.125 C 0.273438 -0.238281 0.21875 -0.394531 0.21875 -0.59375 C 0.21875 -0.726562 0.242188 -0.835938 0.296875 -0.921875 C 0.347656 -1.015625 0.425781 -1.085938 0.53125 -1.140625 C 0.644531 -1.191406 0.789062 -1.234375 0.96875 -1.265625 C 1.125 -1.296875 1.242188 -1.328125 1.328125 -1.359375 C 1.410156 -1.390625 1.460938 -1.425781 1.484375 -1.46875 C 1.515625 -1.507812 1.53125 -1.554688 1.53125 -1.609375 C 1.53125 -1.710938 1.492188 -1.789062 1.421875 -1.84375 C 1.359375 -1.894531 1.253906 -1.921875 1.109375 -1.921875 C 0.972656 -1.921875 0.851562 -1.890625 0.75 -1.828125 C 0.65625 -1.773438 0.566406 -1.695312 0.484375 -1.59375 L 0.4375 -1.59375 L 0.28125 -1.8125 C 0.375 -1.925781 0.488281 -2.019531 0.625 -2.09375 C 0.769531 -2.164062 0.929688 -2.203125 1.109375 -2.203125 C 1.359375 -2.203125 1.546875 -2.144531 1.671875 -2.03125 C 1.796875 -1.914062 1.859375 -1.757812 1.859375 -1.5625 L 1.859375 -0.421875 C 1.859375 -0.304688 1.90625 -0.25 2 -0.25 C 2.039062 -0.25 2.078125 -0.253906 2.109375 -0.265625 L 2.125 -0.25 L 2.171875 -0.03125 C 2.140625 -0.0195312 2.101562 -0.0078125 2.0625 0 C 2.03125 0.0078125 1.992188 0.015625 1.953125 0.015625 C 1.835938 0.015625 1.75 -0.0078125 1.6875 -0.0625 C 1.625 -0.113281 1.585938 -0.191406 1.578125 -0.296875 L 1.53125 -0.296875 C 1.46875 -0.179688 1.382812 -0.09375 1.28125 -0.03125 C 1.175781 0.0195312 1.046875 0.046875 0.890625 0.046875 Z M 0.953125 -0.21875 C 1.078125 -0.21875 1.179688 -0.242188 1.265625 -0.296875 C 1.359375 -0.347656 1.425781 -0.425781 1.46875 -0.53125 C 1.519531 -0.632812 1.546875 -0.75 1.546875 -0.875 L 1.546875 -1.15625 L 1.5 -1.15625 C 1.457031 -1.125 1.398438 -1.097656 1.328125 -1.078125 C 1.265625 -1.054688 1.171875 -1.035156 1.046875 -1.015625 C 0.921875 -0.992188 0.820312 -0.960938 0.75 -0.921875 C 0.675781 -0.890625 0.625 -0.847656 0.59375 -0.796875 C 0.5625 -0.742188 0.546875 -0.675781 0.546875 -0.59375 C 0.546875 -0.46875 0.582031 -0.375 0.65625 -0.3125 C 0.726562 -0.25 0.828125 -0.21875 0.953125 -0.21875 Z M 0.953125 -0.21875 "/></g></g><g transform="translate(41.592998, 66.133338)"><g><path d="M 1.109375 0.921875 C 0.765625 0.921875 0.515625 0.863281 0.359375 0.75 C 0.203125 0.632812 0.125 0.484375 0.125 0.296875 C 0.125 0.171875 0.160156 0.0703125 0.234375 0 C 0.304688 -0.0703125 0.414062 -0.125 0.5625 -0.15625 L 0.5625 -0.1875 C 0.488281 -0.226562 0.4375 -0.273438 0.40625 -0.328125 C 0.375 -0.378906 0.359375 -0.4375 0.359375 -0.5 C 0.359375 -0.582031 0.382812 -0.648438 0.4375 -0.703125 C 0.488281 -0.753906 0.566406 -0.796875 0.671875 -0.828125 L 0.671875 -0.875 C 0.441406 -1 0.328125 -1.195312 0.328125 -1.46875 C 0.328125 -1.613281 0.359375 -1.738281 0.421875 -1.84375 C 0.484375 -1.957031 0.570312 -2.046875 0.6875 -2.109375 C 0.8125 -2.171875 0.953125 -2.203125 1.109375 -2.203125 C 1.285156 -2.203125 1.4375 -2.160156 1.5625 -2.078125 C 1.601562 -2.128906 1.632812 -2.179688 1.65625 -2.234375 C 1.6875 -2.296875 1.703125 -2.363281 1.703125 -2.4375 L 1.75 -2.46875 L 2.015625 -2.40625 C 1.992188 -2.289062 1.957031 -2.195312 1.90625 -2.125 C 1.851562 -2.050781 1.78125 -1.988281 1.6875 -1.9375 L 1.6875 -1.890625 C 1.757812 -1.835938 1.8125 -1.773438 1.84375 -1.703125 C 1.875 -1.628906 1.890625 -1.539062 1.890625 -1.4375 C 1.890625 -1.300781 1.851562 -1.179688 1.78125 -1.078125 C 1.71875 -0.972656 1.628906 -0.890625 1.515625 -0.828125 C 1.398438 -0.765625 1.265625 -0.734375 1.109375 -0.734375 C 1.085938 -0.734375 1.054688 -0.734375 1.015625 -0.734375 C 0.960938 -0.734375 0.921875 -0.734375 0.890625 -0.734375 C 0.828125 -0.734375 0.773438 -0.71875 0.734375 -0.6875 C 0.691406 -0.65625 0.671875 -0.609375 0.671875 -0.546875 C 0.671875 -0.484375 0.691406 -0.4375 0.734375 -0.40625 C 0.773438 -0.375 0.847656 -0.351562 0.953125 -0.34375 L 1.46875 -0.328125 C 1.6875 -0.316406 1.847656 -0.265625 1.953125 -0.171875 C 2.054688 -0.078125 2.109375 0.0507812 2.109375 0.21875 C 2.109375 0.351562 2.070312 0.472656 2 0.578125 C 1.9375 0.679688 1.828125 0.765625 1.671875 0.828125 C 1.523438 0.890625 1.335938 0.921875 1.109375 0.921875 Z M 1.109375 -1 C 1.253906 -1 1.367188 -1.039062 1.453125 -1.125 C 1.535156 -1.207031 1.578125 -1.316406 1.578125 -1.453125 C 1.578125 -1.609375 1.535156 -1.722656 1.453125 -1.796875 C 1.378906 -1.878906 1.265625 -1.921875 1.109375 -1.921875 C 0.953125 -1.921875 0.832031 -1.878906 0.75 -1.796875 C 0.675781 -1.722656 0.640625 -1.609375 0.640625 -1.453125 C 0.640625 -1.304688 0.675781 -1.191406 0.75 -1.109375 C 0.832031 -1.035156 0.953125 -1 1.109375 -1 Z M 1.109375 0.640625 C 1.265625 0.640625 1.394531 0.617188 1.5 0.578125 C 1.601562 0.546875 1.675781 0.5 1.71875 0.4375 C 1.757812 0.382812 1.78125 0.320312 1.78125 0.25 C 1.78125 0.1875 1.769531 0.132812 1.75 0.09375 C 1.726562 0.0625 1.6875 0.0351562 1.625 0.015625 C 1.570312 -0.00390625 1.5 -0.0195312 1.40625 -0.03125 L 0.9375 -0.046875 L 0.859375 -0.046875 C 0.585938 -0.046875 0.453125 0.0546875 0.453125 0.265625 C 0.453125 0.515625 0.671875 0.640625 1.109375 0.640625 Z M 1.109375 0.640625 "/></g></g><g transform="translate(43.800028, 66.133338)"><g><path d="M 2.046875 -1 L 0.578125 -1 C 0.585938 -0.738281 0.648438 -0.546875 0.765625 -0.421875 C 0.878906 -0.304688 1.035156 -0.25 1.234375 -0.25 C 1.390625 -0.25 1.515625 -0.273438 1.609375 -0.328125 C 1.703125 -0.378906 1.773438 -0.460938 1.828125 -0.578125 L 1.875 -0.578125 L 2.078125 -0.46875 C 2.015625 -0.3125 1.914062 -0.1875 1.78125 -0.09375 C 1.644531 0 1.460938 0.046875 1.234375 0.046875 C 1.023438 0.046875 0.847656 0.00390625 0.703125 -0.078125 C 0.554688 -0.160156 0.441406 -0.285156 0.359375 -0.453125 C 0.273438 -0.617188 0.234375 -0.828125 0.234375 -1.078125 C 0.234375 -1.316406 0.273438 -1.519531 0.359375 -1.6875 C 0.453125 -1.863281 0.570312 -1.992188 0.71875 -2.078125 C 0.863281 -2.160156 1.03125 -2.203125 1.21875 -2.203125 C 1.5 -2.203125 1.710938 -2.125 1.859375 -1.96875 C 2.015625 -1.8125 2.097656 -1.578125 2.109375 -1.265625 C 2.109375 -1.148438 2.101562 -1.070312 2.09375 -1.03125 Z M 1.78125 -1.265625 C 1.78125 -1.492188 1.726562 -1.660156 1.625 -1.765625 C 1.53125 -1.867188 1.394531 -1.921875 1.21875 -1.921875 C 1.03125 -1.921875 0.878906 -1.867188 0.765625 -1.765625 C 0.660156 -1.660156 0.597656 -1.492188 0.578125 -1.265625 Z M 1.78125 -1.265625 "/></g></g><g transform="translate(46.096902, 66.133338)"><g/></g><g transform="translate(47.07737, 66.133338)"><g><path d="M 1.234375 0.046875 C 1.035156 0.046875 0.859375 0.00390625 0.703125 -0.078125 C 0.554688 -0.171875 0.441406 -0.300781 0.359375 -0.46875 C 0.273438 -0.632812 0.234375 -0.835938 0.234375 -1.078125 C 0.234375 -1.316406 0.273438 -1.519531 0.359375 -1.6875 C 0.441406 -1.851562 0.554688 -1.976562 0.703125 -2.0625 C 0.859375 -2.15625 1.035156 -2.203125 1.234375 -2.203125 C 1.441406 -2.203125 1.617188 -2.15625 1.765625 -2.0625 C 1.921875 -1.976562 2.035156 -1.851562 2.109375 -1.6875 C 2.191406 -1.519531 2.234375 -1.316406 2.234375 -1.078125 C 2.234375 -0.835938 2.191406 -0.632812 2.109375 -0.46875 C 2.035156 -0.300781 1.921875 -0.171875 1.765625 -0.078125 C 1.617188 0.00390625 1.441406 0.046875 1.234375 0.046875 Z M 1.234375 -0.25 C 1.453125 -0.25 1.617188 -0.316406 1.734375 -0.453125 C 1.847656 -0.585938 1.90625 -0.796875 1.90625 -1.078125 C 1.90625 -1.359375 1.847656 -1.566406 1.734375 -1.703125 C 1.617188 -1.835938 1.453125 -1.90625 1.234375 -1.90625 C 1.023438 -1.90625 0.863281 -1.835938 0.75 -1.703125 C 0.632812 -1.566406 0.578125 -1.359375 0.578125 -1.078125 C 0.578125 -0.796875 0.632812 -0.585938 0.75 -0.453125 C 0.863281 -0.316406 1.023438 -0.25 1.234375 -0.25 Z M 1.234375 -0.25 "/></g></g><g transform="translate(49.550025, 66.133338)"><g><path d="M 0.484375 0 L 0.484375 -1.890625 L 0.109375 -1.890625 L 0.109375 -2.15625 L 0.484375 -2.15625 C 0.460938 -2.25 0.453125 -2.335938 0.453125 -2.421875 C 0.453125 -2.566406 0.476562 -2.6875 0.53125 -2.78125 C 0.59375 -2.875 0.675781 -2.941406 0.78125 -2.984375 C 0.882812 -3.035156 1.003906 -3.0625 1.140625 -3.0625 C 1.359375 -3.0625 1.523438 -3.015625 1.640625 -2.921875 L 1.515625 -2.703125 L 1.484375 -2.6875 C 1.390625 -2.757812 1.273438 -2.796875 1.140625 -2.796875 C 1.015625 -2.796875 0.921875 -2.757812 0.859375 -2.6875 C 0.796875 -2.625 0.765625 -2.535156 0.765625 -2.421875 C 0.765625 -2.347656 0.773438 -2.257812 0.796875 -2.15625 L 1.484375 -2.15625 L 1.484375 -1.890625 L 0.796875 -1.890625 L 0.796875 0 Z M 0.484375 0 "/></g></g><g transform="translate(51.08518, 66.133338)"><g/></g><g transform="translate(52.065648, 66.133338)"><g><path d="M 1.390625 0 L 1.0625 0 L 1.0625 -1.125 L 0.078125 -2.859375 L 0.4375 -2.859375 L 1.21875 -1.515625 L 1.265625 -1.515625 L 2.03125 -2.859375 L 2.390625 -2.859375 L 1.390625 -1.125 Z M 1.390625 0 "/></g></g></g><path stroke-linecap="butt" transform="matrix(0.75, 0, 0, 0.75, 30.430073, 60.68332)" fill="none" stroke-linejoin="miter" d="M -0.000514283 0.500365 L 77.973447 0.500365 " stroke="#737373" stroke-width="1" stroke-opacity="1" stroke-miterlimit="4"/><g fill="#ffffff" fill-opacity="1"><g transform="translate(74.912092, 15.133222)"><g><path d="M 0.203125 0 L 0.203125 -0.28125 L 0.984375 -0.28125 L 0.984375 -2.46875 L 0.9375 -2.46875 C 0.8125 -2.40625 0.703125 -2.359375 0.609375 -2.328125 C 0.515625 -2.296875 0.390625 -2.265625 0.234375 -2.234375 L 0.234375 -2.546875 C 0.390625 -2.578125 0.535156 -2.617188 0.671875 -2.671875 C 0.816406 -2.722656 0.945312 -2.785156 1.0625 -2.859375 L 1.3125 -2.859375 L 1.3125 -0.28125 L 2.015625 -0.28125 L 2.015625 0 Z M 0.203125 0 "/></g></g><g transform="translate(77.040997, 15.133222)"><g><path d="M 1.40625 0.046875 C 1.195312 0.046875 1.007812 -0.00390625 0.84375 -0.109375 C 0.675781 -0.210938 0.539062 -0.375 0.4375 -0.59375 C 0.34375 -0.8125 0.296875 -1.085938 0.296875 -1.421875 C 0.296875 -1.765625 0.34375 -2.046875 0.4375 -2.265625 C 0.539062 -2.484375 0.675781 -2.640625 0.84375 -2.734375 C 1.007812 -2.835938 1.195312 -2.890625 1.40625 -2.890625 C 1.613281 -2.890625 1.800781 -2.835938 1.96875 -2.734375 C 2.132812 -2.640625 2.265625 -2.484375 2.359375 -2.265625 C 2.460938 -2.046875 2.515625 -1.765625 2.515625 -1.421875 C 2.515625 -1.085938 2.460938 -0.8125 2.359375 -0.59375 C 2.265625 -0.375 2.132812 -0.210938 1.96875 -0.109375 C 1.800781 -0.00390625 1.613281 0.046875 1.40625 0.046875 Z M 1.40625 -0.265625 C 1.65625 -0.265625 1.84375 -0.351562 1.96875 -0.53125 C 2.09375 -0.71875 2.15625 -1.015625 2.15625 -1.421875 C 2.15625 -1.835938 2.09375 -2.132812 1.96875 -2.3125 C 1.84375 -2.5 1.65625 -2.59375 1.40625 -2.59375 C 1.238281 -2.59375 1.097656 -2.550781 0.984375 -2.46875 C 0.878906 -2.394531 0.796875 -2.269531 0.734375 -2.09375 C 0.671875 -1.925781 0.640625 -1.703125 0.640625 -1.421875 C 0.640625 -1.148438 0.671875 -0.925781 0.734375 -0.75 C 0.796875 -0.582031 0.878906 -0.457031 0.984375 -0.375 C 1.097656 -0.300781 1.238281 -0.265625 1.40625 -0.265625 Z M 1.40625 -0.265625 "/></g></g><g transform="translate(79.849589, 15.133222)"><g><path d="M 1.40625 0.046875 C 1.195312 0.046875 1.007812 -0.00390625 0.84375 -0.109375 C 0.675781 -0.210938 0.539062 -0.375 0.4375 -0.59375 C 0.34375 -0.8125 0.296875 -1.085938 0.296875 -1.421875 C 0.296875 -1.765625 0.34375 -2.046875 0.4375 -2.265625 C 0.539062 -2.484375 0.675781 -2.640625 0.84375 -2.734375 C 1.007812 -2.835938 1.195312 -2.890625 1.40625 -2.890625 C 1.613281 -2.890625 1.800781 -2.835938 1.96875 -2.734375 C 2.132812 -2.640625 2.265625 -2.484375 2.359375 -2.265625 C 2.460938 -2.046875 2.515625 -1.765625 2.515625 -1.421875 C 2.515625 -1.085938 2.460938 -0.8125 2.359375 -0.59375 C 2.265625 -0.375 2.132812 -0.210938 1.96875 -0.109375 C 1.800781 -0.00390625 1.613281 0.046875 1.40625 0.046875 Z M 1.40625 -0.265625 C 1.65625 -0.265625 1.84375 -0.351562 1.96875 -0.53125 C 2.09375 -0.71875 2.15625 -1.015625 2.15625 -1.421875 C 2.15625 -1.835938 2.09375 -2.132812 1.96875 -2.3125 C 1.84375 -2.5 1.65625 -2.59375 1.40625 -2.59375 C 1.238281 -2.59375 1.097656 -2.550781 0.984375 -2.46875 C 0.878906 -2.394531 0.796875 -2.269531 0.734375 -2.09375 C 0.671875 -1.925781 0.640625 -1.703125 0.640625 -1.421875 C 0.640625 -1.148438 0.671875 -0.925781 0.734375 -0.75 C 0.796875 -0.582031 0.878906 -0.457031 0.984375 -0.375 C 1.097656 -0.300781 1.238281 -0.265625 1.40625 -0.265625 Z M 1.40625 -0.265625 "/></g></g></g><g fill="#ffffff" fill-opacity="1"><g transform="translate(55.029699, 34.029237)"><g><path d="M 1.359375 0.046875 C 1.160156 0.046875 0.976562 0 0.8125 -0.09375 C 0.65625 -0.195312 0.53125 -0.359375 0.4375 -0.578125 C 0.34375 -0.796875 0.296875 -1.078125 0.296875 -1.421875 C 0.296875 -1.765625 0.34375 -2.046875 0.4375 -2.265625 C 0.53125 -2.484375 0.660156 -2.640625 0.828125 -2.734375 C 0.992188 -2.835938 1.179688 -2.890625 1.390625 -2.890625 C 1.753906 -2.890625 2.023438 -2.78125 2.203125 -2.5625 L 2.046875 -2.34375 L 1.984375 -2.34375 C 1.847656 -2.507812 1.648438 -2.59375 1.390625 -2.59375 C 1.148438 -2.59375 0.960938 -2.5 0.828125 -2.3125 C 0.703125 -2.125 0.640625 -1.828125 0.640625 -1.421875 L 0.671875 -1.40625 C 0.753906 -1.570312 0.859375 -1.691406 0.984375 -1.765625 C 1.109375 -1.847656 1.257812 -1.890625 1.4375 -1.890625 C 1.625 -1.890625 1.78125 -1.847656 1.90625 -1.765625 C 2.039062 -1.691406 2.140625 -1.582031 2.203125 -1.4375 C 2.273438 -1.300781 2.3125 -1.132812 2.3125 -0.9375 C 2.3125 -0.738281 2.269531 -0.566406 2.1875 -0.421875 C 2.113281 -0.273438 2.003906 -0.160156 1.859375 -0.078125 C 1.722656 0.00390625 1.554688 0.046875 1.359375 0.046875 Z M 1.359375 -0.265625 C 1.546875 -0.265625 1.691406 -0.320312 1.796875 -0.4375 C 1.910156 -0.550781 1.96875 -0.71875 1.96875 -0.9375 C 1.96875 -1.144531 1.910156 -1.304688 1.796875 -1.421875 C 1.691406 -1.535156 1.546875 -1.59375 1.359375 -1.59375 C 1.234375 -1.59375 1.125 -1.566406 1.03125 -1.515625 C 0.9375 -1.460938 0.863281 -1.382812 0.8125 -1.28125 C 0.757812 -1.1875 0.734375 -1.070312 0.734375 -0.9375 C 0.734375 -0.789062 0.757812 -0.664062 0.8125 -0.5625 C 0.863281 -0.46875 0.9375 -0.394531 1.03125 -0.34375 C 1.125 -0.289062 1.234375 -0.265625 1.359375 -0.265625 Z M 1.359375 -0.265625 "/></g></g><g transform="translate(57.601963, 34.029237)"><g><path d="M 1.40625 0.046875 C 1.195312 0.046875 1.007812 -0.00390625 0.84375 -0.109375 C 0.675781 -0.210938 0.539062 -0.375 0.4375 -0.59375 C 0.34375 -0.8125 0.296875 -1.085938 0.296875 -1.421875 C 0.296875 -1.765625 0.34375 -2.046875 0.4375 -2.265625 C 0.539062 -2.484375 0.675781 -2.640625 0.84375 -2.734375 C 1.007812 -2.835938 1.195312 -2.890625 1.40625 -2.890625 C 1.613281 -2.890625 1.800781 -2.835938 1.96875 -2.734375 C 2.132812 -2.640625 2.265625 -2.484375 2.359375 -2.265625 C 2.460938 -2.046875 2.515625 -1.765625 2.515625 -1.421875 C 2.515625 -1.085938 2.460938 -0.8125 2.359375 -0.59375 C 2.265625 -0.375 2.132812 -0.210938 1.96875 -0.109375 C 1.800781 -0.00390625 1.613281 0.046875 1.40625 0.046875 Z M 1.40625 -0.265625 C 1.65625 -0.265625 1.84375 -0.351562 1.96875 -0.53125 C 2.09375 -0.71875 2.15625 -1.015625 2.15625 -1.421875 C 2.15625 -1.835938 2.09375 -2.132812 1.96875 -2.3125 C 1.84375 -2.5 1.65625 -2.59375 1.40625 -2.59375 C 1.238281 -2.59375 1.097656 -2.550781 0.984375 -2.46875 C 0.878906 -2.394531 0.796875 -2.269531 0.734375 -2.09375 C 0.671875 -1.925781 0.640625 -1.703125 0.640625 -1.421875 C 0.640625 -1.148438 0.671875 -0.925781 0.734375 -0.75 C 0.796875 -0.582031 0.878906 -0.457031 0.984375 -0.375 C 1.097656 -0.300781 1.238281 -0.265625 1.40625 -0.265625 Z M 1.40625 -0.265625 "/></g></g></g><g fill="#ffffff" fill-opacity="1"><g transform="translate(44.517274, 51.979226)"><g><path d="M 1.78125 0 L 1.46875 0 L 1.46875 -0.6875 L 0.125 -0.6875 L 0.125 -0.953125 L 1.390625 -2.859375 L 1.78125 -2.859375 L 1.78125 -0.953125 L 2.28125 -0.953125 L 2.28125 -0.6875 L 1.78125 -0.6875 Z M 0.53125 -1 L 0.546875 -0.953125 L 1.46875 -0.953125 L 1.46875 -2.390625 L 1.421875 -2.40625 Z M 0.53125 -1 "/></g></g><g transform="translate(46.937195, 51.979226)"><g><path d="M 1.40625 0.046875 C 1.195312 0.046875 1.007812 -0.00390625 0.84375 -0.109375 C 0.675781 -0.210938 0.539062 -0.375 0.4375 -0.59375 C 0.34375 -0.8125 0.296875 -1.085938 0.296875 -1.421875 C 0.296875 -1.765625 0.34375 -2.046875 0.4375 -2.265625 C 0.539062 -2.484375 0.675781 -2.640625 0.84375 -2.734375 C 1.007812 -2.835938 1.195312 -2.890625 1.40625 -2.890625 C 1.613281 -2.890625 1.800781 -2.835938 1.96875 -2.734375 C 2.132812 -2.640625 2.265625 -2.484375 2.359375 -2.265625 C 2.460938 -2.046875 2.515625 -1.765625 2.515625 -1.421875 C 2.515625 -1.085938 2.460938 -0.8125 2.359375 -0.59375 C 2.265625 -0.375 2.132812 -0.210938 1.96875 -0.109375 C 1.800781 -0.00390625 1.613281 0.046875 1.40625 0.046875 Z M 1.40625 -0.265625 C 1.65625 -0.265625 1.84375 -0.351562 1.96875 -0.53125 C 2.09375 -0.71875 2.15625 -1.015625 2.15625 -1.421875 C 2.15625 -1.835938 2.09375 -2.132812 1.96875 -2.3125 C 1.84375 -2.5 1.65625 -2.59375 1.40625 -2.59375 C 1.238281 -2.59375 1.097656 -2.550781 0.984375 -2.46875 C 0.878906 -2.394531 0.796875 -2.269531 0.734375 -2.09375 C 0.671875 -1.925781 0.640625 -1.703125 0.640625 -1.421875 C 0.640625 -1.148438 0.671875 -0.925781 0.734375 -0.75 C 0.796875 -0.582031 0.878906 -0.457031 0.984375 -0.375 C 1.097656 -0.300781 1.238281 -0.265625 1.40625 -0.265625 Z M 1.40625 -0.265625 "/></g></g></g></svg>