<svg xmlns="http://www.w3.org/2000/svg" xmlns:xlink="http://www.w3.org/1999/xlink" width="144" zoomAndPan="magnify" viewBox="0 0 108 72" height="96" preserveAspectRatio="xMidYMid meet" version="1.0"><defs><g/><clipPath id="3cdbe23c1b"><path d="M 30.089844 9 L 84.089844 9 L 84.089844 26.078125 L 30.089844 26.078125 Z M 30.089844 9 " clip-rule="nonzero"/></clipPath><clipPath id="de3aa49757"><path d="M 30.089844 27.460938 L 62.492188 27.460938 L 62.492188 44.539062 L 30.089844 44.539062 Z M 30.089844 27.460938 " clip-rule="nonzero"/></clipPath><clipPath id="e89cecaf4e"><path d="M 30.089844 45.921875 L 51.691406 45.921875 L 51.691406 63 L 30.089844 63 Z M 30.089844 45.921875 " clip-rule="nonzero"/></clipPath></defs><g clip-path="url(#3cdbe23c1b)"><path fill="#2599be" d="M 30.089844 9 L 82.726562 9 C 82.90625 9 83.082031 9.035156 83.246094 9.105469 C 83.414062 9.171875 83.5625 9.273438 83.691406 9.398438 C 83.820312 9.527344 83.917969 9.675781 83.988281 9.84375 C 84.058594 10.011719 84.089844 10.183594 84.089844 10.367188 L 84.089844 24.710938 C 84.089844 24.890625 84.058594 25.066406 83.988281 25.234375 C 83.917969 25.402344 83.820312 25.546875 83.691406 25.675781 C 83.5625 25.804688 83.414062 25.902344 83.246094 25.972656 C 83.082031 26.042969 82.90625 26.078125 82.726562 26.078125 L 30.089844 26.078125 C 29.910156 26.078125 29.734375 26.042969 29.570312 25.972656 C 29.402344 25.902344 29.253906 25.804688 29.125 25.675781 C 28.996094 25.546875 28.898438 25.402344 28.828125 25.234375 C 28.761719 25.066406 28.726562 24.890625 28.726562 24.710938 L 28.726562 10.367188 C 28.726562 10.183594 28.761719 10.011719 28.828125 9.84375 C 28.898438 9.675781 28.996094 9.527344 29.125 9.398438 C 29.253906 9.273438 29.402344 9.171875 29.570312 9.105469 C 29.734375 9.035156 29.910156 9 30.089844 9 Z M 30.089844 9 " fill-opacity="1" fill-rule="nonzero"/></g><g clip-path="url(#de3aa49757)"><path fill="#2599be" d="M 30.089844 27.460938 L 61.125 27.460938 C 61.304688 27.460938 61.480469 27.496094 61.648438 27.566406 C 61.816406 27.636719 61.964844 27.734375 62.089844 27.863281 C 62.21875 27.988281 62.316406 28.136719 62.386719 28.304688 C 62.457031 28.472656 62.492188 28.648438 62.492188 28.828125 L 62.492188 43.171875 C 62.492188 43.351562 62.457031 43.527344 62.386719 43.695312 C 62.316406 43.863281 62.21875 44.011719 62.089844 44.136719 C 61.964844 44.265625 61.816406 44.363281 61.648438 44.433594 C 61.480469 44.503906 61.304688 44.539062 61.125 44.539062 L 30.089844 44.539062 C 29.910156 44.539062 29.734375 44.503906 29.570312 44.433594 C 29.402344 44.363281 29.253906 44.265625 29.125 44.136719 C 28.996094 44.011719 28.898438 43.863281 28.828125 43.695312 C 28.761719 43.527344 28.726562 43.351562 28.726562 43.171875 L 28.726562 28.828125 C 28.726562 28.648438 28.761719 28.472656 28.828125 28.304688 C 28.898438 28.136719 28.996094 27.988281 29.125 27.863281 C 29.253906 27.734375 29.402344 27.636719 29.570312 27.566406 C 29.734375 27.496094 29.910156 27.460938 30.089844 27.460938 Z M 30.089844 27.460938 " fill-opacity="1" fill-rule="nonzero"/></g><g clip-path="url(#e89cecaf4e)"><path fill="#2599be" d="M 30.089844 45.921875 L 50.324219 45.921875 C 50.507812 45.921875 50.679688 45.957031 50.847656 46.027344 C 51.015625 46.097656 51.164062 46.195312 51.292969 46.324219 C 51.417969 46.453125 51.519531 46.597656 51.585938 46.765625 C 51.65625 46.933594 51.691406 47.109375 51.691406 47.289062 L 51.691406 61.632812 C 51.691406 61.816406 51.65625 61.988281 51.585938 62.15625 C 51.519531 62.324219 51.417969 62.472656 51.292969 62.601562 C 51.164062 62.726562 51.015625 62.828125 50.847656 62.894531 C 50.679688 62.964844 50.507812 63 50.324219 63 L 30.089844 63 C 29.910156 63 29.734375 62.964844 29.570312 62.894531 C 29.402344 62.828125 29.253906 62.726562 29.125 62.601562 C 28.996094 62.472656 28.898438 62.324219 28.828125 62.15625 C 28.761719 61.988281 28.726562 61.816406 28.726562 61.632812 L 28.726562 47.289062 C 28.726562 47.109375 28.761719 46.933594 28.828125 46.765625 C 28.898438 46.597656 28.996094 46.453125 29.125 46.324219 C 29.253906 46.195312 29.402344 46.097656 29.570312 46.027344 C 29.734375 45.957031 29.910156 45.921875 30.089844 45.921875 Z M 30.089844 45.921875 " fill-opacity="1" fill-rule="nonzero"/></g><g fill="#737373" fill-opacity="1"><g transform="translate(23.969607, 19.199877)"><g><path d="M 2.578125 0 L 2.21875 0 L 1.953125 -0.78125 L 0.734375 -0.78125 L 0.46875 0 L 0.109375 0 L 1.109375 -2.859375 L 1.578125 -2.859375 Z M 1.3125 -2.515625 L 0.828125 -1.0625 L 1.859375 -1.0625 L 1.359375 -2.515625 Z M 1.3125 -2.515625 "/></g></g></g><g fill="#737373" fill-opacity="1"><g transform="translate(23.936795, 37.374998)"><g><path d="M 0.4375 0 L 0.4375 -2.859375 L 1.515625 -2.859375 C 1.691406 -2.859375 1.835938 -2.828125 1.953125 -2.765625 C 2.078125 -2.710938 2.171875 -2.632812 2.234375 -2.53125 C 2.296875 -2.425781 2.328125 -2.300781 2.328125 -2.15625 C 2.328125 -2.039062 2.289062 -1.929688 2.21875 -1.828125 C 2.15625 -1.722656 2.0625 -1.644531 1.9375 -1.59375 L 1.9375 -1.546875 C 2.132812 -1.503906 2.28125 -1.421875 2.375 -1.296875 C 2.46875 -1.171875 2.515625 -1.015625 2.515625 -0.828125 C 2.515625 -0.566406 2.4375 -0.363281 2.28125 -0.21875 C 2.132812 -0.0703125 1.90625 0 1.59375 0 Z M 1.5 -1.65625 C 1.65625 -1.65625 1.773438 -1.695312 1.859375 -1.78125 C 1.953125 -1.863281 2 -1.976562 2 -2.125 C 2 -2.269531 1.957031 -2.378906 1.875 -2.453125 C 1.789062 -2.535156 1.664062 -2.578125 1.5 -2.578125 L 0.765625 -2.578125 L 0.765625 -1.65625 Z M 1.578125 -0.28125 C 1.984375 -0.28125 2.1875 -0.460938 2.1875 -0.828125 C 2.1875 -1.191406 1.984375 -1.375 1.578125 -1.375 L 0.765625 -1.375 L 0.765625 -0.28125 Z M 1.578125 -0.28125 "/></g></g></g><g fill="#737373" fill-opacity="1"><g transform="translate(23.90867, 55.325017)"><g><path d="M 1.578125 0.046875 C 1.328125 0.046875 1.101562 -0.0078125 0.90625 -0.125 C 0.71875 -0.238281 0.566406 -0.40625 0.453125 -0.625 C 0.335938 -0.851562 0.28125 -1.117188 0.28125 -1.421875 C 0.28125 -1.734375 0.335938 -2 0.453125 -2.21875 C 0.566406 -2.4375 0.71875 -2.601562 0.90625 -2.71875 C 1.101562 -2.832031 1.328125 -2.890625 1.578125 -2.890625 C 1.847656 -2.890625 2.070312 -2.835938 2.25 -2.734375 C 2.425781 -2.640625 2.550781 -2.492188 2.625 -2.296875 L 2.40625 -2.140625 L 2.359375 -2.140625 C 2.285156 -2.304688 2.1875 -2.421875 2.0625 -2.484375 C 1.9375 -2.554688 1.773438 -2.59375 1.578125 -2.59375 C 1.398438 -2.59375 1.238281 -2.550781 1.09375 -2.46875 C 0.957031 -2.394531 0.847656 -2.269531 0.765625 -2.09375 C 0.679688 -1.914062 0.640625 -1.691406 0.640625 -1.421875 C 0.640625 -1.148438 0.679688 -0.925781 0.765625 -0.75 C 0.847656 -0.582031 0.957031 -0.457031 1.09375 -0.375 C 1.238281 -0.300781 1.398438 -0.265625 1.578125 -0.265625 C 1.785156 -0.265625 1.953125 -0.3125 2.078125 -0.40625 C 2.210938 -0.5 2.3125 -0.648438 2.375 -0.859375 L 2.421875 -0.859375 L 2.65625 -0.75 C 2.582031 -0.488281 2.453125 -0.289062 2.265625 -0.15625 C 2.085938 -0.0195312 1.859375 0.046875 1.578125 0.046875 Z M 1.578125 0.046875 "/></g></g></g><g fill="#ffffff" fill-opacity="1"><g transform="translate(73.878206, 19.199877)"><g><path d="M 1.171875 0.046875 C 0.910156 0.046875 0.695312 -0.0078125 0.53125 -0.125 C 0.375 -0.25 0.269531 -0.421875 0.21875 -0.640625 L 0.46875 -0.75 L 0.515625 -0.75 C 0.546875 -0.632812 0.585938 -0.539062 0.640625 -0.46875 C 0.691406 -0.40625 0.757812 -0.351562 0.84375 -0.3125 C 0.9375 -0.28125 1.046875 -0.265625 1.171875 -0.265625 C 1.367188 -0.265625 1.519531 -0.320312 1.625 -0.4375 C 1.726562 -0.550781 1.78125 -0.71875 1.78125 -0.9375 C 1.78125 -1.164062 1.726562 -1.335938 1.625 -1.453125 C 1.519531 -1.566406 1.375 -1.625 1.1875 -1.625 C 1.050781 -1.625 0.9375 -1.59375 0.84375 -1.53125 C 0.757812 -1.476562 0.679688 -1.394531 0.609375 -1.28125 L 0.34375 -1.296875 L 0.390625 -2.859375 L 2 -2.859375 L 2 -2.578125 L 0.6875 -2.578125 L 0.65625 -1.625 L 0.703125 -1.609375 C 0.765625 -1.710938 0.84375 -1.785156 0.9375 -1.828125 C 1.039062 -1.878906 1.160156 -1.90625 1.296875 -1.90625 C 1.460938 -1.90625 1.609375 -1.867188 1.734375 -1.796875 C 1.867188 -1.722656 1.96875 -1.613281 2.03125 -1.46875 C 2.101562 -1.320312 2.140625 -1.144531 2.140625 -0.9375 C 2.140625 -0.738281 2.097656 -0.5625 2.015625 -0.40625 C 1.941406 -0.257812 1.832031 -0.144531 1.6875 -0.0625 C 1.539062 0.0078125 1.367188 0.046875 1.171875 0.046875 Z M 1.171875 0.046875 "/></g></g><g transform="translate(76.241486, 19.199877)"><g><path d="M 1.40625 0.046875 C 1.195312 0.046875 1.007812 -0.00390625 0.84375 -0.109375 C 0.675781 -0.210938 0.539062 -0.375 0.4375 -0.59375 C 0.34375 -0.8125 0.296875 -1.085938 0.296875 -1.421875 C 0.296875 -1.765625 0.34375 -2.046875 0.4375 -2.265625 C 0.539062 -2.484375 0.675781 -2.640625 0.84375 -2.734375 C 1.007812 -2.835938 1.195312 -2.890625 1.40625 -2.890625 C 1.613281 -2.890625 1.800781 -2.835938 1.96875 -2.734375 C 2.132812 -2.640625 2.265625 -2.484375 2.359375 -2.265625 C 2.460938 -2.046875 2.515625 -1.765625 2.515625 -1.421875 C 2.515625 -1.085938 2.460938 -0.8125 2.359375 -0.59375 C 2.265625 -0.375 2.132812 -0.210938 1.96875 -0.109375 C 1.800781 -0.00390625 1.613281 0.046875 1.40625 0.046875 Z M 1.40625 -0.265625 C 1.65625 -0.265625 1.84375 -0.351562 1.96875 -0.53125 C 2.09375 -0.71875 2.15625 -1.015625 2.15625 -1.421875 C 2.15625 -1.835938 2.09375 -2.132812 1.96875 -2.3125 C 1.84375 -2.5 1.65625 -2.59375 1.40625 -2.59375 C 1.238281 -2.59375 1.097656 -2.550781 0.984375 -2.46875 C 0.878906 -2.394531 0.796875 -2.269531 0.734375 -2.09375 C 0.671875 -1.925781 0.640625 -1.703125 0.640625 -1.421875 C 0.640625 -1.148438 0.671875 -0.925781 0.734375 -0.75 C 0.796875 -0.582031 0.878906 -0.457031 0.984375 -0.375 C 1.097656 -0.300781 1.238281 -0.265625 1.40625 -0.265625 Z M 1.40625 -0.265625 "/></g></g><g transform="translate(79.050078, 19.199877)"><g><path d="M 0.8125 -1.3125 C 0.6875 -1.3125 0.570312 -1.335938 0.46875 -1.390625 C 0.375 -1.453125 0.300781 -1.539062 0.25 -1.65625 C 0.195312 -1.769531 0.171875 -1.921875 0.171875 -2.109375 C 0.171875 -2.367188 0.226562 -2.5625 0.34375 -2.6875 C 0.457031 -2.820312 0.613281 -2.890625 0.8125 -2.890625 C 0.9375 -2.890625 1.046875 -2.863281 1.140625 -2.8125 C 1.242188 -2.757812 1.320312 -2.671875 1.375 -2.546875 C 1.425781 -2.429688 1.453125 -2.285156 1.453125 -2.109375 C 1.453125 -1.921875 1.425781 -1.769531 1.375 -1.65625 C 1.320312 -1.539062 1.242188 -1.453125 1.140625 -1.390625 C 1.046875 -1.335938 0.9375 -1.3125 0.8125 -1.3125 Z M 0.875 0 L 0.59375 0 L 0.578125 -0.046875 L 2.5 -2.859375 L 2.78125 -2.859375 L 2.78125 -2.8125 Z M 0.8125 -1.546875 C 0.9375 -1.546875 1.023438 -1.585938 1.078125 -1.671875 C 1.140625 -1.753906 1.171875 -1.898438 1.171875 -2.109375 C 1.171875 -2.304688 1.140625 -2.445312 1.078125 -2.53125 C 1.023438 -2.613281 0.9375 -2.65625 0.8125 -2.65625 C 0.726562 -2.65625 0.660156 -2.632812 0.609375 -2.59375 C 0.554688 -2.5625 0.515625 -2.503906 0.484375 -2.421875 C 0.460938 -2.347656 0.453125 -2.242188 0.453125 -2.109375 C 0.453125 -1.972656 0.460938 -1.863281 0.484375 -1.78125 C 0.515625 -1.695312 0.554688 -1.632812 0.609375 -1.59375 C 0.660156 -1.5625 0.726562 -1.546875 0.8125 -1.546875 Z M 2.5625 0.046875 C 2.363281 0.046875 2.207031 -0.0195312 2.09375 -0.15625 C 1.976562 -0.289062 1.921875 -0.488281 1.921875 -0.75 C 1.921875 -1.019531 1.976562 -1.21875 2.09375 -1.34375 C 2.207031 -1.476562 2.363281 -1.546875 2.5625 -1.546875 C 2.695312 -1.546875 2.8125 -1.515625 2.90625 -1.453125 C 3 -1.398438 3.070312 -1.316406 3.125 -1.203125 C 3.1875 -1.085938 3.21875 -0.9375 3.21875 -0.75 C 3.21875 -0.570312 3.1875 -0.421875 3.125 -0.296875 C 3.070312 -0.179688 3 -0.09375 2.90625 -0.03125 C 2.8125 0.0195312 2.695312 0.046875 2.5625 0.046875 Z M 2.5625 -0.203125 C 2.6875 -0.203125 2.773438 -0.242188 2.828125 -0.328125 C 2.890625 -0.410156 2.921875 -0.550781 2.921875 -0.75 C 2.921875 -0.945312 2.890625 -1.085938 2.828125 -1.171875 C 2.773438 -1.265625 2.6875 -1.3125 2.5625 -1.3125 C 2.4375 -1.3125 2.34375 -1.269531 2.28125 -1.1875 C 2.226562 -1.101562 2.203125 -0.957031 2.203125 -0.75 C 2.203125 -0.550781 2.226562 -0.410156 2.28125 -0.328125 C 2.34375 -0.242188 2.4375 -0.203125 2.5625 -0.203125 Z M 2.5625 -0.203125 "/></g></g></g><g fill="#ffffff" fill-opacity="1"><g transform="translate(52.201138, 37.333338)"><g><path d="M 1.125 0.046875 C 0.851562 0.046875 0.632812 -0.015625 0.46875 -0.140625 C 0.3125 -0.265625 0.207031 -0.441406 0.15625 -0.671875 L 0.40625 -0.78125 L 0.453125 -0.765625 C 0.503906 -0.597656 0.578125 -0.472656 0.671875 -0.390625 C 0.773438 -0.304688 0.925781 -0.265625 1.125 -0.265625 C 1.332031 -0.265625 1.488281 -0.3125 1.59375 -0.40625 C 1.695312 -0.5 1.75 -0.632812 1.75 -0.8125 C 1.75 -0.988281 1.691406 -1.117188 1.578125 -1.203125 C 1.472656 -1.296875 1.304688 -1.34375 1.078125 -1.34375 L 0.765625 -1.34375 L 0.765625 -1.625 L 1.046875 -1.625 C 1.222656 -1.625 1.363281 -1.664062 1.46875 -1.75 C 1.582031 -1.84375 1.640625 -1.972656 1.640625 -2.140625 C 1.640625 -2.296875 1.59375 -2.410156 1.5 -2.484375 C 1.40625 -2.566406 1.273438 -2.609375 1.109375 -2.609375 C 0.828125 -2.609375 0.625 -2.492188 0.5 -2.265625 L 0.453125 -2.25 L 0.265625 -2.453125 C 0.335938 -2.585938 0.445312 -2.691406 0.59375 -2.765625 C 0.738281 -2.847656 0.910156 -2.890625 1.109375 -2.890625 C 1.296875 -2.890625 1.453125 -2.863281 1.578125 -2.8125 C 1.703125 -2.757812 1.796875 -2.675781 1.859375 -2.5625 C 1.929688 -2.457031 1.96875 -2.332031 1.96875 -2.1875 C 1.96875 -2.039062 1.925781 -1.914062 1.84375 -1.8125 C 1.769531 -1.707031 1.664062 -1.625 1.53125 -1.5625 L 1.53125 -1.515625 C 1.71875 -1.472656 1.859375 -1.390625 1.953125 -1.265625 C 2.046875 -1.140625 2.09375 -0.988281 2.09375 -0.8125 C 2.09375 -0.539062 2.007812 -0.328125 1.84375 -0.171875 C 1.6875 -0.0234375 1.445312 0.046875 1.125 0.046875 Z M 1.125 0.046875 "/></g></g><g transform="translate(54.521449, 37.333338)"><g><path d="M 1.40625 0.046875 C 1.195312 0.046875 1.007812 -0.00390625 0.84375 -0.109375 C 0.675781 -0.210938 0.539062 -0.375 0.4375 -0.59375 C 0.34375 -0.8125 0.296875 -1.085938 0.296875 -1.421875 C 0.296875 -1.765625 0.34375 -2.046875 0.4375 -2.265625 C 0.539062 -2.484375 0.675781 -2.640625 0.84375 -2.734375 C 1.007812 -2.835938 1.195312 -2.890625 1.40625 -2.890625 C 1.613281 -2.890625 1.800781 -2.835938 1.96875 -2.734375 C 2.132812 -2.640625 2.265625 -2.484375 2.359375 -2.265625 C 2.460938 -2.046875 2.515625 -1.765625 2.515625 -1.421875 C 2.515625 -1.085938 2.460938 -0.8125 2.359375 -0.59375 C 2.265625 -0.375 2.132812 -0.210938 1.96875 -0.109375 C 1.800781 -0.00390625 1.613281 0.046875 1.40625 0.046875 Z M 1.40625 -0.265625 C 1.65625 -0.265625 1.84375 -0.351562 1.96875 -0.53125 C 2.09375 -0.71875 2.15625 -1.015625 2.15625 -1.421875 C 2.15625 -1.835938 2.09375 -2.132812 1.96875 -2.3125 C 1.84375 -2.5 1.65625 -2.59375 1.40625 -2.59375 C 1.238281 -2.59375 1.097656 -2.550781 0.984375 -2.46875 C 0.878906 -2.394531 0.796875 -2.269531 0.734375 -2.09375 C 0.671875 -1.925781 0.640625 -1.703125 0.640625 -1.421875 C 0.640625 -1.148438 0.671875 -0.925781 0.734375 -0.75 C 0.796875 -0.582031 0.878906 -0.457031 0.984375 -0.375 C 1.097656 -0.300781 1.238281 -0.265625 1.40625 -0.265625 Z M 1.40625 -0.265625 "/></g></g><g transform="translate(57.330041, 37.333338)"><g><path d="M 0.8125 -1.3125 C 0.6875 -1.3125 0.570312 -1.335938 0.46875 -1.390625 C 0.375 -1.453125 0.300781 -1.539062 0.25 -1.65625 C 0.195312 -1.769531 0.171875 -1.921875 0.171875 -2.109375 C 0.171875 -2.367188 0.226562 -2.5625 0.34375 -2.6875 C 0.457031 -2.820312 0.613281 -2.890625 0.8125 -2.890625 C 0.9375 -2.890625 1.046875 -2.863281 1.140625 -2.8125 C 1.242188 -2.757812 1.320312 -2.671875 1.375 -2.546875 C 1.425781 -2.429688 1.453125 -2.285156 1.453125 -2.109375 C 1.453125 -1.921875 1.425781 -1.769531 1.375 -1.65625 C 1.320312 -1.539062 1.242188 -1.453125 1.140625 -1.390625 C 1.046875 -1.335938 0.9375 -1.3125 0.8125 -1.3125 Z M 0.875 0 L 0.59375 0 L 0.578125 -0.046875 L 2.5 -2.859375 L 2.78125 -2.859375 L 2.78125 -2.8125 Z M 0.8125 -1.546875 C 0.9375 -1.546875 1.023438 -1.585938 1.078125 -1.671875 C 1.140625 -1.753906 1.171875 -1.898438 1.171875 -2.109375 C 1.171875 -2.304688 1.140625 -2.445312 1.078125 -2.53125 C 1.023438 -2.613281 0.9375 -2.65625 0.8125 -2.65625 C 0.726562 -2.65625 0.660156 -2.632812 0.609375 -2.59375 C 0.554688 -2.5625 0.515625 -2.503906 0.484375 -2.421875 C 0.460938 -2.347656 0.453125 -2.242188 0.453125 -2.109375 C 0.453125 -1.972656 0.460938 -1.863281 0.484375 -1.78125 C 0.515625 -1.695312 0.554688 -1.632812 0.609375 -1.59375 C 0.660156 -1.5625 0.726562 -1.546875 0.8125 -1.546875 Z M 2.5625 0.046875 C 2.363281 0.046875 2.207031 -0.0195312 2.09375 -0.15625 C 1.976562 -0.289062 1.921875 -0.488281 1.921875 -0.75 C 1.921875 -1.019531 1.976562 -1.21875 2.09375 -1.34375 C 2.207031 -1.476562 2.363281 -1.546875 2.5625 -1.546875 C 2.695312 -1.546875 2.8125 -1.515625 2.90625 -1.453125 C 3 -1.398438 3.070312 -1.316406 3.125 -1.203125 C 3.1875 -1.085938 3.21875 -0.9375 3.21875 -0.75 C 3.21875 -0.570312 3.1875 -0.421875 3.125 -0.296875 C 3.070312 -0.179688 3 -0.09375 2.90625 -0.03125 C 2.8125 0.0195312 2.695312 0.046875 2.5625 0.046875 Z M 2.5625 -0.203125 C 2.6875 -0.203125 2.773438 -0.242188 2.828125 -0.328125 C 2.890625 -0.410156 2.921875 -0.550781 2.921875 -0.75 C 2.921875 -0.945312 2.890625 -1.085938 2.828125 -1.171875 C 2.773438 -1.265625 2.6875 -1.3125 2.5625 -1.3125 C 2.4375 -1.3125 2.34375 -1.269531 2.28125 -1.1875 C 2.226562 -1.101562 2.203125 -0.957031 2.203125 -0.75 C 2.203125 -0.550781 2.226562 -0.410156 2.28125 -0.328125 C 2.34375 -0.242188 2.4375 -0.203125 2.5625 -0.203125 Z M 2.5625 -0.203125 "/></g></g></g><g fill="#ffffff" fill-opacity="1"><g transform="translate(41.890661, 55.325017)"><g><path d="M 0.171875 -0.125 C 0.171875 -0.289062 0.1875 -0.421875 0.21875 -0.515625 C 0.257812 -0.609375 0.320312 -0.695312 0.40625 -0.78125 C 0.488281 -0.863281 0.617188 -0.972656 0.796875 -1.109375 L 1.109375 -1.328125 C 1.222656 -1.421875 1.316406 -1.5 1.390625 -1.5625 C 1.460938 -1.632812 1.519531 -1.710938 1.5625 -1.796875 C 1.613281 -1.878906 1.640625 -1.972656 1.640625 -2.078125 C 1.640625 -2.253906 1.59375 -2.382812 1.5 -2.46875 C 1.40625 -2.550781 1.265625 -2.59375 1.078125 -2.59375 C 0.921875 -2.59375 0.785156 -2.554688 0.671875 -2.484375 C 0.554688 -2.421875 0.460938 -2.320312 0.390625 -2.1875 L 0.34375 -2.1875 L 0.140625 -2.390625 C 0.242188 -2.546875 0.375 -2.664062 0.53125 -2.75 C 0.6875 -2.84375 0.867188 -2.890625 1.078125 -2.890625 C 1.273438 -2.890625 1.441406 -2.851562 1.578125 -2.78125 C 1.710938 -2.71875 1.8125 -2.625 1.875 -2.5 C 1.9375 -2.382812 1.96875 -2.242188 1.96875 -2.078125 C 1.96875 -1.953125 1.941406 -1.832031 1.890625 -1.71875 C 1.835938 -1.613281 1.757812 -1.507812 1.65625 -1.40625 C 1.5625 -1.3125 1.441406 -1.210938 1.296875 -1.109375 L 0.984375 -0.875 C 0.867188 -0.789062 0.773438 -0.71875 0.703125 -0.65625 C 0.640625 -0.59375 0.59375 -0.53125 0.5625 -0.46875 C 0.539062 -0.414062 0.53125 -0.351562 0.53125 -0.28125 L 1.96875 -0.28125 L 1.96875 0 L 0.171875 0 Z M 0.171875 -0.125 "/></g></g><g transform="translate(44.085973, 55.325017)"><g><path d="M 1.40625 0.046875 C 1.195312 0.046875 1.007812 -0.00390625 0.84375 -0.109375 C 0.675781 -0.210938 0.539062 -0.375 0.4375 -0.59375 C 0.34375 -0.8125 0.296875 -1.085938 0.296875 -1.421875 C 0.296875 -1.765625 0.34375 -2.046875 0.4375 -2.265625 C 0.539062 -2.484375 0.675781 -2.640625 0.84375 -2.734375 C 1.007812 -2.835938 1.195312 -2.890625 1.40625 -2.890625 C 1.613281 -2.890625 1.800781 -2.835938 1.96875 -2.734375 C 2.132812 -2.640625 2.265625 -2.484375 2.359375 -2.265625 C 2.460938 -2.046875 2.515625 -1.765625 2.515625 -1.421875 C 2.515625 -1.085938 2.460938 -0.8125 2.359375 -0.59375 C 2.265625 -0.375 2.132812 -0.210938 1.96875 -0.109375 C 1.800781 -0.00390625 1.613281 0.046875 1.40625 0.046875 Z M 1.40625 -0.265625 C 1.65625 -0.265625 1.84375 -0.351562 1.96875 -0.53125 C 2.09375 -0.71875 2.15625 -1.015625 2.15625 -1.421875 C 2.15625 -1.835938 2.09375 -2.132812 1.96875 -2.3125 C 1.84375 -2.5 1.65625 -2.59375 1.40625 -2.59375 C 1.238281 -2.59375 1.097656 -2.550781 0.984375 -2.46875 C 0.878906 -2.394531 0.796875 -2.269531 0.734375 -2.09375 C 0.671875 -1.925781 0.640625 -1.703125 0.640625 -1.421875 C 0.640625 -1.148438 0.671875 -0.925781 0.734375 -0.75 C 0.796875 -0.582031 0.878906 -0.457031 0.984375 -0.375 C 1.097656 -0.300781 1.238281 -0.265625 1.40625 -0.265625 Z M 1.40625 -0.265625 "/></g></g><g transform="translate(46.894565, 55.325017)"><g><path d="M 0.8125 -1.3125 C 0.6875 -1.3125 0.570312 -1.335938 0.46875 -1.390625 C 0.375 -1.453125 0.300781 -1.539062 0.25 -1.65625 C 0.195312 -1.769531 0.171875 -1.921875 0.171875 -2.109375 C 0.171875 -2.367188 0.226562 -2.5625 0.34375 -2.6875 C 0.457031 -2.820312 0.613281 -2.890625 0.8125 -2.890625 C 0.9375 -2.890625 1.046875 -2.863281 1.140625 -2.8125 C 1.242188 -2.757812 1.320312 -2.671875 1.375 -2.546875 C 1.425781 -2.429688 1.453125 -2.285156 1.453125 -2.109375 C 1.453125 -1.921875 1.425781 -1.769531 1.375 -1.65625 C 1.320312 -1.539062 1.242188 -1.453125 1.140625 -1.390625 C 1.046875 -1.335938 0.9375 -1.3125 0.8125 -1.3125 Z M 0.875 0 L 0.59375 0 L 0.578125 -0.046875 L 2.5 -2.859375 L 2.78125 -2.859375 L 2.78125 -2.8125 Z M 0.8125 -1.546875 C 0.9375 -1.546875 1.023438 -1.585938 1.078125 -1.671875 C 1.140625 -1.753906 1.171875 -1.898438 1.171875 -2.109375 C 1.171875 -2.304688 1.140625 -2.445312 1.078125 -2.53125 C 1.023438 -2.613281 0.9375 -2.65625 0.8125 -2.65625 C 0.726562 -2.65625 0.660156 -2.632812 0.609375 -2.59375 C 0.554688 -2.5625 0.515625 -2.503906 0.484375 -2.421875 C 0.460938 -2.347656 0.453125 -2.242188 0.453125 -2.109375 C 0.453125 -1.972656 0.460938 -1.863281 0.484375 -1.78125 C 0.515625 -1.695312 0.554688 -1.632812 0.609375 -1.59375 C 0.660156 -1.5625 0.726562 -1.546875 0.8125 -1.546875 Z M 2.5625 0.046875 C 2.363281 0.046875 2.207031 -0.0195312 2.09375 -0.15625 C 1.976562 -0.289062 1.921875 -0.488281 1.921875 -0.75 C 1.921875 -1.019531 1.976562 -1.21875 2.09375 -1.34375 C 2.207031 -1.476562 2.363281 -1.546875 2.5625 -1.546875 C 2.695312 -1.546875 2.8125 -1.515625 2.90625 -1.453125 C 3 -1.398438 3.070312 -1.316406 3.125 -1.203125 C 3.1875 -1.085938 3.21875 -0.9375 3.21875 -0.75 C 3.21875 -0.570312 3.1875 -0.421875 3.125 -0.296875 C 3.070312 -0.179688 3 -0.09375 2.90625 -0.03125 C 2.8125 0.0195312 2.695312 0.046875 2.5625 0.046875 Z M 2.5625 -0.203125 C 2.6875 -0.203125 2.773438 -0.242188 2.828125 -0.328125 C 2.890625 -0.410156 2.921875 -0.550781 2.921875 -0.75 C 2.921875 -0.945312 2.890625 -1.085938 2.828125 -1.171875 C 2.773438 -1.265625 2.6875 -1.3125 2.5625 -1.3125 C 2.4375 -1.3125 2.34375 -1.269531 2.28125 -1.1875 C 2.226562 -1.101562 2.203125 -0.957031 2.203125 -0.75 C 2.203125 -0.550781 2.226562 -0.410156 2.28125 -0.328125 C 2.34375 -0.242188 2.4375 -0.203125 2.5625 -0.203125 Z M 2.5625 -0.203125 "/></g></g></g></svg>