<svg xmlns="http://www.w3.org/2000/svg" xmlns:xlink="http://www.w3.org/1999/xlink" width="144" zoomAndPan="magnify" viewBox="0 0 108 72" height="96" preserveAspectRatio="xMidYMid meet" version="1.0"><defs><g/><clipPath id="747829830f"><path d="M 25.15625 9 L 52.15625 9 L 52.15625 17.164062 L 25.15625 17.164062 Z M 25.15625 9 " clip-rule="nonzero"/></clipPath><clipPath id="4b291170d8"><path d="M 25.15625 17.59375 L 65.65625 17.59375 L 65.65625 25.757812 L 25.15625 25.757812 Z M 25.15625 17.59375 " clip-rule="nonzero"/></clipPath><clipPath id="709b2a727b"><path d="M 25.15625 27.621094 L 45.40625 27.621094 L 45.40625 35.785156 L 25.15625 35.785156 Z M 25.15625 27.621094 " clip-rule="nonzero"/></clipPath><clipPath id="a43e1f5a10"><path d="M 25.15625 36.214844 L 72.40625 36.214844 L 72.40625 44.378906 L 25.15625 44.378906 Z M 25.15625 36.214844 " clip-rule="nonzero"/></clipPath><clipPath id="87a379b237"><path d="M 25.15625 46.242188 L 79.15625 46.242188 L 79.15625 54.40625 L 25.15625 54.40625 Z M 25.15625 46.242188 " clip-rule="nonzero"/></clipPath><clipPath id="38d69b3f21"><path d="M 25.15625 54.835938 L 38.65625 54.835938 L 38.65625 63 L 25.15625 63 Z M 25.15625 54.835938 " clip-rule="nonzero"/></clipPath><clipPath id="9c9eda22a6"><path d="M 83.65625 28.925781 L 92.132812 28.925781 L 92.132812 33.421875 L 83.65625 33.421875 Z M 83.65625 28.925781 " clip-rule="nonzero"/></clipPath><clipPath id="898f30a7d5"><path d="M 83.65625 34.757812 L 92.132812 34.757812 L 92.132812 39.253906 L 83.65625 39.253906 Z M 83.65625 34.757812 " clip-rule="nonzero"/></clipPath></defs><g clip-path="url(#747829830f)"><path fill="#737373" d="M 25.15625 9 L 51.503906 9 C 51.683594 9 51.835938 9.0625 51.964844 9.191406 C 52.09375 9.320312 52.15625 9.472656 52.15625 9.652344 L 52.15625 16.511719 C 52.15625 16.691406 52.09375 16.84375 51.964844 16.972656 C 51.835938 17.101562 51.683594 17.164062 51.503906 17.164062 L 25.15625 17.164062 C 24.976562 17.164062 24.820312 17.101562 24.695312 16.972656 C 24.566406 16.84375 24.503906 16.691406 24.503906 16.511719 L 24.503906 9.652344 C 24.503906 9.472656 24.566406 9.320312 24.695312 9.191406 C 24.820312 9.0625 24.976562 9 25.15625 9 Z M 25.15625 9 " fill-opacity="1" fill-rule="nonzero"/></g><g clip-path="url(#4b291170d8)"><path fill="#2599be" d="M 25.15625 17.59375 L 65.003906 17.59375 C 65.183594 17.59375 65.335938 17.65625 65.464844 17.785156 C 65.59375 17.914062 65.65625 18.066406 65.65625 18.246094 L 65.65625 25.105469 C 65.65625 25.285156 65.59375 25.441406 65.464844 25.566406 C 65.335938 25.695312 65.183594 25.757812 65.003906 25.757812 L 25.15625 25.757812 C 24.976562 25.757812 24.820312 25.695312 24.695312 25.566406 C 24.566406 25.441406 24.503906 25.285156 24.503906 25.105469 L 24.503906 18.246094 C 24.503906 18.066406 24.566406 17.914062 24.695312 17.785156 C 24.820312 17.65625 24.976562 17.59375 25.15625 17.59375 Z M 25.15625 17.59375 " fill-opacity="1" fill-rule="nonzero"/></g><g clip-path="url(#709b2a727b)"><path fill="#737373" d="M 25.15625 27.621094 L 44.753906 27.621094 C 44.933594 27.621094 45.085938 27.683594 45.214844 27.8125 C 45.34375 27.941406 45.40625 28.09375 45.40625 28.273438 L 45.40625 35.132812 C 45.40625 35.3125 45.34375 35.464844 45.214844 35.59375 C 45.085938 35.722656 44.933594 35.785156 44.753906 35.785156 L 25.15625 35.785156 C 24.976562 35.785156 24.820312 35.722656 24.695312 35.59375 C 24.566406 35.464844 24.503906 35.3125 24.503906 35.132812 L 24.503906 28.273438 C 24.503906 28.09375 24.566406 27.941406 24.695312 27.8125 C 24.820312 27.683594 24.976562 27.621094 25.15625 27.621094 Z M 25.15625 27.621094 " fill-opacity="1" fill-rule="nonzero"/></g><g clip-path="url(#a43e1f5a10)"><path fill="#2599be" d="M 25.15625 36.214844 L 71.753906 36.214844 C 71.933594 36.214844 72.085938 36.277344 72.214844 36.40625 C 72.34375 36.535156 72.40625 36.6875 72.40625 36.867188 L 72.40625 43.726562 C 72.40625 43.90625 72.34375 44.058594 72.214844 44.1875 C 72.085938 44.316406 71.933594 44.378906 71.753906 44.378906 L 25.15625 44.378906 C 24.976562 44.378906 24.820312 44.316406 24.695312 44.1875 C 24.566406 44.058594 24.503906 43.90625 24.503906 43.726562 L 24.503906 36.867188 C 24.503906 36.6875 24.566406 36.535156 24.695312 36.40625 C 24.820312 36.277344 24.976562 36.214844 25.15625 36.214844 Z M 25.15625 36.214844 " fill-opacity="1" fill-rule="nonzero"/></g><g clip-path="url(#87a379b237)"><path fill="#737373" d="M 25.15625 46.242188 L 78.503906 46.242188 C 78.683594 46.242188 78.835938 46.304688 78.964844 46.433594 C 79.09375 46.558594 79.15625 46.714844 79.15625 46.894531 L 79.15625 53.753906 C 79.15625 53.933594 79.09375 54.085938 78.964844 54.214844 C 78.835938 54.34375 78.683594 54.40625 78.503906 54.40625 L 25.15625 54.40625 C 24.976562 54.40625 24.820312 54.34375 24.695312 54.214844 C 24.566406 54.085938 24.503906 53.933594 24.503906 53.753906 L 24.503906 46.894531 C 24.503906 46.714844 24.566406 46.558594 24.695312 46.433594 C 24.820312 46.304688 24.976562 46.242188 25.15625 46.242188 Z M 25.15625 46.242188 " fill-opacity="1" fill-rule="nonzero"/></g><g clip-path="url(#38d69b3f21)"><path fill="#2599be" d="M 25.15625 54.835938 L 38.003906 54.835938 C 38.183594 54.835938 38.335938 54.898438 38.464844 55.027344 C 38.59375 55.15625 38.65625 55.308594 38.65625 55.488281 L 38.65625 62.347656 C 38.65625 62.527344 38.59375 62.679688 38.464844 62.808594 C 38.335938 62.9375 38.183594 63 38.003906 63 L 25.15625 63 C 24.976562 63 24.820312 62.9375 24.695312 62.808594 C 24.566406 62.679688 24.503906 62.527344 24.503906 62.347656 L 24.503906 55.488281 C 24.503906 55.308594 24.566406 55.15625 24.695312 55.027344 C 24.820312 54.898438 24.976562 54.835938 25.15625 54.835938 Z M 25.15625 54.835938 " fill-opacity="1" fill-rule="nonzero"/></g><g clip-path="url(#9c9eda22a6)"><path fill="#737373" d="M 83.65625 28.925781 L 92.140625 28.925781 L 92.140625 33.421875 L 83.65625 33.421875 Z M 83.65625 28.925781 " fill-opacity="1" fill-rule="nonzero"/></g><g fill="#737373" fill-opacity="1"><g transform="translate(19.904836, 19.5146)"><g><path d="M 2.578125 0 L 2.21875 0 L 1.953125 -0.78125 L 0.734375 -0.78125 L 0.46875 0 L 0.109375 0 L 1.109375 -2.859375 L 1.578125 -2.859375 Z M 1.3125 -2.515625 L 0.828125 -1.0625 L 1.859375 -1.0625 L 1.359375 -2.515625 Z M 1.3125 -2.515625 "/></g></g></g><g fill="#737373" fill-opacity="1"><g transform="translate(19.872026, 37.689724)"><g><path d="M 0.4375 0 L 0.4375 -2.859375 L 1.515625 -2.859375 C 1.691406 -2.859375 1.835938 -2.828125 1.953125 -2.765625 C 2.078125 -2.710938 2.171875 -2.632812 2.234375 -2.53125 C 2.296875 -2.425781 2.328125 -2.300781 2.328125 -2.15625 C 2.328125 -2.039062 2.289062 -1.929688 2.21875 -1.828125 C 2.15625 -1.722656 2.0625 -1.644531 1.9375 -1.59375 L 1.9375 -1.546875 C 2.132812 -1.503906 2.28125 -1.421875 2.375 -1.296875 C 2.46875 -1.171875 2.515625 -1.015625 2.515625 -0.828125 C 2.515625 -0.566406 2.4375 -0.363281 2.28125 -0.21875 C 2.132812 -0.0703125 1.90625 0 1.59375 0 Z M 1.5 -1.65625 C 1.65625 -1.65625 1.773438 -1.695312 1.859375 -1.78125 C 1.953125 -1.863281 2 -1.976562 2 -2.125 C 2 -2.269531 1.957031 -2.378906 1.875 -2.453125 C 1.789062 -2.535156 1.664062 -2.578125 1.5 -2.578125 L 0.765625 -2.578125 L 0.765625 -1.65625 Z M 1.578125 -0.28125 C 1.984375 -0.28125 2.1875 -0.460938 2.1875 -0.828125 C 2.1875 -1.191406 1.984375 -1.375 1.578125 -1.375 L 0.765625 -1.375 L 0.765625 -0.28125 Z M 1.578125 -0.28125 "/></g></g></g><g fill="#737373" fill-opacity="1"><g transform="translate(19.8439, 55.639725)"><g><path d="M 1.578125 0.046875 C 1.328125 0.046875 1.101562 -0.0078125 0.90625 -0.125 C 0.71875 -0.238281 0.566406 -0.40625 0.453125 -0.625 C 0.335938 -0.851562 0.28125 -1.117188 0.28125 -1.421875 C 0.28125 -1.734375 0.335938 -2 0.453125 -2.21875 C 0.566406 -2.4375 0.71875 -2.601562 0.90625 -2.71875 C 1.101562 -2.832031 1.328125 -2.890625 1.578125 -2.890625 C 1.847656 -2.890625 2.070312 -2.835938 2.25 -2.734375 C 2.425781 -2.640625 2.550781 -2.492188 2.625 -2.296875 L 2.40625 -2.140625 L 2.359375 -2.140625 C 2.285156 -2.304688 2.1875 -2.421875 2.0625 -2.484375 C 1.9375 -2.554688 1.773438 -2.59375 1.578125 -2.59375 C 1.398438 -2.59375 1.238281 -2.550781 1.09375 -2.46875 C 0.957031 -2.394531 0.847656 -2.269531 0.765625 -2.09375 C 0.679688 -1.914062 0.640625 -1.691406 0.640625 -1.421875 C 0.640625 -1.148438 0.679688 -0.925781 0.765625 -0.75 C 0.847656 -0.582031 0.957031 -0.457031 1.09375 -0.375 C 1.238281 -0.300781 1.398438 -0.265625 1.578125 -0.265625 C 1.785156 -0.265625 1.953125 -0.3125 2.078125 -0.40625 C 2.210938 -0.5 2.3125 -0.648438 2.375 -0.859375 L 2.421875 -0.859375 L 2.65625 -0.75 C 2.582031 -0.488281 2.453125 -0.289062 2.265625 -0.15625 C 2.085938 -0.0195312 1.859375 0.046875 1.578125 0.046875 Z M 1.578125 0.046875 "/></g></g></g><g fill="#ffffff" fill-opacity="1"><g transform="translate(41.698633, 13.849087)"><g><path d="M 1.78125 0 L 1.46875 0 L 1.46875 -0.6875 L 0.125 -0.6875 L 0.125 -0.953125 L 1.390625 -2.859375 L 1.78125 -2.859375 L 1.78125 -0.953125 L 2.28125 -0.953125 L 2.28125 -0.6875 L 1.78125 -0.6875 Z M 0.53125 -1 L 0.546875 -0.953125 L 1.46875 -0.953125 L 1.46875 -2.390625 L 1.421875 -2.40625 Z M 0.53125 -1 "/></g></g><g transform="translate(44.118553, 13.849087)"><g><path d="M 1.40625 0.046875 C 1.195312 0.046875 1.007812 -0.00390625 0.84375 -0.109375 C 0.675781 -0.210938 0.539062 -0.375 0.4375 -0.59375 C 0.34375 -0.8125 0.296875 -1.085938 0.296875 -1.421875 C 0.296875 -1.765625 0.34375 -2.046875 0.4375 -2.265625 C 0.539062 -2.484375 0.675781 -2.640625 0.84375 -2.734375 C 1.007812 -2.835938 1.195312 -2.890625 1.40625 -2.890625 C 1.613281 -2.890625 1.800781 -2.835938 1.96875 -2.734375 C 2.132812 -2.640625 2.265625 -2.484375 2.359375 -2.265625 C 2.460938 -2.046875 2.515625 -1.765625 2.515625 -1.421875 C 2.515625 -1.085938 2.460938 -0.8125 2.359375 -0.59375 C 2.265625 -0.375 2.132812 -0.210938 1.96875 -0.109375 C 1.800781 -0.00390625 1.613281 0.046875 1.40625 0.046875 Z M 1.40625 -0.265625 C 1.65625 -0.265625 1.84375 -0.351562 1.96875 -0.53125 C 2.09375 -0.71875 2.15625 -1.015625 2.15625 -1.421875 C 2.15625 -1.835938 2.09375 -2.132812 1.96875 -2.3125 C 1.84375 -2.5 1.65625 -2.59375 1.40625 -2.59375 C 1.238281 -2.59375 1.097656 -2.550781 0.984375 -2.46875 C 0.878906 -2.394531 0.796875 -2.269531 0.734375 -2.09375 C 0.671875 -1.925781 0.640625 -1.703125 0.640625 -1.421875 C 0.640625 -1.148438 0.671875 -0.925781 0.734375 -0.75 C 0.796875 -0.582031 0.878906 -0.457031 0.984375 -0.375 C 1.097656 -0.300781 1.238281 -0.265625 1.40625 -0.265625 Z M 1.40625 -0.265625 "/></g></g><g transform="translate(46.927145, 13.849087)"><g><path d="M 0.8125 -1.3125 C 0.6875 -1.3125 0.570312 -1.335938 0.46875 -1.390625 C 0.375 -1.453125 0.300781 -1.539062 0.25 -1.65625 C 0.195312 -1.769531 0.171875 -1.921875 0.171875 -2.109375 C 0.171875 -2.367188 0.226562 -2.5625 0.34375 -2.6875 C 0.457031 -2.820312 0.613281 -2.890625 0.8125 -2.890625 C 0.9375 -2.890625 1.046875 -2.863281 1.140625 -2.8125 C 1.242188 -2.757812 1.320312 -2.671875 1.375 -2.546875 C 1.425781 -2.429688 1.453125 -2.285156 1.453125 -2.109375 C 1.453125 -1.921875 1.425781 -1.769531 1.375 -1.65625 C 1.320312 -1.539062 1.242188 -1.453125 1.140625 -1.390625 C 1.046875 -1.335938 0.9375 -1.3125 0.8125 -1.3125 Z M 0.875 0 L 0.59375 0 L 0.578125 -0.046875 L 2.5 -2.859375 L 2.78125 -2.859375 L 2.78125 -2.8125 Z M 0.8125 -1.546875 C 0.9375 -1.546875 1.023438 -1.585938 1.078125 -1.671875 C 1.140625 -1.753906 1.171875 -1.898438 1.171875 -2.109375 C 1.171875 -2.304688 1.140625 -2.445312 1.078125 -2.53125 C 1.023438 -2.613281 0.9375 -2.65625 0.8125 -2.65625 C 0.726562 -2.65625 0.660156 -2.632812 0.609375 -2.59375 C 0.554688 -2.5625 0.515625 -2.503906 0.484375 -2.421875 C 0.460938 -2.347656 0.453125 -2.242188 0.453125 -2.109375 C 0.453125 -1.972656 0.460938 -1.863281 0.484375 -1.78125 C 0.515625 -1.695312 0.554688 -1.632812 0.609375 -1.59375 C 0.660156 -1.5625 0.726562 -1.546875 0.8125 -1.546875 Z M 2.5625 0.046875 C 2.363281 0.046875 2.207031 -0.0195312 2.09375 -0.15625 C 1.976562 -0.289062 1.921875 -0.488281 1.921875 -0.75 C 1.921875 -1.019531 1.976562 -1.21875 2.09375 -1.34375 C 2.207031 -1.476562 2.363281 -1.546875 2.5625 -1.546875 C 2.695312 -1.546875 2.8125 -1.515625 2.90625 -1.453125 C 3 -1.398438 3.070312 -1.316406 3.125 -1.203125 C 3.1875 -1.085938 3.21875 -0.9375 3.21875 -0.75 C 3.21875 -0.570312 3.1875 -0.421875 3.125 -0.296875 C 3.070312 -0.179688 3 -0.09375 2.90625 -0.03125 C 2.8125 0.0195312 2.695312 0.046875 2.5625 0.046875 Z M 2.5625 -0.203125 C 2.6875 -0.203125 2.773438 -0.242188 2.828125 -0.328125 C 2.890625 -0.410156 2.921875 -0.550781 2.921875 -0.75 C 2.921875 -0.945312 2.890625 -1.085938 2.828125 -1.171875 C 2.773438 -1.265625 2.6875 -1.3125 2.5625 -1.3125 C 2.4375 -1.3125 2.34375 -1.269531 2.28125 -1.1875 C 2.226562 -1.101562 2.203125 -0.957031 2.203125 -0.75 C 2.203125 -0.550781 2.226562 -0.410156 2.28125 -0.328125 C 2.34375 -0.242188 2.4375 -0.203125 2.5625 -0.203125 Z M 2.5625 -0.203125 "/></g></g></g><g fill="#ffffff" fill-opacity="1"><g transform="translate(55.72963, 22.728548)"><g><path d="M 1.359375 0.046875 C 1.160156 0.046875 0.976562 0 0.8125 -0.09375 C 0.65625 -0.195312 0.53125 -0.359375 0.4375 -0.578125 C 0.34375 -0.796875 0.296875 -1.078125 0.296875 -1.421875 C 0.296875 -1.765625 0.34375 -2.046875 0.4375 -2.265625 C 0.53125 -2.484375 0.660156 -2.640625 0.828125 -2.734375 C 0.992188 -2.835938 1.179688 -2.890625 1.390625 -2.890625 C 1.753906 -2.890625 2.023438 -2.78125 2.203125 -2.5625 L 2.046875 -2.34375 L 1.984375 -2.34375 C 1.847656 -2.507812 1.648438 -2.59375 1.390625 -2.59375 C 1.148438 -2.59375 0.960938 -2.5 0.828125 -2.3125 C 0.703125 -2.125 0.640625 -1.828125 0.640625 -1.421875 L 0.671875 -1.40625 C 0.753906 -1.570312 0.859375 -1.691406 0.984375 -1.765625 C 1.109375 -1.847656 1.257812 -1.890625 1.4375 -1.890625 C 1.625 -1.890625 1.78125 -1.847656 1.90625 -1.765625 C 2.039062 -1.691406 2.140625 -1.582031 2.203125 -1.4375 C 2.273438 -1.300781 2.3125 -1.132812 2.3125 -0.9375 C 2.3125 -0.738281 2.269531 -0.566406 2.1875 -0.421875 C 2.113281 -0.273438 2.003906 -0.160156 1.859375 -0.078125 C 1.722656 0.00390625 1.554688 0.046875 1.359375 0.046875 Z M 1.359375 -0.265625 C 1.546875 -0.265625 1.691406 -0.320312 1.796875 -0.4375 C 1.910156 -0.550781 1.96875 -0.71875 1.96875 -0.9375 C 1.96875 -1.144531 1.910156 -1.304688 1.796875 -1.421875 C 1.691406 -1.535156 1.546875 -1.59375 1.359375 -1.59375 C 1.234375 -1.59375 1.125 -1.566406 1.03125 -1.515625 C 0.9375 -1.460938 0.863281 -1.382812 0.8125 -1.28125 C 0.757812 -1.1875 0.734375 -1.070312 0.734375 -0.9375 C 0.734375 -0.789062 0.757812 -0.664062 0.8125 -0.5625 C 0.863281 -0.46875 0.9375 -0.394531 1.03125 -0.34375 C 1.125 -0.289062 1.234375 -0.265625 1.359375 -0.265625 Z M 1.359375 -0.265625 "/></g></g><g transform="translate(58.301894, 22.728548)"><g><path d="M 1.40625 0.046875 C 1.195312 0.046875 1.007812 -0.00390625 0.84375 -0.109375 C 0.675781 -0.210938 0.539062 -0.375 0.4375 -0.59375 C 0.34375 -0.8125 0.296875 -1.085938 0.296875 -1.421875 C 0.296875 -1.765625 0.34375 -2.046875 0.4375 -2.265625 C 0.539062 -2.484375 0.675781 -2.640625 0.84375 -2.734375 C 1.007812 -2.835938 1.195312 -2.890625 1.40625 -2.890625 C 1.613281 -2.890625 1.800781 -2.835938 1.96875 -2.734375 C 2.132812 -2.640625 2.265625 -2.484375 2.359375 -2.265625 C 2.460938 -2.046875 2.515625 -1.765625 2.515625 -1.421875 C 2.515625 -1.085938 2.460938 -0.8125 2.359375 -0.59375 C 2.265625 -0.375 2.132812 -0.210938 1.96875 -0.109375 C 1.800781 -0.00390625 1.613281 0.046875 1.40625 0.046875 Z M 1.40625 -0.265625 C 1.65625 -0.265625 1.84375 -0.351562 1.96875 -0.53125 C 2.09375 -0.71875 2.15625 -1.015625 2.15625 -1.421875 C 2.15625 -1.835938 2.09375 -2.132812 1.96875 -2.3125 C 1.84375 -2.5 1.65625 -2.59375 1.40625 -2.59375 C 1.238281 -2.59375 1.097656 -2.550781 0.984375 -2.46875 C 0.878906 -2.394531 0.796875 -2.269531 0.734375 -2.09375 C 0.671875 -1.925781 0.640625 -1.703125 0.640625 -1.421875 C 0.640625 -1.148438 0.671875 -0.925781 0.734375 -0.75 C 0.796875 -0.582031 0.878906 -0.457031 0.984375 -0.375 C 1.097656 -0.300781 1.238281 -0.265625 1.40625 -0.265625 Z M 1.40625 -0.265625 "/></g></g><g transform="translate(61.110486, 22.728548)"><g><path d="M 0.8125 -1.3125 C 0.6875 -1.3125 0.570312 -1.335938 0.46875 -1.390625 C 0.375 -1.453125 0.300781 -1.539062 0.25 -1.65625 C 0.195312 -1.769531 0.171875 -1.921875 0.171875 -2.109375 C 0.171875 -2.367188 0.226562 -2.5625 0.34375 -2.6875 C 0.457031 -2.820312 0.613281 -2.890625 0.8125 -2.890625 C 0.9375 -2.890625 1.046875 -2.863281 1.140625 -2.8125 C 1.242188 -2.757812 1.320312 -2.671875 1.375 -2.546875 C 1.425781 -2.429688 1.453125 -2.285156 1.453125 -2.109375 C 1.453125 -1.921875 1.425781 -1.769531 1.375 -1.65625 C 1.320312 -1.539062 1.242188 -1.453125 1.140625 -1.390625 C 1.046875 -1.335938 0.9375 -1.3125 0.8125 -1.3125 Z M 0.875 0 L 0.59375 0 L 0.578125 -0.046875 L 2.5 -2.859375 L 2.78125 -2.859375 L 2.78125 -2.8125 Z M 0.8125 -1.546875 C 0.9375 -1.546875 1.023438 -1.585938 1.078125 -1.671875 C 1.140625 -1.753906 1.171875 -1.898438 1.171875 -2.109375 C 1.171875 -2.304688 1.140625 -2.445312 1.078125 -2.53125 C 1.023438 -2.613281 0.9375 -2.65625 0.8125 -2.65625 C 0.726562 -2.65625 0.660156 -2.632812 0.609375 -2.59375 C 0.554688 -2.5625 0.515625 -2.503906 0.484375 -2.421875 C 0.460938 -2.347656 0.453125 -2.242188 0.453125 -2.109375 C 0.453125 -1.972656 0.460938 -1.863281 0.484375 -1.78125 C 0.515625 -1.695312 0.554688 -1.632812 0.609375 -1.59375 C 0.660156 -1.5625 0.726562 -1.546875 0.8125 -1.546875 Z M 2.5625 0.046875 C 2.363281 0.046875 2.207031 -0.0195312 2.09375 -0.15625 C 1.976562 -0.289062 1.921875 -0.488281 1.921875 -0.75 C 1.921875 -1.019531 1.976562 -1.21875 2.09375 -1.34375 C 2.207031 -1.476562 2.363281 -1.546875 2.5625 -1.546875 C 2.695312 -1.546875 2.8125 -1.515625 2.90625 -1.453125 C 3 -1.398438 3.070312 -1.316406 3.125 -1.203125 C 3.1875 -1.085938 3.21875 -0.9375 3.21875 -0.75 C 3.21875 -0.570312 3.1875 -0.421875 3.125 -0.296875 C 3.070312 -0.179688 3 -0.09375 2.90625 -0.03125 C 2.8125 0.0195312 2.695312 0.046875 2.5625 0.046875 Z M 2.5625 -0.203125 C 2.6875 -0.203125 2.773438 -0.242188 2.828125 -0.328125 C 2.890625 -0.410156 2.921875 -0.550781 2.921875 -0.75 C 2.921875 -0.945312 2.890625 -1.085938 2.828125 -1.171875 C 2.773438 -1.265625 2.6875 -1.3125 2.5625 -1.3125 C 2.4375 -1.3125 2.34375 -1.269531 2.28125 -1.1875 C 2.226562 -1.101562 2.203125 -0.957031 2.203125 -0.75 C 2.203125 -0.550781 2.226562 -0.410156 2.28125 -0.328125 C 2.34375 -0.242188 2.4375 -0.203125 2.5625 -0.203125 Z M 2.5625 -0.203125 "/></g></g></g><g fill="#ffffff" fill-opacity="1"><g transform="translate(35.179887, 32.52716)"><g><path d="M 1.125 0.046875 C 0.851562 0.046875 0.632812 -0.015625 0.46875 -0.140625 C 0.3125 -0.265625 0.207031 -0.441406 0.15625 -0.671875 L 0.40625 -0.78125 L 0.453125 -0.765625 C 0.503906 -0.597656 0.578125 -0.472656 0.671875 -0.390625 C 0.773438 -0.304688 0.925781 -0.265625 1.125 -0.265625 C 1.332031 -0.265625 1.488281 -0.3125 1.59375 -0.40625 C 1.695312 -0.5 1.75 -0.632812 1.75 -0.8125 C 1.75 -0.988281 1.691406 -1.117188 1.578125 -1.203125 C 1.472656 -1.296875 1.304688 -1.34375 1.078125 -1.34375 L 0.765625 -1.34375 L 0.765625 -1.625 L 1.046875 -1.625 C 1.222656 -1.625 1.363281 -1.664062 1.46875 -1.75 C 1.582031 -1.84375 1.640625 -1.972656 1.640625 -2.140625 C 1.640625 -2.296875 1.59375 -2.410156 1.5 -2.484375 C 1.40625 -2.566406 1.273438 -2.609375 1.109375 -2.609375 C 0.828125 -2.609375 0.625 -2.492188 0.5 -2.265625 L 0.453125 -2.25 L 0.265625 -2.453125 C 0.335938 -2.585938 0.445312 -2.691406 0.59375 -2.765625 C 0.738281 -2.847656 0.910156 -2.890625 1.109375 -2.890625 C 1.296875 -2.890625 1.453125 -2.863281 1.578125 -2.8125 C 1.703125 -2.757812 1.796875 -2.675781 1.859375 -2.5625 C 1.929688 -2.457031 1.96875 -2.332031 1.96875 -2.1875 C 1.96875 -2.039062 1.925781 -1.914062 1.84375 -1.8125 C 1.769531 -1.707031 1.664062 -1.625 1.53125 -1.5625 L 1.53125 -1.515625 C 1.71875 -1.472656 1.859375 -1.390625 1.953125 -1.265625 C 2.046875 -1.140625 2.09375 -0.988281 2.09375 -0.8125 C 2.09375 -0.539062 2.007812 -0.328125 1.84375 -0.171875 C 1.6875 -0.0234375 1.445312 0.046875 1.125 0.046875 Z M 1.125 0.046875 "/></g></g><g transform="translate(37.500198, 32.52716)"><g><path d="M 1.40625 0.046875 C 1.195312 0.046875 1.007812 -0.00390625 0.84375 -0.109375 C 0.675781 -0.210938 0.539062 -0.375 0.4375 -0.59375 C 0.34375 -0.8125 0.296875 -1.085938 0.296875 -1.421875 C 0.296875 -1.765625 0.34375 -2.046875 0.4375 -2.265625 C 0.539062 -2.484375 0.675781 -2.640625 0.84375 -2.734375 C 1.007812 -2.835938 1.195312 -2.890625 1.40625 -2.890625 C 1.613281 -2.890625 1.800781 -2.835938 1.96875 -2.734375 C 2.132812 -2.640625 2.265625 -2.484375 2.359375 -2.265625 C 2.460938 -2.046875 2.515625 -1.765625 2.515625 -1.421875 C 2.515625 -1.085938 2.460938 -0.8125 2.359375 -0.59375 C 2.265625 -0.375 2.132812 -0.210938 1.96875 -0.109375 C 1.800781 -0.00390625 1.613281 0.046875 1.40625 0.046875 Z M 1.40625 -0.265625 C 1.65625 -0.265625 1.84375 -0.351562 1.96875 -0.53125 C 2.09375 -0.71875 2.15625 -1.015625 2.15625 -1.421875 C 2.15625 -1.835938 2.09375 -2.132812 1.96875 -2.3125 C 1.84375 -2.5 1.65625 -2.59375 1.40625 -2.59375 C 1.238281 -2.59375 1.097656 -2.550781 0.984375 -2.46875 C 0.878906 -2.394531 0.796875 -2.269531 0.734375 -2.09375 C 0.671875 -1.925781 0.640625 -1.703125 0.640625 -1.421875 C 0.640625 -1.148438 0.671875 -0.925781 0.734375 -0.75 C 0.796875 -0.582031 0.878906 -0.457031 0.984375 -0.375 C 1.097656 -0.300781 1.238281 -0.265625 1.40625 -0.265625 Z M 1.40625 -0.265625 "/></g></g><g transform="translate(40.308791, 32.52716)"><g><path d="M 0.8125 -1.3125 C 0.6875 -1.3125 0.570312 -1.335938 0.46875 -1.390625 C 0.375 -1.453125 0.300781 -1.539062 0.25 -1.65625 C 0.195312 -1.769531 0.171875 -1.921875 0.171875 -2.109375 C 0.171875 -2.367188 0.226562 -2.5625 0.34375 -2.6875 C 0.457031 -2.820312 0.613281 -2.890625 0.8125 -2.890625 C 0.9375 -2.890625 1.046875 -2.863281 1.140625 -2.8125 C 1.242188 -2.757812 1.320312 -2.671875 1.375 -2.546875 C 1.425781 -2.429688 1.453125 -2.285156 1.453125 -2.109375 C 1.453125 -1.921875 1.425781 -1.769531 1.375 -1.65625 C 1.320312 -1.539062 1.242188 -1.453125 1.140625 -1.390625 C 1.046875 -1.335938 0.9375 -1.3125 0.8125 -1.3125 Z M 0.875 0 L 0.59375 0 L 0.578125 -0.046875 L 2.5 -2.859375 L 2.78125 -2.859375 L 2.78125 -2.8125 Z M 0.8125 -1.546875 C 0.9375 -1.546875 1.023438 -1.585938 1.078125 -1.671875 C 1.140625 -1.753906 1.171875 -1.898438 1.171875 -2.109375 C 1.171875 -2.304688 1.140625 -2.445312 1.078125 -2.53125 C 1.023438 -2.613281 0.9375 -2.65625 0.8125 -2.65625 C 0.726562 -2.65625 0.660156 -2.632812 0.609375 -2.59375 C 0.554688 -2.5625 0.515625 -2.503906 0.484375 -2.421875 C 0.460938 -2.347656 0.453125 -2.242188 0.453125 -2.109375 C 0.453125 -1.972656 0.460938 -1.863281 0.484375 -1.78125 C 0.515625 -1.695312 0.554688 -1.632812 0.609375 -1.59375 C 0.660156 -1.5625 0.726562 -1.546875 0.8125 -1.546875 Z M 2.5625 0.046875 C 2.363281 0.046875 2.207031 -0.0195312 2.09375 -0.15625 C 1.976562 -0.289062 1.921875 -0.488281 1.921875 -0.75 C 1.921875 -1.019531 1.976562 -1.21875 2.09375 -1.34375 C 2.207031 -1.476562 2.363281 -1.546875 2.5625 -1.546875 C 2.695312 -1.546875 2.8125 -1.515625 2.90625 -1.453125 C 3 -1.398438 3.070312 -1.316406 3.125 -1.203125 C 3.1875 -1.085938 3.21875 -0.9375 3.21875 -0.75 C 3.21875 -0.570312 3.1875 -0.421875 3.125 -0.296875 C 3.070312 -0.179688 3 -0.09375 2.90625 -0.03125 C 2.8125 0.0195312 2.695312 0.046875 2.5625 0.046875 Z M 2.5625 -0.203125 C 2.6875 -0.203125 2.773438 -0.242188 2.828125 -0.328125 C 2.890625 -0.410156 2.921875 -0.550781 2.921875 -0.75 C 2.921875 -0.945312 2.890625 -1.085938 2.828125 -1.171875 C 2.773438 -1.265625 2.6875 -1.3125 2.5625 -1.3125 C 2.4375 -1.3125 2.34375 -1.269531 2.28125 -1.1875 C 2.226562 -1.101562 2.203125 -0.957031 2.203125 -0.75 C 2.203125 -0.550781 2.226562 -0.410156 2.28125 -0.328125 C 2.34375 -0.242188 2.4375 -0.203125 2.5625 -0.203125 Z M 2.5625 -0.203125 "/></g></g></g><g fill="#ffffff" fill-opacity="1"><g transform="translate(62.447325, 40.604096)"><g><path d="M 0.78125 0 L 0.453125 0 L 1.515625 -2.53125 L 1.5 -2.578125 L 0.109375 -2.578125 L 0.109375 -2.859375 L 1.84375 -2.859375 L 1.84375 -2.546875 Z M 0.78125 0 "/></g></g><g transform="translate(64.41998, 40.604096)"><g><path d="M 1.40625 0.046875 C 1.195312 0.046875 1.007812 -0.00390625 0.84375 -0.109375 C 0.675781 -0.210938 0.539062 -0.375 0.4375 -0.59375 C 0.34375 -0.8125 0.296875 -1.085938 0.296875 -1.421875 C 0.296875 -1.765625 0.34375 -2.046875 0.4375 -2.265625 C 0.539062 -2.484375 0.675781 -2.640625 0.84375 -2.734375 C 1.007812 -2.835938 1.195312 -2.890625 1.40625 -2.890625 C 1.613281 -2.890625 1.800781 -2.835938 1.96875 -2.734375 C 2.132812 -2.640625 2.265625 -2.484375 2.359375 -2.265625 C 2.460938 -2.046875 2.515625 -1.765625 2.515625 -1.421875 C 2.515625 -1.085938 2.460938 -0.8125 2.359375 -0.59375 C 2.265625 -0.375 2.132812 -0.210938 1.96875 -0.109375 C 1.800781 -0.00390625 1.613281 0.046875 1.40625 0.046875 Z M 1.40625 -0.265625 C 1.65625 -0.265625 1.84375 -0.351562 1.96875 -0.53125 C 2.09375 -0.71875 2.15625 -1.015625 2.15625 -1.421875 C 2.15625 -1.835938 2.09375 -2.132812 1.96875 -2.3125 C 1.84375 -2.5 1.65625 -2.59375 1.40625 -2.59375 C 1.238281 -2.59375 1.097656 -2.550781 0.984375 -2.46875 C 0.878906 -2.394531 0.796875 -2.269531 0.734375 -2.09375 C 0.671875 -1.925781 0.640625 -1.703125 0.640625 -1.421875 C 0.640625 -1.148438 0.671875 -0.925781 0.734375 -0.75 C 0.796875 -0.582031 0.878906 -0.457031 0.984375 -0.375 C 1.097656 -0.300781 1.238281 -0.265625 1.40625 -0.265625 Z M 1.40625 -0.265625 "/></g></g><g transform="translate(67.228573, 40.604096)"><g><path d="M 0.8125 -1.3125 C 0.6875 -1.3125 0.570312 -1.335938 0.46875 -1.390625 C 0.375 -1.453125 0.300781 -1.539062 0.25 -1.65625 C 0.195312 -1.769531 0.171875 -1.921875 0.171875 -2.109375 C 0.171875 -2.367188 0.226562 -2.5625 0.34375 -2.6875 C 0.457031 -2.820312 0.613281 -2.890625 0.8125 -2.890625 C 0.9375 -2.890625 1.046875 -2.863281 1.140625 -2.8125 C 1.242188 -2.757812 1.320312 -2.671875 1.375 -2.546875 C 1.425781 -2.429688 1.453125 -2.285156 1.453125 -2.109375 C 1.453125 -1.921875 1.425781 -1.769531 1.375 -1.65625 C 1.320312 -1.539062 1.242188 -1.453125 1.140625 -1.390625 C 1.046875 -1.335938 0.9375 -1.3125 0.8125 -1.3125 Z M 0.875 0 L 0.59375 0 L 0.578125 -0.046875 L 2.5 -2.859375 L 2.78125 -2.859375 L 2.78125 -2.8125 Z M 0.8125 -1.546875 C 0.9375 -1.546875 1.023438 -1.585938 1.078125 -1.671875 C 1.140625 -1.753906 1.171875 -1.898438 1.171875 -2.109375 C 1.171875 -2.304688 1.140625 -2.445312 1.078125 -2.53125 C 1.023438 -2.613281 0.9375 -2.65625 0.8125 -2.65625 C 0.726562 -2.65625 0.660156 -2.632812 0.609375 -2.59375 C 0.554688 -2.5625 0.515625 -2.503906 0.484375 -2.421875 C 0.460938 -2.347656 0.453125 -2.242188 0.453125 -2.109375 C 0.453125 -1.972656 0.460938 -1.863281 0.484375 -1.78125 C 0.515625 -1.695312 0.554688 -1.632812 0.609375 -1.59375 C 0.660156 -1.5625 0.726562 -1.546875 0.8125 -1.546875 Z M 2.5625 0.046875 C 2.363281 0.046875 2.207031 -0.0195312 2.09375 -0.15625 C 1.976562 -0.289062 1.921875 -0.488281 1.921875 -0.75 C 1.921875 -1.019531 1.976562 -1.21875 2.09375 -1.34375 C 2.207031 -1.476562 2.363281 -1.546875 2.5625 -1.546875 C 2.695312 -1.546875 2.8125 -1.515625 2.90625 -1.453125 C 3 -1.398438 3.070312 -1.316406 3.125 -1.203125 C 3.1875 -1.085938 3.21875 -0.9375 3.21875 -0.75 C 3.21875 -0.570312 3.1875 -0.421875 3.125 -0.296875 C 3.070312 -0.179688 3 -0.09375 2.90625 -0.03125 C 2.8125 0.0195312 2.695312 0.046875 2.5625 0.046875 Z M 2.5625 -0.203125 C 2.6875 -0.203125 2.773438 -0.242188 2.828125 -0.328125 C 2.890625 -0.410156 2.921875 -0.550781 2.921875 -0.75 C 2.921875 -0.945312 2.890625 -1.085938 2.828125 -1.171875 C 2.773438 -1.265625 2.6875 -1.3125 2.5625 -1.3125 C 2.4375 -1.3125 2.34375 -1.269531 2.28125 -1.1875 C 2.226562 -1.101562 2.203125 -0.957031 2.203125 -0.75 C 2.203125 -0.550781 2.226562 -0.410156 2.28125 -0.328125 C 2.34375 -0.242188 2.4375 -0.203125 2.5625 -0.203125 Z M 2.5625 -0.203125 "/></g></g></g><g fill="#ffffff" fill-opacity="1"><g transform="translate(69.218222, 51.106391)"><g><path d="M 1.203125 0.046875 C 0.992188 0.046875 0.816406 0.015625 0.671875 -0.046875 C 0.523438 -0.117188 0.410156 -0.21875 0.328125 -0.34375 C 0.253906 -0.46875 0.21875 -0.613281 0.21875 -0.78125 C 0.21875 -0.96875 0.257812 -1.117188 0.34375 -1.234375 C 0.4375 -1.359375 0.570312 -1.457031 0.75 -1.53125 L 0.75 -1.5625 C 0.625 -1.632812 0.53125 -1.71875 0.46875 -1.8125 C 0.40625 -1.914062 0.375 -2.035156 0.375 -2.171875 C 0.375 -2.316406 0.40625 -2.441406 0.46875 -2.546875 C 0.539062 -2.660156 0.640625 -2.742188 0.765625 -2.796875 C 0.890625 -2.859375 1.035156 -2.890625 1.203125 -2.890625 C 1.367188 -2.890625 1.515625 -2.859375 1.640625 -2.796875 C 1.773438 -2.742188 1.875 -2.660156 1.9375 -2.546875 C 2.007812 -2.441406 2.046875 -2.316406 2.046875 -2.171875 C 2.046875 -2.035156 2.007812 -1.914062 1.9375 -1.8125 C 1.875 -1.71875 1.78125 -1.632812 1.65625 -1.5625 L 1.65625 -1.53125 C 1.832031 -1.457031 1.96875 -1.359375 2.0625 -1.234375 C 2.15625 -1.117188 2.203125 -0.96875 2.203125 -0.78125 C 2.203125 -0.613281 2.160156 -0.46875 2.078125 -0.34375 C 2.003906 -0.21875 1.890625 -0.117188 1.734375 -0.046875 C 1.585938 0.015625 1.410156 0.046875 1.203125 0.046875 Z M 1.203125 -1.65625 C 1.304688 -1.65625 1.394531 -1.671875 1.46875 -1.703125 C 1.550781 -1.742188 1.613281 -1.800781 1.65625 -1.875 C 1.695312 -1.945312 1.71875 -2.035156 1.71875 -2.140625 C 1.71875 -2.234375 1.695312 -2.316406 1.65625 -2.390625 C 1.613281 -2.460938 1.550781 -2.519531 1.46875 -2.5625 C 1.394531 -2.601562 1.304688 -2.625 1.203125 -2.625 C 1.046875 -2.625 0.921875 -2.578125 0.828125 -2.484375 C 0.734375 -2.398438 0.6875 -2.285156 0.6875 -2.140625 C 0.6875 -1.984375 0.734375 -1.863281 0.828125 -1.78125 C 0.921875 -1.695312 1.046875 -1.65625 1.203125 -1.65625 Z M 1.203125 -0.25 C 1.410156 -0.25 1.566406 -0.296875 1.671875 -0.390625 C 1.785156 -0.492188 1.84375 -0.632812 1.84375 -0.8125 C 1.84375 -0.976562 1.785156 -1.109375 1.671875 -1.203125 C 1.566406 -1.304688 1.410156 -1.359375 1.203125 -1.359375 C 1.003906 -1.359375 0.847656 -1.304688 0.734375 -1.203125 C 0.628906 -1.109375 0.578125 -0.976562 0.578125 -0.8125 C 0.578125 -0.632812 0.628906 -0.492188 0.734375 -0.390625 C 0.847656 -0.296875 1.003906 -0.25 1.203125 -0.25 Z M 1.203125 -0.25 "/></g></g><g transform="translate(71.634236, 51.106391)"><g><path d="M 1.40625 0.046875 C 1.195312 0.046875 1.007812 -0.00390625 0.84375 -0.109375 C 0.675781 -0.210938 0.539062 -0.375 0.4375 -0.59375 C 0.34375 -0.8125 0.296875 -1.085938 0.296875 -1.421875 C 0.296875 -1.765625 0.34375 -2.046875 0.4375 -2.265625 C 0.539062 -2.484375 0.675781 -2.640625 0.84375 -2.734375 C 1.007812 -2.835938 1.195312 -2.890625 1.40625 -2.890625 C 1.613281 -2.890625 1.800781 -2.835938 1.96875 -2.734375 C 2.132812 -2.640625 2.265625 -2.484375 2.359375 -2.265625 C 2.460938 -2.046875 2.515625 -1.765625 2.515625 -1.421875 C 2.515625 -1.085938 2.460938 -0.8125 2.359375 -0.59375 C 2.265625 -0.375 2.132812 -0.210938 1.96875 -0.109375 C 1.800781 -0.00390625 1.613281 0.046875 1.40625 0.046875 Z M 1.40625 -0.265625 C 1.65625 -0.265625 1.84375 -0.351562 1.96875 -0.53125 C 2.09375 -0.71875 2.15625 -1.015625 2.15625 -1.421875 C 2.15625 -1.835938 2.09375 -2.132812 1.96875 -2.3125 C 1.84375 -2.5 1.65625 -2.59375 1.40625 -2.59375 C 1.238281 -2.59375 1.097656 -2.550781 0.984375 -2.46875 C 0.878906 -2.394531 0.796875 -2.269531 0.734375 -2.09375 C 0.671875 -1.925781 0.640625 -1.703125 0.640625 -1.421875 C 0.640625 -1.148438 0.671875 -0.925781 0.734375 -0.75 C 0.796875 -0.582031 0.878906 -0.457031 0.984375 -0.375 C 1.097656 -0.300781 1.238281 -0.265625 1.40625 -0.265625 Z M 1.40625 -0.265625 "/></g></g><g transform="translate(74.442828, 51.106391)"><g><path d="M 0.8125 -1.3125 C 0.6875 -1.3125 0.570312 -1.335938 0.46875 -1.390625 C 0.375 -1.453125 0.300781 -1.539062 0.25 -1.65625 C 0.195312 -1.769531 0.171875 -1.921875 0.171875 -2.109375 C 0.171875 -2.367188 0.226562 -2.5625 0.34375 -2.6875 C 0.457031 -2.820312 0.613281 -2.890625 0.8125 -2.890625 C 0.9375 -2.890625 1.046875 -2.863281 1.140625 -2.8125 C 1.242188 -2.757812 1.320312 -2.671875 1.375 -2.546875 C 1.425781 -2.429688 1.453125 -2.285156 1.453125 -2.109375 C 1.453125 -1.921875 1.425781 -1.769531 1.375 -1.65625 C 1.320312 -1.539062 1.242188 -1.453125 1.140625 -1.390625 C 1.046875 -1.335938 0.9375 -1.3125 0.8125 -1.3125 Z M 0.875 0 L 0.59375 0 L 0.578125 -0.046875 L 2.5 -2.859375 L 2.78125 -2.859375 L 2.78125 -2.8125 Z M 0.8125 -1.546875 C 0.9375 -1.546875 1.023438 -1.585938 1.078125 -1.671875 C 1.140625 -1.753906 1.171875 -1.898438 1.171875 -2.109375 C 1.171875 -2.304688 1.140625 -2.445312 1.078125 -2.53125 C 1.023438 -2.613281 0.9375 -2.65625 0.8125 -2.65625 C 0.726562 -2.65625 0.660156 -2.632812 0.609375 -2.59375 C 0.554688 -2.5625 0.515625 -2.503906 0.484375 -2.421875 C 0.460938 -2.347656 0.453125 -2.242188 0.453125 -2.109375 C 0.453125 -1.972656 0.460938 -1.863281 0.484375 -1.78125 C 0.515625 -1.695312 0.554688 -1.632812 0.609375 -1.59375 C 0.660156 -1.5625 0.726562 -1.546875 0.8125 -1.546875 Z M 2.5625 0.046875 C 2.363281 0.046875 2.207031 -0.0195312 2.09375 -0.15625 C 1.976562 -0.289062 1.921875 -0.488281 1.921875 -0.75 C 1.921875 -1.019531 1.976562 -1.21875 2.09375 -1.34375 C 2.207031 -1.476562 2.363281 -1.546875 2.5625 -1.546875 C 2.695312 -1.546875 2.8125 -1.515625 2.90625 -1.453125 C 3 -1.398438 3.070312 -1.316406 3.125 -1.203125 C 3.1875 -1.085938 3.21875 -0.9375 3.21875 -0.75 C 3.21875 -0.570312 3.1875 -0.421875 3.125 -0.296875 C 3.070312 -0.179688 3 -0.09375 2.90625 -0.03125 C 2.8125 0.0195312 2.695312 0.046875 2.5625 0.046875 Z M 2.5625 -0.203125 C 2.6875 -0.203125 2.773438 -0.242188 2.828125 -0.328125 C 2.890625 -0.410156 2.921875 -0.550781 2.921875 -0.75 C 2.921875 -0.945312 2.890625 -1.085938 2.828125 -1.171875 C 2.773438 -1.265625 2.6875 -1.3125 2.5625 -1.3125 C 2.4375 -1.3125 2.34375 -1.269531 2.28125 -1.1875 C 2.226562 -1.101562 2.203125 -0.957031 2.203125 -0.75 C 2.203125 -0.550781 2.226562 -0.410156 2.28125 -0.328125 C 2.34375 -0.242188 2.4375 -0.203125 2.5625 -0.203125 Z M 2.5625 -0.203125 "/></g></g></g><g fill="#ffffff" fill-opacity="1"><g transform="translate(28.978596, 60.173053)"><g><path d="M 0.171875 -0.125 C 0.171875 -0.289062 0.1875 -0.421875 0.21875 -0.515625 C 0.257812 -0.609375 0.320312 -0.695312 0.40625 -0.78125 C 0.488281 -0.863281 0.617188 -0.972656 0.796875 -1.109375 L 1.109375 -1.328125 C 1.222656 -1.421875 1.316406 -1.5 1.390625 -1.5625 C 1.460938 -1.632812 1.519531 -1.710938 1.5625 -1.796875 C 1.613281 -1.878906 1.640625 -1.972656 1.640625 -2.078125 C 1.640625 -2.253906 1.59375 -2.382812 1.5 -2.46875 C 1.40625 -2.550781 1.265625 -2.59375 1.078125 -2.59375 C 0.921875 -2.59375 0.785156 -2.554688 0.671875 -2.484375 C 0.554688 -2.421875 0.460938 -2.320312 0.390625 -2.1875 L 0.34375 -2.1875 L 0.140625 -2.390625 C 0.242188 -2.546875 0.375 -2.664062 0.53125 -2.75 C 0.6875 -2.84375 0.867188 -2.890625 1.078125 -2.890625 C 1.273438 -2.890625 1.441406 -2.851562 1.578125 -2.78125 C 1.710938 -2.71875 1.8125 -2.625 1.875 -2.5 C 1.9375 -2.382812 1.96875 -2.242188 1.96875 -2.078125 C 1.96875 -1.953125 1.941406 -1.832031 1.890625 -1.71875 C 1.835938 -1.613281 1.757812 -1.507812 1.65625 -1.40625 C 1.5625 -1.3125 1.441406 -1.210938 1.296875 -1.109375 L 0.984375 -0.875 C 0.867188 -0.789062 0.773438 -0.71875 0.703125 -0.65625 C 0.640625 -0.59375 0.59375 -0.53125 0.5625 -0.46875 C 0.539062 -0.414062 0.53125 -0.351562 0.53125 -0.28125 L 1.96875 -0.28125 L 1.96875 0 L 0.171875 0 Z M 0.171875 -0.125 "/></g></g><g transform="translate(31.173907, 60.173053)"><g><path d="M 1.40625 0.046875 C 1.195312 0.046875 1.007812 -0.00390625 0.84375 -0.109375 C 0.675781 -0.210938 0.539062 -0.375 0.4375 -0.59375 C 0.34375 -0.8125 0.296875 -1.085938 0.296875 -1.421875 C 0.296875 -1.765625 0.34375 -2.046875 0.4375 -2.265625 C 0.539062 -2.484375 0.675781 -2.640625 0.84375 -2.734375 C 1.007812 -2.835938 1.195312 -2.890625 1.40625 -2.890625 C 1.613281 -2.890625 1.800781 -2.835938 1.96875 -2.734375 C 2.132812 -2.640625 2.265625 -2.484375 2.359375 -2.265625 C 2.460938 -2.046875 2.515625 -1.765625 2.515625 -1.421875 C 2.515625 -1.085938 2.460938 -0.8125 2.359375 -0.59375 C 2.265625 -0.375 2.132812 -0.210938 1.96875 -0.109375 C 1.800781 -0.00390625 1.613281 0.046875 1.40625 0.046875 Z M 1.40625 -0.265625 C 1.65625 -0.265625 1.84375 -0.351562 1.96875 -0.53125 C 2.09375 -0.71875 2.15625 -1.015625 2.15625 -1.421875 C 2.15625 -1.835938 2.09375 -2.132812 1.96875 -2.3125 C 1.84375 -2.5 1.65625 -2.59375 1.40625 -2.59375 C 1.238281 -2.59375 1.097656 -2.550781 0.984375 -2.46875 C 0.878906 -2.394531 0.796875 -2.269531 0.734375 -2.09375 C 0.671875 -1.925781 0.640625 -1.703125 0.640625 -1.421875 C 0.640625 -1.148438 0.671875 -0.925781 0.734375 -0.75 C 0.796875 -0.582031 0.878906 -0.457031 0.984375 -0.375 C 1.097656 -0.300781 1.238281 -0.265625 1.40625 -0.265625 Z M 1.40625 -0.265625 "/></g></g><g transform="translate(33.9825, 60.173053)"><g><path d="M 0.8125 -1.3125 C 0.6875 -1.3125 0.570312 -1.335938 0.46875 -1.390625 C 0.375 -1.453125 0.300781 -1.539062 0.25 -1.65625 C 0.195312 -1.769531 0.171875 -1.921875 0.171875 -2.109375 C 0.171875 -2.367188 0.226562 -2.5625 0.34375 -2.6875 C 0.457031 -2.820312 0.613281 -2.890625 0.8125 -2.890625 C 0.9375 -2.890625 1.046875 -2.863281 1.140625 -2.8125 C 1.242188 -2.757812 1.320312 -2.671875 1.375 -2.546875 C 1.425781 -2.429688 1.453125 -2.285156 1.453125 -2.109375 C 1.453125 -1.921875 1.425781 -1.769531 1.375 -1.65625 C 1.320312 -1.539062 1.242188 -1.453125 1.140625 -1.390625 C 1.046875 -1.335938 0.9375 -1.3125 0.8125 -1.3125 Z M 0.875 0 L 0.59375 0 L 0.578125 -0.046875 L 2.5 -2.859375 L 2.78125 -2.859375 L 2.78125 -2.8125 Z M 0.8125 -1.546875 C 0.9375 -1.546875 1.023438 -1.585938 1.078125 -1.671875 C 1.140625 -1.753906 1.171875 -1.898438 1.171875 -2.109375 C 1.171875 -2.304688 1.140625 -2.445312 1.078125 -2.53125 C 1.023438 -2.613281 0.9375 -2.65625 0.8125 -2.65625 C 0.726562 -2.65625 0.660156 -2.632812 0.609375 -2.59375 C 0.554688 -2.5625 0.515625 -2.503906 0.484375 -2.421875 C 0.460938 -2.347656 0.453125 -2.242188 0.453125 -2.109375 C 0.453125 -1.972656 0.460938 -1.863281 0.484375 -1.78125 C 0.515625 -1.695312 0.554688 -1.632812 0.609375 -1.59375 C 0.660156 -1.5625 0.726562 -1.546875 0.8125 -1.546875 Z M 2.5625 0.046875 C 2.363281 0.046875 2.207031 -0.0195312 2.09375 -0.15625 C 1.976562 -0.289062 1.921875 -0.488281 1.921875 -0.75 C 1.921875 -1.019531 1.976562 -1.21875 2.09375 -1.34375 C 2.207031 -1.476562 2.363281 -1.546875 2.5625 -1.546875 C 2.695312 -1.546875 2.8125 -1.515625 2.90625 -1.453125 C 3 -1.398438 3.070312 -1.316406 3.125 -1.203125 C 3.1875 -1.085938 3.21875 -0.9375 3.21875 -0.75 C 3.21875 -0.570312 3.1875 -0.421875 3.125 -0.296875 C 3.070312 -0.179688 3 -0.09375 2.90625 -0.03125 C 2.8125 0.0195312 2.695312 0.046875 2.5625 0.046875 Z M 2.5625 -0.203125 C 2.6875 -0.203125 2.773438 -0.242188 2.828125 -0.328125 C 2.890625 -0.410156 2.921875 -0.550781 2.921875 -0.75 C 2.921875 -0.945312 2.890625 -1.085938 2.828125 -1.171875 C 2.773438 -1.265625 2.6875 -1.3125 2.5625 -1.3125 C 2.4375 -1.3125 2.34375 -1.269531 2.28125 -1.1875 C 2.226562 -1.101562 2.203125 -0.957031 2.203125 -0.75 C 2.203125 -0.550781 2.226562 -0.410156 2.28125 -0.328125 C 2.34375 -0.242188 2.4375 -0.203125 2.5625 -0.203125 Z M 2.5625 -0.203125 "/></g></g></g><g clip-path="url(#898f30a7d5)"><path fill="#2599be" d="M 83.65625 34.757812 L 92.140625 34.757812 L 92.140625 39.253906 L 83.65625 39.253906 Z M 83.65625 34.757812 " fill-opacity="1" fill-rule="nonzero"/></g><g fill="#737373" fill-opacity="1"><g transform="translate(93.182567, 32.527161)"><g><path d="M 0.484375 0 L 0.109375 0 L 1 -1.46875 L 0.15625 -2.859375 L 0.53125 -2.859375 L 1.25 -1.703125 L 1.296875 -1.703125 L 2.03125 -2.859375 L 2.390625 -2.859375 L 1.53125 -1.46875 L 2.421875 0 L 2.046875 0 L 1.296875 -1.234375 L 1.234375 -1.234375 Z M 0.484375 0 "/></g></g></g><g fill="#737373" fill-opacity="1"><g transform="translate(93.182567, 38.318953)"><g><path d="M 1.390625 0 L 1.0625 0 L 1.0625 -1.125 L 0.078125 -2.859375 L 0.4375 -2.859375 L 1.21875 -1.515625 L 1.265625 -1.515625 L 2.03125 -2.859375 L 2.390625 -2.859375 L 1.390625 -1.125 Z M 1.390625 0 "/></g></g></g></svg>