<svg xmlns="http://www.w3.org/2000/svg" xmlns:xlink="http://www.w3.org/1999/xlink" width="144" zoomAndPan="magnify" viewBox="0 0 108 72" height="96" preserveAspectRatio="xMidYMid meet" version="1.0"><path stroke-linecap="round" transform="matrix(0.75, 0, 0, 0.75, 26.999999, 15.064861)" fill-opacity="1" fill="#000000" fill-rule="nonzero" stroke-linejoin="miter" d="M 6.000002 46.080187 L 18.000002 34.559354 " stroke="#2599be" stroke-width="4.5" stroke-opacity="1" stroke-miterlimit="4"/><path stroke-linecap="round" transform="matrix(0.75, 0, 0, 0.75, 26.999999, 15.064861)" fill-opacity="1" fill="#000000" fill-rule="nonzero" stroke-linejoin="miter" d="M 18.000002 34.559354 L 30.000003 38.88227 " stroke="#2599be" stroke-width="4.5" stroke-opacity="1" stroke-miterlimit="4"/><path stroke-linecap="round" transform="matrix(0.75, 0, 0, 0.75, 26.999999, 15.064861)" fill-opacity="1" fill="#000000" fill-rule="nonzero" stroke-linejoin="miter" d="M 30.000003 38.88227 L 42.000003 21.60102 " stroke="#2599be" stroke-width="4.5" stroke-opacity="1" stroke-miterlimit="4"/><path stroke-linecap="round" transform="matrix(0.75, 0, 0, 0.75, 26.999999, 15.064861)" fill-opacity="1" fill="#000000" fill-rule="nonzero" stroke-linejoin="miter" d="M 42.000003 21.60102 L 54.000004 25.918728 " stroke="#2599be" stroke-width="4.5" stroke-opacity="1" stroke-miterlimit="4"/><path stroke-linecap="round" transform="matrix(0.75, 0, 0, 0.75, 26.999999, 15.064861)" fill-opacity="1" fill="#000000" fill-rule="nonzero" stroke-linejoin="miter" d="M 54.000004 25.918728 L 66.000004 12.960394 " stroke="#2599be" stroke-width="4.5" stroke-opacity="1" stroke-miterlimit="4"/><path fill="#2599be" d="M 34.125 49.625 C 34.125 49.277344 34.058594 48.941406 33.925781 48.621094 C 33.792969 48.296875 33.601562 48.015625 33.355469 47.769531 C 33.109375 47.523438 32.824219 47.332031 32.503906 47.199219 C 32.183594 47.066406 31.847656 47 31.5 47 C 31.152344 47 30.816406 47.066406 30.496094 47.199219 C 30.175781 47.332031 29.890625 47.523438 29.644531 47.769531 C 29.398438 48.015625 29.207031 48.296875 29.074219 48.621094 C 28.941406 48.941406 28.875 49.277344 28.875 49.625 C 28.875 49.972656 28.941406 50.308594 29.074219 50.628906 C 29.207031 50.949219 29.398438 51.234375 29.644531 51.480469 C 29.890625 51.726562 30.175781 51.917969 30.496094 52.050781 C 30.816406 52.183594 31.152344 52.25 31.5 52.25 C 31.847656 52.25 32.183594 52.183594 32.503906 52.050781 C 32.824219 51.917969 33.109375 51.726562 33.355469 51.480469 C 33.601562 51.234375 33.792969 50.949219 33.925781 50.628906 C 34.058594 50.308594 34.125 49.972656 34.125 49.625 Z M 34.125 49.625 " fill-opacity="1" fill-rule="nonzero"/><path fill="#2599be" d="M 43.125 40.984375 C 43.125 40.636719 43.058594 40.300781 42.925781 39.980469 C 42.792969 39.660156 42.601562 39.375 42.355469 39.128906 C 42.109375 38.882812 41.824219 38.691406 41.503906 38.558594 C 41.183594 38.425781 40.847656 38.359375 40.5 38.359375 C 40.152344 38.359375 39.816406 38.425781 39.496094 38.558594 C 39.175781 38.691406 38.890625 38.882812 38.644531 39.128906 C 38.398438 39.375 38.207031 39.660156 38.074219 39.980469 C 37.941406 40.300781 37.875 40.636719 37.875 40.984375 C 37.875 41.332031 37.941406 41.667969 38.074219 41.988281 C 38.207031 42.3125 38.398438 42.59375 38.644531 42.839844 C 38.890625 43.085938 39.175781 43.277344 39.496094 43.410156 C 39.816406 43.542969 40.152344 43.609375 40.5 43.609375 C 40.847656 43.609375 41.183594 43.542969 41.503906 43.410156 C 41.824219 43.277344 42.109375 43.085938 42.355469 42.839844 C 42.601562 42.59375 42.792969 42.3125 42.925781 41.988281 C 43.058594 41.667969 43.125 41.332031 43.125 40.984375 Z M 43.125 40.984375 " fill-opacity="1" fill-rule="nonzero"/><path fill="#2599be" d="M 52.125 44.226562 C 52.125 43.875 52.058594 43.542969 51.925781 43.21875 C 51.792969 42.898438 51.601562 42.613281 51.355469 42.367188 C 51.109375 42.121094 50.824219 41.933594 50.503906 41.800781 C 50.183594 41.667969 49.847656 41.601562 49.5 41.601562 C 49.152344 41.601562 48.816406 41.667969 48.496094 41.800781 C 48.175781 41.933594 47.890625 42.121094 47.644531 42.367188 C 47.398438 42.613281 47.207031 42.898438 47.074219 43.21875 C 46.941406 43.542969 46.875 43.875 46.875 44.226562 C 46.875 44.574219 46.941406 44.90625 47.074219 45.230469 C 47.207031 45.550781 47.398438 45.835938 47.644531 46.082031 C 47.890625 46.328125 48.175781 46.515625 48.496094 46.648438 C 48.816406 46.785156 49.152344 46.851562 49.5 46.851562 C 49.847656 46.851562 50.183594 46.785156 50.503906 46.648438 C 50.824219 46.515625 51.109375 46.328125 51.355469 46.082031 C 51.601562 45.835938 51.792969 45.550781 51.925781 45.230469 C 52.058594 44.90625 52.125 44.574219 52.125 44.226562 Z M 52.125 44.226562 " fill-opacity="1" fill-rule="nonzero"/><path fill="#2599be" d="M 61.125 31.265625 C 61.125 30.917969 61.058594 30.582031 60.925781 30.261719 C 60.792969 29.9375 60.601562 29.65625 60.355469 29.410156 C 60.109375 29.164062 59.824219 28.972656 59.503906 28.839844 C 59.183594 28.707031 58.847656 28.640625 58.5 28.640625 C 58.152344 28.640625 57.816406 28.707031 57.496094 28.839844 C 57.175781 28.972656 56.890625 29.164062 56.644531 29.410156 C 56.398438 29.65625 56.207031 29.9375 56.074219 30.261719 C 55.941406 30.582031 55.875 30.917969 55.875 31.265625 C 55.875 31.613281 55.941406 31.949219 56.074219 32.269531 C 56.207031 32.589844 56.398438 32.875 56.644531 33.121094 C 56.890625 33.367188 57.175781 33.558594 57.496094 33.691406 C 57.816406 33.824219 58.152344 33.890625 58.5 33.890625 C 58.847656 33.890625 59.183594 33.824219 59.503906 33.691406 C 59.824219 33.558594 60.109375 33.367188 60.355469 33.121094 C 60.601562 32.875 60.792969 32.589844 60.925781 32.269531 C 61.058594 31.949219 61.125 31.613281 61.125 31.265625 Z M 61.125 31.265625 " fill-opacity="1" fill-rule="nonzero"/><path fill="#2599be" d="M 70.125 34.503906 C 70.125 34.15625 70.058594 33.820312 69.925781 33.5 C 69.792969 33.179688 69.601562 32.894531 69.355469 32.648438 C 69.109375 32.402344 68.824219 32.210938 68.503906 32.078125 C 68.183594 31.945312 67.847656 31.878906 67.5 31.878906 C 67.152344 31.878906 66.816406 31.945312 66.496094 32.078125 C 66.175781 32.210938 65.890625 32.402344 65.644531 32.648438 C 65.398438 32.894531 65.207031 33.179688 65.074219 33.5 C 64.941406 33.820312 64.875 34.15625 64.875 34.503906 C 64.875 34.851562 64.941406 35.1875 65.074219 35.507812 C 65.207031 35.832031 65.398438 36.113281 65.644531 36.359375 C 65.890625 36.605469 66.175781 36.796875 66.496094 36.929688 C 66.816406 37.0625 67.152344 37.128906 67.5 37.128906 C 67.847656 37.128906 68.183594 37.0625 68.503906 36.929688 C 68.824219 36.796875 69.109375 36.605469 69.355469 36.359375 C 69.601562 36.113281 69.792969 35.832031 69.925781 35.507812 C 70.058594 35.1875 70.125 34.851562 70.125 34.503906 Z M 70.125 34.503906 " fill-opacity="1" fill-rule="nonzero"/><path fill="#2599be" d="M 79.125 24.785156 C 79.125 24.4375 79.058594 24.101562 78.925781 23.78125 C 78.792969 23.457031 78.601562 23.175781 78.355469 22.929688 C 78.109375 22.683594 77.824219 22.492188 77.503906 22.359375 C 77.183594 22.226562 76.847656 22.160156 76.5 22.160156 C 76.152344 22.160156 75.816406 22.226562 75.496094 22.359375 C 75.175781 22.492188 74.890625 22.683594 74.644531 22.929688 C 74.398438 23.175781 74.207031 23.457031 74.074219 23.78125 C 73.941406 24.101562 73.875 24.4375 73.875 24.785156 C 73.875 25.132812 73.941406 25.46875 74.074219 25.789062 C 74.207031 26.109375 74.398438 26.394531 74.644531 26.640625 C 74.890625 26.886719 75.175781 27.078125 75.496094 27.210938 C 75.816406 27.34375 76.152344 27.410156 76.5 27.410156 C 76.847656 27.410156 77.183594 27.34375 77.503906 27.210938 C 77.824219 27.078125 78.109375 26.886719 78.355469 26.640625 C 78.601562 26.394531 78.792969 26.109375 78.925781 25.789062 C 79.058594 25.46875 79.125 25.132812 79.125 24.785156 Z M 79.125 24.785156 " fill-opacity="1" fill-rule="nonzero"/></svg>