<svg xmlns="http://www.w3.org/2000/svg" xmlns:xlink="http://www.w3.org/1999/xlink" width="144" zoomAndPan="magnify" viewBox="0 0 108 72" height="96" preserveAspectRatio="xMidYMid meet" version="1.0"><defs><g/><clipPath id="ee486e2c9b"><path d="M 29.25 38 L 34 38 L 34 60.398438 L 29.25 60.398438 Z M 29.25 38 " clip-rule="nonzero"/></clipPath><clipPath id="9b2a44eaf4"><path d="M 29.25 37 L 35 37 L 35 60.398438 L 29.25 60.398438 Z M 29.25 37 " clip-rule="nonzero"/></clipPath><clipPath id="bc55ae9a5d"><path d="M 60 8.558594 L 66 8.558594 L 66 16 L 60 16 Z M 60 8.558594 " clip-rule="nonzero"/></clipPath><clipPath id="f6b8cac2e1"><path d="M 59 8.558594 L 67 8.558594 L 67 17 L 59 17 Z M 59 8.558594 " clip-rule="nonzero"/></clipPath><clipPath id="85f0bee825"><path d="M 65 8.558594 L 70 8.558594 L 70 11 L 65 11 Z M 65 8.558594 " clip-rule="nonzero"/></clipPath><clipPath id="87c9a0cbc3"><path d="M 64 8.558594 L 71 8.558594 L 71 12 L 64 12 Z M 64 8.558594 " clip-rule="nonzero"/></clipPath><clipPath id="85fcc11794"><path d="M 74 34 L 78.75 34 L 78.75 48 L 74 48 Z M 74 34 " clip-rule="nonzero"/></clipPath><clipPath id="d4af869ab9"><path d="M 73 33 L 78.75 33 L 78.75 49 L 73 49 Z M 73 33 " clip-rule="nonzero"/></clipPath></defs><path fill="#2599be" d="M 29.25 60.398438 L 33.75 38.800781 L 33.75 60.398438 Z M 29.25 60.398438 " fill-opacity="1" fill-rule="nonzero"/><path fill="#2599be" d="M 33.75 60.398438 L 33.75 38.800781 L 38.25 34.480469 L 38.25 60.398438 Z M 33.75 60.398438 " fill-opacity="1" fill-rule="nonzero"/><path fill="#2599be" d="M 38.25 60.398438 L 38.25 34.480469 L 42.75 47.441406 L 42.75 60.398438 Z M 38.25 60.398438 " fill-opacity="1" fill-rule="nonzero"/><path fill="#2599be" d="M 42.75 60.398438 L 42.75 47.441406 L 47.25 36.640625 L 47.25 60.398438 Z M 42.75 60.398438 " fill-opacity="1" fill-rule="nonzero"/><path fill="#2599be" d="M 47.25 60.398438 L 47.25 36.640625 L 51.75 30.160156 L 51.75 60.398438 Z M 47.25 60.398438 " fill-opacity="1" fill-rule="nonzero"/><path fill="#2599be" d="M 51.75 60.398438 L 51.75 30.160156 L 56.25 28 L 56.25 60.398438 Z M 51.75 60.398438 " fill-opacity="1" fill-rule="nonzero"/><path fill="#2599be" d="M 56.25 60.398438 L 56.25 28 L 60.75 15.039062 L 60.75 60.398438 Z M 56.25 60.398438 " fill-opacity="1" fill-rule="nonzero"/><path fill="#2599be" d="M 60.75 60.398438 L 60.75 15.039062 L 65.25 8.558594 L 65.25 60.398438 Z M 60.75 60.398438 " fill-opacity="1" fill-rule="nonzero"/><path fill="#2599be" d="M 65.25 60.398438 L 65.25 8.558594 L 69.75 10.71875 L 69.75 60.398438 Z M 65.25 60.398438 " fill-opacity="1" fill-rule="nonzero"/><path fill="#2599be" d="M 69.75 60.398438 L 69.75 10.71875 L 74.25 34.480469 L 74.25 60.398438 Z M 69.75 60.398438 " fill-opacity="1" fill-rule="nonzero"/><path fill="#2599be" d="M 74.25 60.398438 L 74.25 34.480469 L 78.75 47.441406 L 78.75 60.398438 Z M 74.25 60.398438 " fill-opacity="1" fill-rule="nonzero"/><g clip-path="url(#ee486e2c9b)"><path fill="#000000" d="M 29.25 60.398438 L 33.75 38.800781 " fill-opacity="1" fill-rule="nonzero"/></g><g clip-path="url(#9b2a44eaf4)"><path stroke-linecap="round" transform="matrix(0.75, 0, 0, 0.75, 26.999999, 6.399999)" fill="none" stroke-linejoin="round" d="M 3.000002 71.997921 L 9.000002 43.201045 " stroke="#2599be" stroke-width="3" stroke-opacity="1" stroke-miterlimit="4"/></g><path stroke-linecap="round" transform="matrix(0.75, 0, 0, 0.75, 26.999999, 6.399999)" fill-opacity="1" fill="#000000" fill-rule="nonzero" stroke-linejoin="round" d="M 9.000002 43.201045 L 15.000002 37.440628 " stroke="#2599be" stroke-width="3" stroke-opacity="1" stroke-miterlimit="4"/><path stroke-linecap="round" transform="matrix(0.75, 0, 0, 0.75, 26.999999, 6.399999)" fill-opacity="1" fill="#000000" fill-rule="nonzero" stroke-linejoin="round" d="M 15.000002 37.440628 L 21.000002 54.721878 " stroke="#2599be" stroke-width="3" stroke-opacity="1" stroke-miterlimit="4"/><path stroke-linecap="round" transform="matrix(0.75, 0, 0, 0.75, 26.999999, 6.399999)" fill-opacity="1" fill="#000000" fill-rule="nonzero" stroke-linejoin="round" d="M 21.000002 54.721878 L 27.000003 40.320836 " stroke="#2599be" stroke-width="3" stroke-opacity="1" stroke-miterlimit="4"/><path stroke-linecap="round" transform="matrix(0.75, 0, 0, 0.75, 26.999999, 6.399999)" fill-opacity="1" fill="#000000" fill-rule="nonzero" stroke-linejoin="round" d="M 27.000003 40.320836 L 33.000003 31.680211 " stroke="#2599be" stroke-width="3" stroke-opacity="1" stroke-miterlimit="4"/><path stroke-linecap="round" transform="matrix(0.75, 0, 0, 0.75, 26.999999, 6.399999)" fill-opacity="1" fill="#000000" fill-rule="nonzero" stroke-linejoin="round" d="M 33.000003 31.680211 L 39.000003 28.800002 " stroke="#2599be" stroke-width="3" stroke-opacity="1" stroke-miterlimit="4"/><path stroke-linecap="round" transform="matrix(0.75, 0, 0, 0.75, 26.999999, 6.399999)" fill-opacity="1" fill="#000000" fill-rule="nonzero" stroke-linejoin="round" d="M 39.000003 28.800002 L 45.000003 11.518752 " stroke="#2599be" stroke-width="3" stroke-opacity="1" stroke-miterlimit="4"/><g clip-path="url(#bc55ae9a5d)"><path fill="#000000" d="M 60.75 15.039062 L 65.25 8.558594 " fill-opacity="1" fill-rule="nonzero"/></g><g clip-path="url(#f6b8cac2e1)"><path stroke-linecap="round" transform="matrix(0.75, 0, 0, 0.75, 26.999999, 6.399999)" fill="none" stroke-linejoin="round" d="M 45.000003 11.518752 L 51.000004 2.878126 " stroke="#2599be" stroke-width="3" stroke-opacity="1" stroke-miterlimit="4"/></g><g clip-path="url(#85f0bee825)"><path fill="#000000" d="M 65.25 8.558594 L 69.75 10.71875 " fill-opacity="1" fill-rule="nonzero"/></g><g clip-path="url(#87c9a0cbc3)"><path stroke-linecap="round" transform="matrix(0.75, 0, 0, 0.75, 26.999999, 6.399999)" fill="none" stroke-linejoin="round" d="M 51.000004 2.878126 L 57.000004 5.758335 " stroke="#2599be" stroke-width="3" stroke-opacity="1" stroke-miterlimit="4"/></g><path stroke-linecap="round" transform="matrix(0.75, 0, 0, 0.75, 26.999999, 6.399999)" fill-opacity="1" fill="#000000" fill-rule="nonzero" stroke-linejoin="round" d="M 57.000004 5.758335 L 63.000004 37.440628 " stroke="#2599be" stroke-width="3" stroke-opacity="1" stroke-miterlimit="4"/><g clip-path="url(#85fcc11794)"><path fill="#000000" d="M 74.25 34.480469 L 78.75 47.441406 " fill-opacity="1" fill-rule="nonzero"/></g><g clip-path="url(#d4af869ab9)"><path stroke-linecap="round" transform="matrix(0.75, 0, 0, 0.75, 26.999999, 6.399999)" fill="none" stroke-linejoin="round" d="M 63.000004 37.440628 L 69.000004 54.721878 " stroke="#2599be" stroke-width="3" stroke-opacity="1" stroke-miterlimit="4"/></g><g fill="#737373" fill-opacity="1"><g transform="translate(31.624386, 66.133338)"><g><path d="M 1.40625 0.046875 C 1.195312 0.046875 1.007812 -0.00390625 0.84375 -0.109375 C 0.675781 -0.210938 0.539062 -0.375 0.4375 -0.59375 C 0.34375 -0.8125 0.296875 -1.085938 0.296875 -1.421875 C 0.296875 -1.765625 0.34375 -2.046875 0.4375 -2.265625 C 0.539062 -2.484375 0.675781 -2.640625 0.84375 -2.734375 C 1.007812 -2.835938 1.195312 -2.890625 1.40625 -2.890625 C 1.613281 -2.890625 1.800781 -2.835938 1.96875 -2.734375 C 2.132812 -2.640625 2.265625 -2.484375 2.359375 -2.265625 C 2.460938 -2.046875 2.515625 -1.765625 2.515625 -1.421875 C 2.515625 -1.085938 2.460938 -0.8125 2.359375 -0.59375 C 2.265625 -0.375 2.132812 -0.210938 1.96875 -0.109375 C 1.800781 -0.00390625 1.613281 0.046875 1.40625 0.046875 Z M 1.40625 -0.265625 C 1.65625 -0.265625 1.84375 -0.351562 1.96875 -0.53125 C 2.09375 -0.71875 2.15625 -1.015625 2.15625 -1.421875 C 2.15625 -1.835938 2.09375 -2.132812 1.96875 -2.3125 C 1.84375 -2.5 1.65625 -2.59375 1.40625 -2.59375 C 1.238281 -2.59375 1.097656 -2.550781 0.984375 -2.46875 C 0.878906 -2.394531 0.796875 -2.269531 0.734375 -2.09375 C 0.671875 -1.925781 0.640625 -1.703125 0.640625 -1.421875 C 0.640625 -1.148438 0.671875 -0.925781 0.734375 -0.75 C 0.796875 -0.582031 0.878906 -0.457031 0.984375 -0.375 C 1.097656 -0.300781 1.238281 -0.265625 1.40625 -0.265625 Z M 1.40625 -0.265625 "/></g></g><g transform="translate(34.432978, 66.133338)"><g><path d="M 1.3125 -1.25 L 0.203125 -1.25 L 0.203125 -1.53125 L 1.3125 -1.53125 Z M 1.3125 -1.25 "/></g></g><g transform="translate(35.948602, 66.133338)"><g><path d="M 1.171875 0.046875 C 0.910156 0.046875 0.695312 -0.0078125 0.53125 -0.125 C 0.375 -0.25 0.269531 -0.421875 0.21875 -0.640625 L 0.46875 -0.75 L 0.515625 -0.75 C 0.546875 -0.632812 0.585938 -0.539062 0.640625 -0.46875 C 0.691406 -0.40625 0.757812 -0.351562 0.84375 -0.3125 C 0.9375 -0.28125 1.046875 -0.265625 1.171875 -0.265625 C 1.367188 -0.265625 1.519531 -0.320312 1.625 -0.4375 C 1.726562 -0.550781 1.78125 -0.71875 1.78125 -0.9375 C 1.78125 -1.164062 1.726562 -1.335938 1.625 -1.453125 C 1.519531 -1.566406 1.375 -1.625 1.1875 -1.625 C 1.050781 -1.625 0.9375 -1.59375 0.84375 -1.53125 C 0.757812 -1.476562 0.679688 -1.394531 0.609375 -1.28125 L 0.34375 -1.296875 L 0.390625 -2.859375 L 2 -2.859375 L 2 -2.578125 L 0.6875 -2.578125 L 0.65625 -1.625 L 0.703125 -1.609375 C 0.765625 -1.710938 0.84375 -1.785156 0.9375 -1.828125 C 1.039062 -1.878906 1.160156 -1.90625 1.296875 -1.90625 C 1.460938 -1.90625 1.609375 -1.867188 1.734375 -1.796875 C 1.867188 -1.722656 1.96875 -1.613281 2.03125 -1.46875 C 2.101562 -1.320312 2.140625 -1.144531 2.140625 -0.9375 C 2.140625 -0.738281 2.097656 -0.5625 2.015625 -0.40625 C 1.941406 -0.257812 1.832031 -0.144531 1.6875 -0.0625 C 1.539062 0.0078125 1.367188 0.046875 1.171875 0.046875 Z M 1.171875 0.046875 "/></g></g><g transform="translate(38.311882, 66.133338)"><g><path d="M 1.40625 0.046875 C 1.195312 0.046875 1.007812 -0.00390625 0.84375 -0.109375 C 0.675781 -0.210938 0.539062 -0.375 0.4375 -0.59375 C 0.34375 -0.8125 0.296875 -1.085938 0.296875 -1.421875 C 0.296875 -1.765625 0.34375 -2.046875 0.4375 -2.265625 C 0.539062 -2.484375 0.675781 -2.640625 0.84375 -2.734375 C 1.007812 -2.835938 1.195312 -2.890625 1.40625 -2.890625 C 1.613281 -2.890625 1.800781 -2.835938 1.96875 -2.734375 C 2.132812 -2.640625 2.265625 -2.484375 2.359375 -2.265625 C 2.460938 -2.046875 2.515625 -1.765625 2.515625 -1.421875 C 2.515625 -1.085938 2.460938 -0.8125 2.359375 -0.59375 C 2.265625 -0.375 2.132812 -0.210938 1.96875 -0.109375 C 1.800781 -0.00390625 1.613281 0.046875 1.40625 0.046875 Z M 1.40625 -0.265625 C 1.65625 -0.265625 1.84375 -0.351562 1.96875 -0.53125 C 2.09375 -0.71875 2.15625 -1.015625 2.15625 -1.421875 C 2.15625 -1.835938 2.09375 -2.132812 1.96875 -2.3125 C 1.84375 -2.5 1.65625 -2.59375 1.40625 -2.59375 C 1.238281 -2.59375 1.097656 -2.550781 0.984375 -2.46875 C 0.878906 -2.394531 0.796875 -2.269531 0.734375 -2.09375 C 0.671875 -1.925781 0.640625 -1.703125 0.640625 -1.421875 C 0.640625 -1.148438 0.671875 -0.925781 0.734375 -0.75 C 0.796875 -0.582031 0.878906 -0.457031 0.984375 -0.375 C 1.097656 -0.300781 1.238281 -0.265625 1.40625 -0.265625 Z M 1.40625 -0.265625 "/></g></g></g><g fill="#737373" fill-opacity="1"><g transform="translate(46.37438, 66.133338)"><g><path d="M 1.171875 0.046875 C 0.910156 0.046875 0.695312 -0.0078125 0.53125 -0.125 C 0.375 -0.25 0.269531 -0.421875 0.21875 -0.640625 L 0.46875 -0.75 L 0.515625 -0.75 C 0.546875 -0.632812 0.585938 -0.539062 0.640625 -0.46875 C 0.691406 -0.40625 0.757812 -0.351562 0.84375 -0.3125 C 0.9375 -0.28125 1.046875 -0.265625 1.171875 -0.265625 C 1.367188 -0.265625 1.519531 -0.320312 1.625 -0.4375 C 1.726562 -0.550781 1.78125 -0.71875 1.78125 -0.9375 C 1.78125 -1.164062 1.726562 -1.335938 1.625 -1.453125 C 1.519531 -1.566406 1.375 -1.625 1.1875 -1.625 C 1.050781 -1.625 0.9375 -1.59375 0.84375 -1.53125 C 0.757812 -1.476562 0.679688 -1.394531 0.609375 -1.28125 L 0.34375 -1.296875 L 0.390625 -2.859375 L 2 -2.859375 L 2 -2.578125 L 0.6875 -2.578125 L 0.65625 -1.625 L 0.703125 -1.609375 C 0.765625 -1.710938 0.84375 -1.785156 0.9375 -1.828125 C 1.039062 -1.878906 1.160156 -1.90625 1.296875 -1.90625 C 1.460938 -1.90625 1.609375 -1.867188 1.734375 -1.796875 C 1.867188 -1.722656 1.96875 -1.613281 2.03125 -1.46875 C 2.101562 -1.320312 2.140625 -1.144531 2.140625 -0.9375 C 2.140625 -0.738281 2.097656 -0.5625 2.015625 -0.40625 C 1.941406 -0.257812 1.832031 -0.144531 1.6875 -0.0625 C 1.539062 0.0078125 1.367188 0.046875 1.171875 0.046875 Z M 1.171875 0.046875 "/></g></g><g transform="translate(48.73766, 66.133338)"><g><path d="M 0.203125 0 L 0.203125 -0.28125 L 0.984375 -0.28125 L 0.984375 -2.46875 L 0.9375 -2.46875 C 0.8125 -2.40625 0.703125 -2.359375 0.609375 -2.328125 C 0.515625 -2.296875 0.390625 -2.265625 0.234375 -2.234375 L 0.234375 -2.546875 C 0.390625 -2.578125 0.535156 -2.617188 0.671875 -2.671875 C 0.816406 -2.722656 0.945312 -2.785156 1.0625 -2.859375 L 1.3125 -2.859375 L 1.3125 -0.28125 L 2.015625 -0.28125 L 2.015625 0 Z M 0.203125 0 "/></g></g><g transform="translate(50.866564, 66.133338)"><g><path d="M 1.3125 -1.25 L 0.203125 -1.25 L 0.203125 -1.53125 L 1.3125 -1.53125 Z M 1.3125 -1.25 "/></g></g><g transform="translate(52.382189, 66.133338)"><g><path d="M 0.203125 0 L 0.203125 -0.28125 L 0.984375 -0.28125 L 0.984375 -2.46875 L 0.9375 -2.46875 C 0.8125 -2.40625 0.703125 -2.359375 0.609375 -2.328125 C 0.515625 -2.296875 0.390625 -2.265625 0.234375 -2.234375 L 0.234375 -2.546875 C 0.390625 -2.578125 0.535156 -2.617188 0.671875 -2.671875 C 0.816406 -2.722656 0.945312 -2.785156 1.0625 -2.859375 L 1.3125 -2.859375 L 1.3125 -0.28125 L 2.015625 -0.28125 L 2.015625 0 Z M 0.203125 0 "/></g></g><g transform="translate(54.511094, 66.133338)"><g><path d="M 1.40625 0.046875 C 1.195312 0.046875 1.007812 -0.00390625 0.84375 -0.109375 C 0.675781 -0.210938 0.539062 -0.375 0.4375 -0.59375 C 0.34375 -0.8125 0.296875 -1.085938 0.296875 -1.421875 C 0.296875 -1.765625 0.34375 -2.046875 0.4375 -2.265625 C 0.539062 -2.484375 0.675781 -2.640625 0.84375 -2.734375 C 1.007812 -2.835938 1.195312 -2.890625 1.40625 -2.890625 C 1.613281 -2.890625 1.800781 -2.835938 1.96875 -2.734375 C 2.132812 -2.640625 2.265625 -2.484375 2.359375 -2.265625 C 2.460938 -2.046875 2.515625 -1.765625 2.515625 -1.421875 C 2.515625 -1.085938 2.460938 -0.8125 2.359375 -0.59375 C 2.265625 -0.375 2.132812 -0.210938 1.96875 -0.109375 C 1.800781 -0.00390625 1.613281 0.046875 1.40625 0.046875 Z M 1.40625 -0.265625 C 1.65625 -0.265625 1.84375 -0.351562 1.96875 -0.53125 C 2.09375 -0.71875 2.15625 -1.015625 2.15625 -1.421875 C 2.15625 -1.835938 2.09375 -2.132812 1.96875 -2.3125 C 1.84375 -2.5 1.65625 -2.59375 1.40625 -2.59375 C 1.238281 -2.59375 1.097656 -2.550781 0.984375 -2.46875 C 0.878906 -2.394531 0.796875 -2.269531 0.734375 -2.09375 C 0.671875 -1.925781 0.640625 -1.703125 0.640625 -1.421875 C 0.640625 -1.148438 0.671875 -0.925781 0.734375 -0.75 C 0.796875 -0.582031 0.878906 -0.457031 0.984375 -0.375 C 1.097656 -0.300781 1.238281 -0.265625 1.40625 -0.265625 Z M 1.40625 -0.265625 "/></g></g><g transform="translate(57.319686, 66.133338)"><g><path d="M 1.40625 0.046875 C 1.195312 0.046875 1.007812 -0.00390625 0.84375 -0.109375 C 0.675781 -0.210938 0.539062 -0.375 0.4375 -0.59375 C 0.34375 -0.8125 0.296875 -1.085938 0.296875 -1.421875 C 0.296875 -1.765625 0.34375 -2.046875 0.4375 -2.265625 C 0.539062 -2.484375 0.675781 -2.640625 0.84375 -2.734375 C 1.007812 -2.835938 1.195312 -2.890625 1.40625 -2.890625 C 1.613281 -2.890625 1.800781 -2.835938 1.96875 -2.734375 C 2.132812 -2.640625 2.265625 -2.484375 2.359375 -2.265625 C 2.460938 -2.046875 2.515625 -1.765625 2.515625 -1.421875 C 2.515625 -1.085938 2.460938 -0.8125 2.359375 -0.59375 C 2.265625 -0.375 2.132812 -0.210938 1.96875 -0.109375 C 1.800781 -0.00390625 1.613281 0.046875 1.40625 0.046875 Z M 1.40625 -0.265625 C 1.65625 -0.265625 1.84375 -0.351562 1.96875 -0.53125 C 2.09375 -0.71875 2.15625 -1.015625 2.15625 -1.421875 C 2.15625 -1.835938 2.09375 -2.132812 1.96875 -2.3125 C 1.84375 -2.5 1.65625 -2.59375 1.40625 -2.59375 C 1.238281 -2.59375 1.097656 -2.550781 0.984375 -2.46875 C 0.878906 -2.394531 0.796875 -2.269531 0.734375 -2.09375 C 0.671875 -1.925781 0.640625 -1.703125 0.640625 -1.421875 C 0.640625 -1.148438 0.671875 -0.925781 0.734375 -0.75 C 0.796875 -0.582031 0.878906 -0.457031 0.984375 -0.375 C 1.097656 -0.300781 1.238281 -0.265625 1.40625 -0.265625 Z M 1.40625 -0.265625 "/></g></g></g><g fill="#737373" fill-opacity="1"><g transform="translate(65.114587, 66.133338)"><g><path d="M 0.203125 0 L 0.203125 -0.28125 L 0.984375 -0.28125 L 0.984375 -2.46875 L 0.9375 -2.46875 C 0.8125 -2.40625 0.703125 -2.359375 0.609375 -2.328125 C 0.515625 -2.296875 0.390625 -2.265625 0.234375 -2.234375 L 0.234375 -2.546875 C 0.390625 -2.578125 0.535156 -2.617188 0.671875 -2.671875 C 0.816406 -2.722656 0.945312 -2.785156 1.0625 -2.859375 L 1.3125 -2.859375 L 1.3125 -0.28125 L 2.015625 -0.28125 L 2.015625 0 Z M 0.203125 0 "/></g></g><g transform="translate(67.243492, 66.133338)"><g><path d="M 1.40625 0.046875 C 1.195312 0.046875 1.007812 -0.00390625 0.84375 -0.109375 C 0.675781 -0.210938 0.539062 -0.375 0.4375 -0.59375 C 0.34375 -0.8125 0.296875 -1.085938 0.296875 -1.421875 C 0.296875 -1.765625 0.34375 -2.046875 0.4375 -2.265625 C 0.539062 -2.484375 0.675781 -2.640625 0.84375 -2.734375 C 1.007812 -2.835938 1.195312 -2.890625 1.40625 -2.890625 C 1.613281 -2.890625 1.800781 -2.835938 1.96875 -2.734375 C 2.132812 -2.640625 2.265625 -2.484375 2.359375 -2.265625 C 2.460938 -2.046875 2.515625 -1.765625 2.515625 -1.421875 C 2.515625 -1.085938 2.460938 -0.8125 2.359375 -0.59375 C 2.265625 -0.375 2.132812 -0.210938 1.96875 -0.109375 C 1.800781 -0.00390625 1.613281 0.046875 1.40625 0.046875 Z M 1.40625 -0.265625 C 1.65625 -0.265625 1.84375 -0.351562 1.96875 -0.53125 C 2.09375 -0.71875 2.15625 -1.015625 2.15625 -1.421875 C 2.15625 -1.835938 2.09375 -2.132812 1.96875 -2.3125 C 1.84375 -2.5 1.65625 -2.59375 1.40625 -2.59375 C 1.238281 -2.59375 1.097656 -2.550781 0.984375 -2.46875 C 0.878906 -2.394531 0.796875 -2.269531 0.734375 -2.09375 C 0.671875 -1.925781 0.640625 -1.703125 0.640625 -1.421875 C 0.640625 -1.148438 0.671875 -0.925781 0.734375 -0.75 C 0.796875 -0.582031 0.878906 -0.457031 0.984375 -0.375 C 1.097656 -0.300781 1.238281 -0.265625 1.40625 -0.265625 Z M 1.40625 -0.265625 "/></g></g><g transform="translate(70.052084, 66.133338)"><g><path d="M 0.203125 0 L 0.203125 -0.28125 L 0.984375 -0.28125 L 0.984375 -2.46875 L 0.9375 -2.46875 C 0.8125 -2.40625 0.703125 -2.359375 0.609375 -2.328125 C 0.515625 -2.296875 0.390625 -2.265625 0.234375 -2.234375 L 0.234375 -2.546875 C 0.390625 -2.578125 0.535156 -2.617188 0.671875 -2.671875 C 0.816406 -2.722656 0.945312 -2.785156 1.0625 -2.859375 L 1.3125 -2.859375 L 1.3125 -0.28125 L 2.015625 -0.28125 L 2.015625 0 Z M 0.203125 0 "/></g></g><g transform="translate(72.180989, 66.133338)"><g><path d="M 1.3125 -1.25 L 0.203125 -1.25 L 0.203125 -1.53125 L 1.3125 -1.53125 Z M 1.3125 -1.25 "/></g></g><g transform="translate(73.696613, 66.133338)"><g><path d="M 0.203125 0 L 0.203125 -0.28125 L 0.984375 -0.28125 L 0.984375 -2.46875 L 0.9375 -2.46875 C 0.8125 -2.40625 0.703125 -2.359375 0.609375 -2.328125 C 0.515625 -2.296875 0.390625 -2.265625 0.234375 -2.234375 L 0.234375 -2.546875 C 0.390625 -2.578125 0.535156 -2.617188 0.671875 -2.671875 C 0.816406 -2.722656 0.945312 -2.785156 1.0625 -2.859375 L 1.3125 -2.859375 L 1.3125 -0.28125 L 2.015625 -0.28125 L 2.015625 0 Z M 0.203125 0 "/></g></g><g transform="translate(75.825518, 66.133338)"><g><path d="M 1.171875 0.046875 C 0.910156 0.046875 0.695312 -0.0078125 0.53125 -0.125 C 0.375 -0.25 0.269531 -0.421875 0.21875 -0.640625 L 0.46875 -0.75 L 0.515625 -0.75 C 0.546875 -0.632812 0.585938 -0.539062 0.640625 -0.46875 C 0.691406 -0.40625 0.757812 -0.351562 0.84375 -0.3125 C 0.9375 -0.28125 1.046875 -0.265625 1.171875 -0.265625 C 1.367188 -0.265625 1.519531 -0.320312 1.625 -0.4375 C 1.726562 -0.550781 1.78125 -0.71875 1.78125 -0.9375 C 1.78125 -1.164062 1.726562 -1.335938 1.625 -1.453125 C 1.519531 -1.566406 1.375 -1.625 1.1875 -1.625 C 1.050781 -1.625 0.9375 -1.59375 0.84375 -1.53125 C 0.757812 -1.476562 0.679688 -1.394531 0.609375 -1.28125 L 0.34375 -1.296875 L 0.390625 -2.859375 L 2 -2.859375 L 2 -2.578125 L 0.6875 -2.578125 L 0.65625 -1.625 L 0.703125 -1.609375 C 0.765625 -1.710938 0.84375 -1.785156 0.9375 -1.828125 C 1.039062 -1.878906 1.160156 -1.90625 1.296875 -1.90625 C 1.460938 -1.90625 1.609375 -1.867188 1.734375 -1.796875 C 1.867188 -1.722656 1.96875 -1.613281 2.03125 -1.46875 C 2.101562 -1.320312 2.140625 -1.144531 2.140625 -0.9375 C 2.140625 -0.738281 2.097656 -0.5625 2.015625 -0.40625 C 1.941406 -0.257812 1.832031 -0.144531 1.6875 -0.0625 C 1.539062 0.0078125 1.367188 0.046875 1.171875 0.046875 Z M 1.171875 0.046875 "/></g></g><g transform="translate(78.188798, 66.133338)"><g><path d="M 1.40625 0.046875 C 1.195312 0.046875 1.007812 -0.00390625 0.84375 -0.109375 C 0.675781 -0.210938 0.539062 -0.375 0.4375 -0.59375 C 0.34375 -0.8125 0.296875 -1.085938 0.296875 -1.421875 C 0.296875 -1.765625 0.34375 -2.046875 0.4375 -2.265625 C 0.539062 -2.484375 0.675781 -2.640625 0.84375 -2.734375 C 1.007812 -2.835938 1.195312 -2.890625 1.40625 -2.890625 C 1.613281 -2.890625 1.800781 -2.835938 1.96875 -2.734375 C 2.132812 -2.640625 2.265625 -2.484375 2.359375 -2.265625 C 2.460938 -2.046875 2.515625 -1.765625 2.515625 -1.421875 C 2.515625 -1.085938 2.460938 -0.8125 2.359375 -0.59375 C 2.265625 -0.375 2.132812 -0.210938 1.96875 -0.109375 C 1.800781 -0.00390625 1.613281 0.046875 1.40625 0.046875 Z M 1.40625 -0.265625 C 1.65625 -0.265625 1.84375 -0.351562 1.96875 -0.53125 C 2.09375 -0.71875 2.15625 -1.015625 2.15625 -1.421875 C 2.15625 -1.835938 2.09375 -2.132812 1.96875 -2.3125 C 1.84375 -2.5 1.65625 -2.59375 1.40625 -2.59375 C 1.238281 -2.59375 1.097656 -2.550781 0.984375 -2.46875 C 0.878906 -2.394531 0.796875 -2.269531 0.734375 -2.09375 C 0.671875 -1.925781 0.640625 -1.703125 0.640625 -1.421875 C 0.640625 -1.148438 0.671875 -0.925781 0.734375 -0.75 C 0.796875 -0.582031 0.878906 -0.457031 0.984375 -0.375 C 1.097656 -0.300781 1.238281 -0.265625 1.40625 -0.265625 Z M 1.40625 -0.265625 "/></g></g></g><path stroke-linecap="butt" transform="matrix(-0.00467654, -0.749985, 0.749985, -0.00467654, 26.245158, 60.560008)" fill="none" stroke-linejoin="miter" d="M -0.00123948 0.50125 L 72.432474 0.499777 " stroke="#737373" stroke-width="1" stroke-opacity="1" stroke-miterlimit="4"/><g fill="#737373" fill-opacity="1"><g transform="translate(18.774189, 46.785833)"><g><path d="M 0.15625 0 L 0.15625 -0.203125 L 0.734375 -0.203125 L 0.734375 -1.84375 L 0.703125 -1.859375 C 0.609375 -1.804688 0.523438 -1.765625 0.453125 -1.734375 C 0.378906 -1.710938 0.289062 -1.691406 0.1875 -1.671875 L 0.1875 -1.90625 C 0.289062 -1.925781 0.394531 -1.957031 0.5 -2 C 0.613281 -2.039062 0.710938 -2.085938 0.796875 -2.140625 L 0.984375 -2.140625 L 0.984375 -0.203125 L 1.5 -0.203125 L 1.5 0 Z M 0.15625 0 "/></g></g><g transform="translate(20.370868, 46.785833)"><g><path d="M 1.046875 0.03125 C 0.890625 0.03125 0.75 -0.00390625 0.625 -0.078125 C 0.5 -0.160156 0.398438 -0.28125 0.328125 -0.4375 C 0.253906 -0.601562 0.21875 -0.816406 0.21875 -1.078125 C 0.21875 -1.328125 0.253906 -1.535156 0.328125 -1.703125 C 0.398438 -1.867188 0.5 -1.988281 0.625 -2.0625 C 0.75 -2.132812 0.890625 -2.171875 1.046875 -2.171875 C 1.210938 -2.171875 1.359375 -2.132812 1.484375 -2.0625 C 1.609375 -1.988281 1.707031 -1.867188 1.78125 -1.703125 C 1.851562 -1.535156 1.890625 -1.328125 1.890625 -1.078125 C 1.890625 -0.816406 1.851562 -0.601562 1.78125 -0.4375 C 1.707031 -0.28125 1.609375 -0.160156 1.484375 -0.078125 C 1.359375 -0.00390625 1.210938 0.03125 1.046875 0.03125 Z M 1.046875 -0.203125 C 1.234375 -0.203125 1.375 -0.269531 1.46875 -0.40625 C 1.570312 -0.539062 1.625 -0.765625 1.625 -1.078125 C 1.625 -1.378906 1.570312 -1.597656 1.46875 -1.734375 C 1.375 -1.867188 1.234375 -1.9375 1.046875 -1.9375 C 0.929688 -1.9375 0.828125 -1.90625 0.734375 -1.84375 C 0.648438 -1.789062 0.585938 -1.703125 0.546875 -1.578125 C 0.503906 -1.453125 0.484375 -1.285156 0.484375 -1.078125 C 0.484375 -0.859375 0.503906 -0.6875 0.546875 -0.5625 C 0.585938 -0.4375 0.648438 -0.34375 0.734375 -0.28125 C 0.828125 -0.226562 0.929688 -0.203125 1.046875 -0.203125 Z M 1.046875 -0.203125 "/></g></g><g transform="translate(22.477312, 46.785833)"><g><path d="M 1.046875 0.03125 C 0.890625 0.03125 0.75 -0.00390625 0.625 -0.078125 C 0.5 -0.160156 0.398438 -0.28125 0.328125 -0.4375 C 0.253906 -0.601562 0.21875 -0.816406 0.21875 -1.078125 C 0.21875 -1.328125 0.253906 -1.535156 0.328125 -1.703125 C 0.398438 -1.867188 0.5 -1.988281 0.625 -2.0625 C 0.75 -2.132812 0.890625 -2.171875 1.046875 -2.171875 C 1.210938 -2.171875 1.359375 -2.132812 1.484375 -2.0625 C 1.609375 -1.988281 1.707031 -1.867188 1.78125 -1.703125 C 1.851562 -1.535156 1.890625 -1.328125 1.890625 -1.078125 C 1.890625 -0.816406 1.851562 -0.601562 1.78125 -0.4375 C 1.707031 -0.28125 1.609375 -0.160156 1.484375 -0.078125 C 1.359375 -0.00390625 1.210938 0.03125 1.046875 0.03125 Z M 1.046875 -0.203125 C 1.234375 -0.203125 1.375 -0.269531 1.46875 -0.40625 C 1.570312 -0.539062 1.625 -0.765625 1.625 -1.078125 C 1.625 -1.378906 1.570312 -1.597656 1.46875 -1.734375 C 1.375 -1.867188 1.234375 -1.9375 1.046875 -1.9375 C 0.929688 -1.9375 0.828125 -1.90625 0.734375 -1.84375 C 0.648438 -1.789062 0.585938 -1.703125 0.546875 -1.578125 C 0.503906 -1.453125 0.484375 -1.285156 0.484375 -1.078125 C 0.484375 -0.859375 0.503906 -0.6875 0.546875 -0.5625 C 0.585938 -0.4375 0.648438 -0.34375 0.734375 -0.28125 C 0.828125 -0.226562 0.929688 -0.203125 1.046875 -0.203125 Z M 1.046875 -0.203125 "/></g></g></g><g fill="#737373" fill-opacity="1"><g transform="translate(18.727314, 34.542911)"><g><path d="M 0.125 -0.09375 C 0.125 -0.21875 0.132812 -0.316406 0.15625 -0.390625 C 0.1875 -0.460938 0.234375 -0.53125 0.296875 -0.59375 C 0.359375 -0.65625 0.457031 -0.734375 0.59375 -0.828125 L 0.828125 -1 C 0.921875 -1.0625 0.992188 -1.117188 1.046875 -1.171875 C 1.097656 -1.222656 1.140625 -1.28125 1.171875 -1.34375 C 1.203125 -1.414062 1.21875 -1.488281 1.21875 -1.5625 C 1.21875 -1.6875 1.179688 -1.78125 1.109375 -1.84375 C 1.046875 -1.914062 0.945312 -1.953125 0.8125 -1.953125 C 0.695312 -1.953125 0.59375 -1.921875 0.5 -1.859375 C 0.414062 -1.804688 0.347656 -1.734375 0.296875 -1.640625 L 0.265625 -1.640625 L 0.109375 -1.796875 C 0.179688 -1.910156 0.273438 -2 0.390625 -2.0625 C 0.515625 -2.132812 0.65625 -2.171875 0.8125 -2.171875 C 0.957031 -2.171875 1.082031 -2.144531 1.1875 -2.09375 C 1.289062 -2.039062 1.363281 -1.96875 1.40625 -1.875 C 1.457031 -1.789062 1.484375 -1.6875 1.484375 -1.5625 C 1.484375 -1.46875 1.460938 -1.378906 1.421875 -1.296875 C 1.378906 -1.210938 1.320312 -1.132812 1.25 -1.0625 C 1.175781 -0.988281 1.082031 -0.910156 0.96875 -0.828125 L 0.734375 -0.65625 C 0.648438 -0.59375 0.582031 -0.535156 0.53125 -0.484375 C 0.476562 -0.441406 0.441406 -0.394531 0.421875 -0.34375 C 0.398438 -0.300781 0.390625 -0.253906 0.390625 -0.203125 L 1.484375 -0.203125 L 1.484375 0 L 0.125 0 Z M 0.125 -0.09375 "/></g></g><g transform="translate(20.373797, 34.542911)"><g><path d="M 1.046875 0.03125 C 0.890625 0.03125 0.75 -0.00390625 0.625 -0.078125 C 0.5 -0.160156 0.398438 -0.28125 0.328125 -0.4375 C 0.253906 -0.601562 0.21875 -0.816406 0.21875 -1.078125 C 0.21875 -1.328125 0.253906 -1.535156 0.328125 -1.703125 C 0.398438 -1.867188 0.5 -1.988281 0.625 -2.0625 C 0.75 -2.132812 0.890625 -2.171875 1.046875 -2.171875 C 1.210938 -2.171875 1.359375 -2.132812 1.484375 -2.0625 C 1.609375 -1.988281 1.707031 -1.867188 1.78125 -1.703125 C 1.851562 -1.535156 1.890625 -1.328125 1.890625 -1.078125 C 1.890625 -0.816406 1.851562 -0.601562 1.78125 -0.4375 C 1.707031 -0.28125 1.609375 -0.160156 1.484375 -0.078125 C 1.359375 -0.00390625 1.210938 0.03125 1.046875 0.03125 Z M 1.046875 -0.203125 C 1.234375 -0.203125 1.375 -0.269531 1.46875 -0.40625 C 1.570312 -0.539062 1.625 -0.765625 1.625 -1.078125 C 1.625 -1.378906 1.570312 -1.597656 1.46875 -1.734375 C 1.375 -1.867188 1.234375 -1.9375 1.046875 -1.9375 C 0.929688 -1.9375 0.828125 -1.90625 0.734375 -1.84375 C 0.648438 -1.789062 0.585938 -1.703125 0.546875 -1.578125 C 0.503906 -1.453125 0.484375 -1.285156 0.484375 -1.078125 C 0.484375 -0.859375 0.503906 -0.6875 0.546875 -0.5625 C 0.585938 -0.4375 0.648438 -0.34375 0.734375 -0.28125 C 0.828125 -0.226562 0.929688 -0.203125 1.046875 -0.203125 Z M 1.046875 -0.203125 "/></g></g><g transform="translate(22.480241, 34.542911)"><g><path d="M 1.046875 0.03125 C 0.890625 0.03125 0.75 -0.00390625 0.625 -0.078125 C 0.5 -0.160156 0.398438 -0.28125 0.328125 -0.4375 C 0.253906 -0.601562 0.21875 -0.816406 0.21875 -1.078125 C 0.21875 -1.328125 0.253906 -1.535156 0.328125 -1.703125 C 0.398438 -1.867188 0.5 -1.988281 0.625 -2.0625 C 0.75 -2.132812 0.890625 -2.171875 1.046875 -2.171875 C 1.210938 -2.171875 1.359375 -2.132812 1.484375 -2.0625 C 1.609375 -1.988281 1.707031 -1.867188 1.78125 -1.703125 C 1.851562 -1.535156 1.890625 -1.328125 1.890625 -1.078125 C 1.890625 -0.816406 1.851562 -0.601562 1.78125 -0.4375 C 1.707031 -0.28125 1.609375 -0.160156 1.484375 -0.078125 C 1.359375 -0.00390625 1.210938 0.03125 1.046875 0.03125 Z M 1.046875 -0.203125 C 1.234375 -0.203125 1.375 -0.269531 1.46875 -0.40625 C 1.570312 -0.539062 1.625 -0.765625 1.625 -1.078125 C 1.625 -1.378906 1.570312 -1.597656 1.46875 -1.734375 C 1.375 -1.867188 1.234375 -1.9375 1.046875 -1.9375 C 0.929688 -1.9375 0.828125 -1.90625 0.734375 -1.84375 C 0.648438 -1.789062 0.585938 -1.703125 0.546875 -1.578125 C 0.503906 -1.453125 0.484375 -1.285156 0.484375 -1.078125 C 0.484375 -0.859375 0.503906 -0.6875 0.546875 -0.5625 C 0.585938 -0.4375 0.648438 -0.34375 0.734375 -0.28125 C 0.828125 -0.226562 0.929688 -0.203125 1.046875 -0.203125 Z M 1.046875 -0.203125 "/></g></g></g><g fill="#737373" fill-opacity="1"><g transform="translate(18.633564, 22.142922)"><g><path d="M 0.84375 0.03125 C 0.632812 0.03125 0.46875 -0.015625 0.34375 -0.109375 C 0.226562 -0.203125 0.148438 -0.332031 0.109375 -0.5 L 0.296875 -0.578125 L 0.34375 -0.578125 C 0.375 -0.453125 0.425781 -0.359375 0.5 -0.296875 C 0.582031 -0.234375 0.695312 -0.203125 0.84375 -0.203125 C 1 -0.203125 1.113281 -0.234375 1.1875 -0.296875 C 1.269531 -0.367188 1.3125 -0.472656 1.3125 -0.609375 C 1.3125 -0.734375 1.269531 -0.832031 1.1875 -0.90625 C 1.113281 -0.976562 0.988281 -1.015625 0.8125 -1.015625 L 0.578125 -1.015625 L 0.578125 -1.21875 L 0.78125 -1.21875 C 0.914062 -1.21875 1.023438 -1.25 1.109375 -1.3125 C 1.191406 -1.382812 1.234375 -1.484375 1.234375 -1.609375 C 1.234375 -1.722656 1.195312 -1.804688 1.125 -1.859375 C 1.050781 -1.921875 0.953125 -1.953125 0.828125 -1.953125 C 0.617188 -1.953125 0.46875 -1.863281 0.375 -1.6875 L 0.34375 -1.6875 L 0.203125 -1.84375 C 0.253906 -1.9375 0.332031 -2.015625 0.4375 -2.078125 C 0.550781 -2.140625 0.679688 -2.171875 0.828125 -2.171875 C 0.972656 -2.171875 1.09375 -2.148438 1.1875 -2.109375 C 1.28125 -2.066406 1.351562 -2.003906 1.40625 -1.921875 C 1.457031 -1.847656 1.484375 -1.753906 1.484375 -1.640625 C 1.484375 -1.535156 1.453125 -1.441406 1.390625 -1.359375 C 1.328125 -1.273438 1.242188 -1.210938 1.140625 -1.171875 L 1.140625 -1.140625 C 1.285156 -1.109375 1.394531 -1.046875 1.46875 -0.953125 C 1.539062 -0.859375 1.578125 -0.742188 1.578125 -0.609375 C 1.578125 -0.398438 1.515625 -0.238281 1.390625 -0.125 C 1.265625 -0.0195312 1.082031 0.03125 0.84375 0.03125 Z M 0.84375 0.03125 "/></g></g><g transform="translate(20.373797, 22.142922)"><g><path d="M 1.046875 0.03125 C 0.890625 0.03125 0.75 -0.00390625 0.625 -0.078125 C 0.5 -0.160156 0.398438 -0.28125 0.328125 -0.4375 C 0.253906 -0.601562 0.21875 -0.816406 0.21875 -1.078125 C 0.21875 -1.328125 0.253906 -1.535156 0.328125 -1.703125 C 0.398438 -1.867188 0.5 -1.988281 0.625 -2.0625 C 0.75 -2.132812 0.890625 -2.171875 1.046875 -2.171875 C 1.210938 -2.171875 1.359375 -2.132812 1.484375 -2.0625 C 1.609375 -1.988281 1.707031 -1.867188 1.78125 -1.703125 C 1.851562 -1.535156 1.890625 -1.328125 1.890625 -1.078125 C 1.890625 -0.816406 1.851562 -0.601562 1.78125 -0.4375 C 1.707031 -0.28125 1.609375 -0.160156 1.484375 -0.078125 C 1.359375 -0.00390625 1.210938 0.03125 1.046875 0.03125 Z M 1.046875 -0.203125 C 1.234375 -0.203125 1.375 -0.269531 1.46875 -0.40625 C 1.570312 -0.539062 1.625 -0.765625 1.625 -1.078125 C 1.625 -1.378906 1.570312 -1.597656 1.46875 -1.734375 C 1.375 -1.867188 1.234375 -1.9375 1.046875 -1.9375 C 0.929688 -1.9375 0.828125 -1.90625 0.734375 -1.84375 C 0.648438 -1.789062 0.585938 -1.703125 0.546875 -1.578125 C 0.503906 -1.453125 0.484375 -1.285156 0.484375 -1.078125 C 0.484375 -0.859375 0.503906 -0.6875 0.546875 -0.5625 C 0.585938 -0.4375 0.648438 -0.34375 0.734375 -0.28125 C 0.828125 -0.226562 0.929688 -0.203125 1.046875 -0.203125 Z M 1.046875 -0.203125 "/></g></g><g transform="translate(22.480241, 22.142922)"><g><path d="M 1.046875 0.03125 C 0.890625 0.03125 0.75 -0.00390625 0.625 -0.078125 C 0.5 -0.160156 0.398438 -0.28125 0.328125 -0.4375 C 0.253906 -0.601562 0.21875 -0.816406 0.21875 -1.078125 C 0.21875 -1.328125 0.253906 -1.535156 0.328125 -1.703125 C 0.398438 -1.867188 0.5 -1.988281 0.625 -2.0625 C 0.75 -2.132812 0.890625 -2.171875 1.046875 -2.171875 C 1.210938 -2.171875 1.359375 -2.132812 1.484375 -2.0625 C 1.609375 -1.988281 1.707031 -1.867188 1.78125 -1.703125 C 1.851562 -1.535156 1.890625 -1.328125 1.890625 -1.078125 C 1.890625 -0.816406 1.851562 -0.601562 1.78125 -0.4375 C 1.707031 -0.28125 1.609375 -0.160156 1.484375 -0.078125 C 1.359375 -0.00390625 1.210938 0.03125 1.046875 0.03125 Z M 1.046875 -0.203125 C 1.234375 -0.203125 1.375 -0.269531 1.46875 -0.40625 C 1.570312 -0.539062 1.625 -0.765625 1.625 -1.078125 C 1.625 -1.378906 1.570312 -1.597656 1.46875 -1.734375 C 1.375 -1.867188 1.234375 -1.9375 1.046875 -1.9375 C 0.929688 -1.9375 0.828125 -1.90625 0.734375 -1.84375 C 0.648438 -1.789062 0.585938 -1.703125 0.546875 -1.578125 C 0.503906 -1.453125 0.484375 -1.285156 0.484375 -1.078125 C 0.484375 -0.859375 0.503906 -0.6875 0.546875 -0.5625 C 0.585938 -0.4375 0.648438 -0.34375 0.734375 -0.28125 C 0.828125 -0.226562 0.929688 -0.203125 1.046875 -0.203125 Z M 1.046875 -0.203125 "/></g></g></g><g fill="#737373" fill-opacity="1"><g transform="translate(18.555439, 9.9)"><g><path d="M 1.34375 0 L 1.109375 0 L 1.109375 -0.515625 L 0.09375 -0.515625 L 0.09375 -0.71875 L 1.046875 -2.140625 L 1.34375 -2.140625 L 1.34375 -0.71875 L 1.71875 -0.71875 L 1.71875 -0.515625 L 1.34375 -0.515625 Z M 0.390625 -0.75 L 0.40625 -0.71875 L 1.109375 -0.71875 L 1.109375 -1.796875 L 1.0625 -1.796875 Z M 0.390625 -0.75 "/></g></g><g transform="translate(20.370379, 9.9)"><g><path d="M 1.046875 0.03125 C 0.890625 0.03125 0.75 -0.00390625 0.625 -0.078125 C 0.5 -0.160156 0.398438 -0.28125 0.328125 -0.4375 C 0.253906 -0.601562 0.21875 -0.816406 0.21875 -1.078125 C 0.21875 -1.328125 0.253906 -1.535156 0.328125 -1.703125 C 0.398438 -1.867188 0.5 -1.988281 0.625 -2.0625 C 0.75 -2.132812 0.890625 -2.171875 1.046875 -2.171875 C 1.210938 -2.171875 1.359375 -2.132812 1.484375 -2.0625 C 1.609375 -1.988281 1.707031 -1.867188 1.78125 -1.703125 C 1.851562 -1.535156 1.890625 -1.328125 1.890625 -1.078125 C 1.890625 -0.816406 1.851562 -0.601562 1.78125 -0.4375 C 1.707031 -0.28125 1.609375 -0.160156 1.484375 -0.078125 C 1.359375 -0.00390625 1.210938 0.03125 1.046875 0.03125 Z M 1.046875 -0.203125 C 1.234375 -0.203125 1.375 -0.269531 1.46875 -0.40625 C 1.570312 -0.539062 1.625 -0.765625 1.625 -1.078125 C 1.625 -1.378906 1.570312 -1.597656 1.46875 -1.734375 C 1.375 -1.867188 1.234375 -1.9375 1.046875 -1.9375 C 0.929688 -1.9375 0.828125 -1.90625 0.734375 -1.84375 C 0.648438 -1.789062 0.585938 -1.703125 0.546875 -1.578125 C 0.503906 -1.453125 0.484375 -1.285156 0.484375 -1.078125 C 0.484375 -0.859375 0.503906 -0.6875 0.546875 -0.5625 C 0.585938 -0.4375 0.648438 -0.34375 0.734375 -0.28125 C 0.828125 -0.226562 0.929688 -0.203125 1.046875 -0.203125 Z M 1.046875 -0.203125 "/></g></g><g transform="translate(22.476823, 9.9)"><g><path d="M 1.046875 0.03125 C 0.890625 0.03125 0.75 -0.00390625 0.625 -0.078125 C 0.5 -0.160156 0.398438 -0.28125 0.328125 -0.4375 C 0.253906 -0.601562 0.21875 -0.816406 0.21875 -1.078125 C 0.21875 -1.328125 0.253906 -1.535156 0.328125 -1.703125 C 0.398438 -1.867188 0.5 -1.988281 0.625 -2.0625 C 0.75 -2.132812 0.890625 -2.171875 1.046875 -2.171875 C 1.210938 -2.171875 1.359375 -2.132812 1.484375 -2.0625 C 1.609375 -1.988281 1.707031 -1.867188 1.78125 -1.703125 C 1.851562 -1.535156 1.890625 -1.328125 1.890625 -1.078125 C 1.890625 -0.816406 1.851562 -0.601562 1.78125 -0.4375 C 1.707031 -0.28125 1.609375 -0.160156 1.484375 -0.078125 C 1.359375 -0.00390625 1.210938 0.03125 1.046875 0.03125 Z M 1.046875 -0.203125 C 1.234375 -0.203125 1.375 -0.269531 1.46875 -0.40625 C 1.570312 -0.539062 1.625 -0.765625 1.625 -1.078125 C 1.625 -1.378906 1.570312 -1.597656 1.46875 -1.734375 C 1.375 -1.867188 1.234375 -1.9375 1.046875 -1.9375 C 0.929688 -1.9375 0.828125 -1.90625 0.734375 -1.84375 C 0.648438 -1.789062 0.585938 -1.703125 0.546875 -1.578125 C 0.503906 -1.453125 0.484375 -1.285156 0.484375 -1.078125 C 0.484375 -0.859375 0.503906 -0.6875 0.546875 -0.5625 C 0.585938 -0.4375 0.648438 -0.34375 0.734375 -0.28125 C 0.828125 -0.226562 0.929688 -0.203125 1.046875 -0.203125 Z M 1.046875 -0.203125 "/></g></g></g><g fill="#737373" fill-opacity="1"><g transform="translate(22.47731, 59.862492)"><g><path d="M 1.046875 0.03125 C 0.890625 0.03125 0.75 -0.00390625 0.625 -0.078125 C 0.5 -0.160156 0.398438 -0.28125 0.328125 -0.4375 C 0.253906 -0.601562 0.21875 -0.816406 0.21875 -1.078125 C 0.21875 -1.328125 0.253906 -1.535156 0.328125 -1.703125 C 0.398438 -1.867188 0.5 -1.988281 0.625 -2.0625 C 0.75 -2.132812 0.890625 -2.171875 1.046875 -2.171875 C 1.210938 -2.171875 1.359375 -2.132812 1.484375 -2.0625 C 1.609375 -1.988281 1.707031 -1.867188 1.78125 -1.703125 C 1.851562 -1.535156 1.890625 -1.328125 1.890625 -1.078125 C 1.890625 -0.816406 1.851562 -0.601562 1.78125 -0.4375 C 1.707031 -0.28125 1.609375 -0.160156 1.484375 -0.078125 C 1.359375 -0.00390625 1.210938 0.03125 1.046875 0.03125 Z M 1.046875 -0.203125 C 1.234375 -0.203125 1.375 -0.269531 1.46875 -0.40625 C 1.570312 -0.539062 1.625 -0.765625 1.625 -1.078125 C 1.625 -1.378906 1.570312 -1.597656 1.46875 -1.734375 C 1.375 -1.867188 1.234375 -1.9375 1.046875 -1.9375 C 0.929688 -1.9375 0.828125 -1.90625 0.734375 -1.84375 C 0.648438 -1.789062 0.585938 -1.703125 0.546875 -1.578125 C 0.503906 -1.453125 0.484375 -1.285156 0.484375 -1.078125 C 0.484375 -0.859375 0.503906 -0.6875 0.546875 -0.5625 C 0.585938 -0.4375 0.648438 -0.34375 0.734375 -0.28125 C 0.828125 -0.226562 0.929688 -0.203125 1.046875 -0.203125 Z M 1.046875 -0.203125 "/></g></g></g></svg>