<svg xmlns="http://www.w3.org/2000/svg" xmlns:xlink="http://www.w3.org/1999/xlink" width="144" zoomAndPan="magnify" viewBox="0 0 108 72" height="96" preserveAspectRatio="xMidYMid meet" version="1.0"><defs><g/><clipPath id="26ef8c04ca"><path d="M 30.4375 7.199219 L 84.4375 7.199219 L 84.4375 24.277344 L 30.4375 24.277344 Z M 30.4375 7.199219 " clip-rule="nonzero"/></clipPath><clipPath id="645fb3aa21"><path d="M 30.4375 25.660156 L 62.835938 25.660156 L 62.835938 42.738281 L 30.4375 42.738281 Z M 30.4375 25.660156 " clip-rule="nonzero"/></clipPath><clipPath id="37de10feb9"><path d="M 30.4375 44.125 L 52.035156 44.125 L 52.035156 61.199219 L 30.4375 61.199219 Z M 30.4375 44.125 " clip-rule="nonzero"/></clipPath></defs><g clip-path="url(#26ef8c04ca)"><path fill="#2599be" d="M 30.4375 7.199219 L 83.070312 7.199219 C 83.25 7.199219 83.425781 7.234375 83.59375 7.304688 C 83.761719 7.375 83.910156 7.472656 84.035156 7.601562 C 84.164062 7.726562 84.261719 7.875 84.332031 8.042969 C 84.402344 8.210938 84.4375 8.386719 84.4375 8.566406 L 84.4375 22.910156 C 84.4375 23.09375 84.402344 23.265625 84.332031 23.433594 C 84.261719 23.601562 84.164062 23.75 84.035156 23.875 C 83.910156 24.003906 83.761719 24.105469 83.59375 24.171875 C 83.425781 24.242188 83.25 24.277344 83.070312 24.277344 L 30.4375 24.277344 C 30.253906 24.277344 30.082031 24.242188 29.914062 24.171875 C 29.746094 24.105469 29.597656 24.003906 29.472656 23.875 C 29.34375 23.75 29.242188 23.601562 29.175781 23.433594 C 29.105469 23.265625 29.070312 23.09375 29.070312 22.910156 L 29.070312 8.566406 C 29.070312 8.386719 29.105469 8.210938 29.175781 8.042969 C 29.242188 7.875 29.34375 7.726562 29.472656 7.601562 C 29.597656 7.472656 29.746094 7.375 29.914062 7.304688 C 30.082031 7.234375 30.253906 7.199219 30.4375 7.199219 Z M 30.4375 7.199219 " fill-opacity="1" fill-rule="nonzero"/></g><g clip-path="url(#645fb3aa21)"><path fill="#2599be" d="M 30.4375 25.660156 L 61.46875 25.660156 C 61.652344 25.660156 61.824219 25.695312 61.992188 25.765625 C 62.160156 25.835938 62.308594 25.933594 62.4375 26.0625 C 62.566406 26.191406 62.664062 26.335938 62.734375 26.503906 C 62.800781 26.671875 62.835938 26.847656 62.835938 27.027344 L 62.835938 41.371094 C 62.835938 41.554688 62.800781 41.726562 62.734375 41.894531 C 62.664062 42.0625 62.566406 42.210938 62.4375 42.339844 C 62.308594 42.464844 62.160156 42.566406 61.992188 42.632812 C 61.824219 42.703125 61.652344 42.738281 61.46875 42.738281 L 30.4375 42.738281 C 30.253906 42.738281 30.082031 42.703125 29.914062 42.632812 C 29.746094 42.566406 29.597656 42.464844 29.472656 42.339844 C 29.34375 42.210938 29.242188 42.0625 29.175781 41.894531 C 29.105469 41.726562 29.070312 41.554688 29.070312 41.371094 L 29.070312 27.027344 C 29.070312 26.847656 29.105469 26.671875 29.175781 26.503906 C 29.242188 26.335938 29.34375 26.191406 29.472656 26.0625 C 29.597656 25.933594 29.746094 25.835938 29.914062 25.765625 C 30.082031 25.695312 30.253906 25.660156 30.4375 25.660156 Z M 30.4375 25.660156 " fill-opacity="1" fill-rule="nonzero"/></g><g clip-path="url(#37de10feb9)"><path fill="#2599be" d="M 30.4375 44.125 L 50.671875 44.125 C 50.851562 44.125 51.027344 44.15625 51.195312 44.226562 C 51.359375 44.296875 51.507812 44.394531 51.636719 44.523438 C 51.765625 44.652344 51.863281 44.800781 51.933594 44.964844 C 52.003906 45.132812 52.035156 45.308594 52.035156 45.488281 L 52.035156 59.832031 C 52.035156 60.015625 52.003906 60.1875 51.933594 60.355469 C 51.863281 60.523438 51.765625 60.671875 51.636719 60.800781 C 51.507812 60.929688 51.359375 61.027344 51.195312 61.097656 C 51.027344 61.164062 50.851562 61.199219 50.671875 61.199219 L 30.4375 61.199219 C 30.253906 61.199219 30.082031 61.164062 29.914062 61.097656 C 29.746094 61.027344 29.597656 60.929688 29.472656 60.800781 C 29.34375 60.671875 29.242188 60.523438 29.175781 60.355469 C 29.105469 60.1875 29.070312 60.015625 29.070312 59.832031 L 29.070312 45.488281 C 29.070312 45.308594 29.105469 45.132812 29.175781 44.964844 C 29.242188 44.800781 29.34375 44.652344 29.472656 44.523438 C 29.597656 44.394531 29.746094 44.296875 29.914062 44.226562 C 30.082031 44.15625 30.253906 44.125 30.4375 44.125 Z M 30.4375 44.125 " fill-opacity="1" fill-rule="nonzero"/></g><g fill="#737373" fill-opacity="1"><g transform="translate(24.315032, 17.399892)"><g><path d="M 2.578125 0 L 2.21875 0 L 1.953125 -0.78125 L 0.734375 -0.78125 L 0.46875 0 L 0.109375 0 L 1.109375 -2.859375 L 1.578125 -2.859375 Z M 1.3125 -2.515625 L 0.828125 -1.0625 L 1.859375 -1.0625 L 1.359375 -2.515625 Z M 1.3125 -2.515625 "/></g></g></g><g fill="#737373" fill-opacity="1"><g transform="translate(24.28222, 35.574998)"><g><path d="M 0.4375 0 L 0.4375 -2.859375 L 1.515625 -2.859375 C 1.691406 -2.859375 1.835938 -2.828125 1.953125 -2.765625 C 2.078125 -2.710938 2.171875 -2.632812 2.234375 -2.53125 C 2.296875 -2.425781 2.328125 -2.300781 2.328125 -2.15625 C 2.328125 -2.039062 2.289062 -1.929688 2.21875 -1.828125 C 2.15625 -1.722656 2.0625 -1.644531 1.9375 -1.59375 L 1.9375 -1.546875 C 2.132812 -1.503906 2.28125 -1.421875 2.375 -1.296875 C 2.46875 -1.171875 2.515625 -1.015625 2.515625 -0.828125 C 2.515625 -0.566406 2.4375 -0.363281 2.28125 -0.21875 C 2.132812 -0.0703125 1.90625 0 1.59375 0 Z M 1.5 -1.65625 C 1.65625 -1.65625 1.773438 -1.695312 1.859375 -1.78125 C 1.953125 -1.863281 2 -1.976562 2 -2.125 C 2 -2.269531 1.957031 -2.378906 1.875 -2.453125 C 1.789062 -2.535156 1.664062 -2.578125 1.5 -2.578125 L 0.765625 -2.578125 L 0.765625 -1.65625 Z M 1.578125 -0.28125 C 1.984375 -0.28125 2.1875 -0.460938 2.1875 -0.828125 C 2.1875 -1.191406 1.984375 -1.375 1.578125 -1.375 L 0.765625 -1.375 L 0.765625 -0.28125 Z M 1.578125 -0.28125 "/></g></g></g><g fill="#737373" fill-opacity="1"><g transform="translate(24.254094, 53.524989)"><g><path d="M 1.578125 0.046875 C 1.328125 0.046875 1.101562 -0.0078125 0.90625 -0.125 C 0.71875 -0.238281 0.566406 -0.40625 0.453125 -0.625 C 0.335938 -0.851562 0.28125 -1.117188 0.28125 -1.421875 C 0.28125 -1.734375 0.335938 -2 0.453125 -2.21875 C 0.566406 -2.4375 0.71875 -2.601562 0.90625 -2.71875 C 1.101562 -2.832031 1.328125 -2.890625 1.578125 -2.890625 C 1.847656 -2.890625 2.070312 -2.835938 2.25 -2.734375 C 2.425781 -2.640625 2.550781 -2.492188 2.625 -2.296875 L 2.40625 -2.140625 L 2.359375 -2.140625 C 2.285156 -2.304688 2.1875 -2.421875 2.0625 -2.484375 C 1.9375 -2.554688 1.773438 -2.59375 1.578125 -2.59375 C 1.398438 -2.59375 1.238281 -2.550781 1.09375 -2.46875 C 0.957031 -2.394531 0.847656 -2.269531 0.765625 -2.09375 C 0.679688 -1.914062 0.640625 -1.691406 0.640625 -1.421875 C 0.640625 -1.148438 0.679688 -0.925781 0.765625 -0.75 C 0.847656 -0.582031 0.957031 -0.457031 1.09375 -0.375 C 1.238281 -0.300781 1.398438 -0.265625 1.578125 -0.265625 C 1.785156 -0.265625 1.953125 -0.3125 2.078125 -0.40625 C 2.210938 -0.5 2.3125 -0.648438 2.375 -0.859375 L 2.421875 -0.859375 L 2.65625 -0.75 C 2.582031 -0.488281 2.453125 -0.289062 2.265625 -0.15625 C 2.085938 -0.0195312 1.859375 0.046875 1.578125 0.046875 Z M 1.578125 0.046875 "/></g></g></g><g fill="#737373" fill-opacity="1"><g transform="translate(30.436755, 68.400006)"><g><path d="M 1.25 0.046875 C 1.070312 0.046875 0.910156 0.0195312 0.765625 -0.03125 C 0.617188 -0.0820312 0.5 -0.144531 0.40625 -0.21875 C 0.3125 -0.300781 0.242188 -0.390625 0.203125 -0.484375 L 0.375 -0.703125 L 0.421875 -0.703125 C 0.597656 -0.410156 0.875 -0.265625 1.25 -0.265625 C 1.46875 -0.265625 1.628906 -0.304688 1.734375 -0.390625 C 1.835938 -0.484375 1.890625 -0.609375 1.890625 -0.765625 C 1.890625 -0.859375 1.867188 -0.9375 1.828125 -1 C 1.796875 -1.070312 1.738281 -1.128906 1.65625 -1.171875 C 1.582031 -1.222656 1.476562 -1.265625 1.34375 -1.296875 L 1 -1.375 C 0.75 -1.4375 0.566406 -1.53125 0.453125 -1.65625 C 0.335938 -1.789062 0.28125 -1.957031 0.28125 -2.15625 C 0.28125 -2.300781 0.316406 -2.425781 0.390625 -2.53125 C 0.460938 -2.644531 0.566406 -2.734375 0.703125 -2.796875 C 0.847656 -2.859375 1.019531 -2.890625 1.21875 -2.890625 C 1.425781 -2.890625 1.601562 -2.859375 1.75 -2.796875 C 1.90625 -2.742188 2.023438 -2.65625 2.109375 -2.53125 L 1.953125 -2.3125 L 1.890625 -2.3125 C 1.816406 -2.414062 1.722656 -2.488281 1.609375 -2.53125 C 1.492188 -2.582031 1.363281 -2.609375 1.21875 -2.609375 C 1.019531 -2.609375 0.867188 -2.566406 0.765625 -2.484375 C 0.660156 -2.410156 0.609375 -2.304688 0.609375 -2.171875 C 0.609375 -2.046875 0.644531 -1.941406 0.71875 -1.859375 C 0.789062 -1.785156 0.914062 -1.726562 1.09375 -1.6875 L 1.4375 -1.609375 C 1.71875 -1.535156 1.921875 -1.429688 2.046875 -1.296875 C 2.171875 -1.171875 2.234375 -1 2.234375 -0.78125 C 2.234375 -0.625 2.195312 -0.484375 2.125 -0.359375 C 2.050781 -0.234375 1.941406 -0.132812 1.796875 -0.0625 C 1.648438 0.0078125 1.46875 0.046875 1.25 0.046875 Z M 1.25 0.046875 "/></g></g><g transform="translate(32.884019, 68.400006)"><g><path d="M 1.0625 0.046875 C 0.820312 0.046875 0.640625 -0.015625 0.515625 -0.140625 C 0.398438 -0.273438 0.34375 -0.46875 0.34375 -0.71875 L 0.34375 -2.15625 L 0.65625 -2.15625 L 0.65625 -0.734375 C 0.65625 -0.398438 0.8125 -0.234375 1.125 -0.234375 C 1.320312 -0.234375 1.472656 -0.296875 1.578125 -0.421875 C 1.691406 -0.554688 1.75 -0.765625 1.75 -1.046875 L 1.75 -2.15625 L 2.078125 -2.15625 L 2.078125 0 L 1.765625 0 L 1.765625 -0.34375 L 1.734375 -0.34375 C 1.660156 -0.21875 1.570312 -0.117188 1.46875 -0.046875 C 1.363281 0.015625 1.226562 0.046875 1.0625 0.046875 Z M 1.0625 0.046875 "/></g></g><g transform="translate(35.331283, 68.400006)"><g><path d="M 0.375 0 L 0.375 -2.15625 L 0.671875 -2.15625 L 0.671875 -1.84375 L 0.71875 -1.828125 C 0.789062 -1.953125 0.878906 -2.046875 0.984375 -2.109375 C 1.085938 -2.171875 1.210938 -2.203125 1.359375 -2.203125 C 1.523438 -2.203125 1.648438 -2.164062 1.734375 -2.09375 C 1.828125 -2.03125 1.898438 -1.929688 1.953125 -1.796875 L 2 -1.796875 C 2.070312 -1.929688 2.160156 -2.03125 2.265625 -2.09375 C 2.378906 -2.164062 2.515625 -2.203125 2.671875 -2.203125 C 2.890625 -2.203125 3.050781 -2.140625 3.15625 -2.015625 C 3.269531 -1.898438 3.328125 -1.71875 3.328125 -1.46875 L 3.328125 0 L 3.015625 0 L 3.015625 -1.46875 C 3.015625 -1.625 2.976562 -1.738281 2.90625 -1.8125 C 2.84375 -1.882812 2.738281 -1.921875 2.59375 -1.921875 C 2.425781 -1.921875 2.285156 -1.859375 2.171875 -1.734375 C 2.066406 -1.609375 2.015625 -1.398438 2.015625 -1.109375 L 2.015625 0 L 1.6875 0 L 1.6875 -1.46875 C 1.6875 -1.625 1.65625 -1.738281 1.59375 -1.8125 C 1.53125 -1.882812 1.425781 -1.921875 1.28125 -1.921875 C 1.101562 -1.921875 0.957031 -1.859375 0.84375 -1.734375 C 0.738281 -1.617188 0.6875 -1.421875 0.6875 -1.140625 L 0.6875 0 Z M 0.375 0 "/></g></g><g transform="translate(39.003156, 68.400006)"><g/></g><g transform="translate(39.983624, 68.400006)"><g><path d="M 1.234375 0.046875 C 1.035156 0.046875 0.859375 0.00390625 0.703125 -0.078125 C 0.554688 -0.171875 0.441406 -0.300781 0.359375 -0.46875 C 0.273438 -0.632812 0.234375 -0.835938 0.234375 -1.078125 C 0.234375 -1.316406 0.273438 -1.519531 0.359375 -1.6875 C 0.441406 -1.851562 0.554688 -1.976562 0.703125 -2.0625 C 0.859375 -2.15625 1.035156 -2.203125 1.234375 -2.203125 C 1.441406 -2.203125 1.617188 -2.15625 1.765625 -2.0625 C 1.921875 -1.976562 2.035156 -1.851562 2.109375 -1.6875 C 2.191406 -1.519531 2.234375 -1.316406 2.234375 -1.078125 C 2.234375 -0.835938 2.191406 -0.632812 2.109375 -0.46875 C 2.035156 -0.300781 1.921875 -0.171875 1.765625 -0.078125 C 1.617188 0.00390625 1.441406 0.046875 1.234375 0.046875 Z M 1.234375 -0.25 C 1.453125 -0.25 1.617188 -0.316406 1.734375 -0.453125 C 1.847656 -0.585938 1.90625 -0.796875 1.90625 -1.078125 C 1.90625 -1.359375 1.847656 -1.566406 1.734375 -1.703125 C 1.617188 -1.835938 1.453125 -1.90625 1.234375 -1.90625 C 1.023438 -1.90625 0.863281 -1.835938 0.75 -1.703125 C 0.632812 -1.566406 0.578125 -1.359375 0.578125 -1.078125 C 0.578125 -0.796875 0.632812 -0.585938 0.75 -0.453125 C 0.863281 -0.316406 1.023438 -0.25 1.234375 -0.25 Z M 1.234375 -0.25 "/></g></g><g transform="translate(42.456279, 68.400006)"><g><path d="M 0.484375 0 L 0.484375 -1.890625 L 0.109375 -1.890625 L 0.109375 -2.15625 L 0.484375 -2.15625 C 0.460938 -2.25 0.453125 -2.335938 0.453125 -2.421875 C 0.453125 -2.566406 0.476562 -2.6875 0.53125 -2.78125 C 0.59375 -2.875 0.675781 -2.941406 0.78125 -2.984375 C 0.882812 -3.035156 1.003906 -3.0625 1.140625 -3.0625 C 1.359375 -3.0625 1.523438 -3.015625 1.640625 -2.921875 L 1.515625 -2.703125 L 1.484375 -2.6875 C 1.390625 -2.757812 1.273438 -2.796875 1.140625 -2.796875 C 1.015625 -2.796875 0.921875 -2.757812 0.859375 -2.6875 C 0.796875 -2.625 0.765625 -2.535156 0.765625 -2.421875 C 0.765625 -2.347656 0.773438 -2.257812 0.796875 -2.15625 L 1.484375 -2.15625 L 1.484375 -1.890625 L 0.796875 -1.890625 L 0.796875 0 Z M 0.484375 0 "/></g></g><g transform="translate(43.991434, 68.400006)"><g/></g><g transform="translate(44.971902, 68.400006)"><g><path d="M 0.484375 0 L 0.109375 0 L 1 -1.46875 L 0.15625 -2.859375 L 0.53125 -2.859375 L 1.25 -1.703125 L 1.296875 -1.703125 L 2.03125 -2.859375 L 2.390625 -2.859375 L 1.53125 -1.46875 L 2.421875 0 L 2.046875 0 L 1.296875 -1.234375 L 1.234375 -1.234375 Z M 0.484375 0 "/></g></g></g><path stroke-linecap="butt" transform="matrix(0.75, 0, 0, 0.75, 30.430073, 62.950019)" fill="none" stroke-linejoin="miter" d="M -0.000514283 0.498933 L 77.973447 0.498933 " stroke="#737373" stroke-width="1" stroke-opacity="1" stroke-miterlimit="4"/><g fill="#ffffff" fill-opacity="1"><g transform="translate(75.399218, 17.399892)"><g><path d="M 0.171875 -0.125 C 0.171875 -0.289062 0.1875 -0.421875 0.21875 -0.515625 C 0.257812 -0.609375 0.320312 -0.695312 0.40625 -0.78125 C 0.488281 -0.863281 0.617188 -0.972656 0.796875 -1.109375 L 1.109375 -1.328125 C 1.222656 -1.421875 1.316406 -1.5 1.390625 -1.5625 C 1.460938 -1.632812 1.519531 -1.710938 1.5625 -1.796875 C 1.613281 -1.878906 1.640625 -1.972656 1.640625 -2.078125 C 1.640625 -2.253906 1.59375 -2.382812 1.5 -2.46875 C 1.40625 -2.550781 1.265625 -2.59375 1.078125 -2.59375 C 0.921875 -2.59375 0.785156 -2.554688 0.671875 -2.484375 C 0.554688 -2.421875 0.460938 -2.320312 0.390625 -2.1875 L 0.34375 -2.1875 L 0.140625 -2.390625 C 0.242188 -2.546875 0.375 -2.664062 0.53125 -2.75 C 0.6875 -2.84375 0.867188 -2.890625 1.078125 -2.890625 C 1.273438 -2.890625 1.441406 -2.851562 1.578125 -2.78125 C 1.710938 -2.71875 1.8125 -2.625 1.875 -2.5 C 1.9375 -2.382812 1.96875 -2.242188 1.96875 -2.078125 C 1.96875 -1.953125 1.941406 -1.832031 1.890625 -1.71875 C 1.835938 -1.613281 1.757812 -1.507812 1.65625 -1.40625 C 1.5625 -1.3125 1.441406 -1.210938 1.296875 -1.109375 L 0.984375 -0.875 C 0.867188 -0.789062 0.773438 -0.71875 0.703125 -0.65625 C 0.640625 -0.59375 0.59375 -0.53125 0.5625 -0.46875 C 0.539062 -0.414062 0.53125 -0.351562 0.53125 -0.28125 L 1.96875 -0.28125 L 1.96875 0 L 0.171875 0 Z M 0.171875 -0.125 "/></g></g><g transform="translate(77.594529, 17.399892)"><g><path d="M 1.171875 0.046875 C 0.910156 0.046875 0.695312 -0.0078125 0.53125 -0.125 C 0.375 -0.25 0.269531 -0.421875 0.21875 -0.640625 L 0.46875 -0.75 L 0.515625 -0.75 C 0.546875 -0.632812 0.585938 -0.539062 0.640625 -0.46875 C 0.691406 -0.40625 0.757812 -0.351562 0.84375 -0.3125 C 0.9375 -0.28125 1.046875 -0.265625 1.171875 -0.265625 C 1.367188 -0.265625 1.519531 -0.320312 1.625 -0.4375 C 1.726562 -0.550781 1.78125 -0.71875 1.78125 -0.9375 C 1.78125 -1.164062 1.726562 -1.335938 1.625 -1.453125 C 1.519531 -1.566406 1.375 -1.625 1.1875 -1.625 C 1.050781 -1.625 0.9375 -1.59375 0.84375 -1.53125 C 0.757812 -1.476562 0.679688 -1.394531 0.609375 -1.28125 L 0.34375 -1.296875 L 0.390625 -2.859375 L 2 -2.859375 L 2 -2.578125 L 0.6875 -2.578125 L 0.65625 -1.625 L 0.703125 -1.609375 C 0.765625 -1.710938 0.84375 -1.785156 0.9375 -1.828125 C 1.039062 -1.878906 1.160156 -1.90625 1.296875 -1.90625 C 1.460938 -1.90625 1.609375 -1.867188 1.734375 -1.796875 C 1.867188 -1.722656 1.96875 -1.613281 2.03125 -1.46875 C 2.101562 -1.320312 2.140625 -1.144531 2.140625 -0.9375 C 2.140625 -0.738281 2.097656 -0.5625 2.015625 -0.40625 C 1.941406 -0.257812 1.832031 -0.144531 1.6875 -0.0625 C 1.539062 0.0078125 1.367188 0.046875 1.171875 0.046875 Z M 1.171875 0.046875 "/></g></g><g transform="translate(79.957809, 17.399892)"><g><path d="M 1.40625 0.046875 C 1.195312 0.046875 1.007812 -0.00390625 0.84375 -0.109375 C 0.675781 -0.210938 0.539062 -0.375 0.4375 -0.59375 C 0.34375 -0.8125 0.296875 -1.085938 0.296875 -1.421875 C 0.296875 -1.765625 0.34375 -2.046875 0.4375 -2.265625 C 0.539062 -2.484375 0.675781 -2.640625 0.84375 -2.734375 C 1.007812 -2.835938 1.195312 -2.890625 1.40625 -2.890625 C 1.613281 -2.890625 1.800781 -2.835938 1.96875 -2.734375 C 2.132812 -2.640625 2.265625 -2.484375 2.359375 -2.265625 C 2.460938 -2.046875 2.515625 -1.765625 2.515625 -1.421875 C 2.515625 -1.085938 2.460938 -0.8125 2.359375 -0.59375 C 2.265625 -0.375 2.132812 -0.210938 1.96875 -0.109375 C 1.800781 -0.00390625 1.613281 0.046875 1.40625 0.046875 Z M 1.40625 -0.265625 C 1.65625 -0.265625 1.84375 -0.351562 1.96875 -0.53125 C 2.09375 -0.71875 2.15625 -1.015625 2.15625 -1.421875 C 2.15625 -1.835938 2.09375 -2.132812 1.96875 -2.3125 C 1.84375 -2.5 1.65625 -2.59375 1.40625 -2.59375 C 1.238281 -2.59375 1.097656 -2.550781 0.984375 -2.46875 C 0.878906 -2.394531 0.796875 -2.269531 0.734375 -2.09375 C 0.671875 -1.925781 0.640625 -1.703125 0.640625 -1.421875 C 0.640625 -1.148438 0.671875 -0.925781 0.734375 -0.75 C 0.796875 -0.582031 0.878906 -0.457031 0.984375 -0.375 C 1.097656 -0.300781 1.238281 -0.265625 1.40625 -0.265625 Z M 1.40625 -0.265625 "/></g></g></g><g fill="#ffffff" fill-opacity="1"><g transform="translate(53.999998, 36.099998)"><g><path d="M 0.203125 0 L 0.203125 -0.28125 L 0.984375 -0.28125 L 0.984375 -2.46875 L 0.9375 -2.46875 C 0.8125 -2.40625 0.703125 -2.359375 0.609375 -2.328125 C 0.515625 -2.296875 0.390625 -2.265625 0.234375 -2.234375 L 0.234375 -2.546875 C 0.390625 -2.578125 0.535156 -2.617188 0.671875 -2.671875 C 0.816406 -2.722656 0.945312 -2.785156 1.0625 -2.859375 L 1.3125 -2.859375 L 1.3125 -0.28125 L 2.015625 -0.28125 L 2.015625 0 Z M 0.203125 0 "/></g></g><g transform="translate(56.128903, 36.099998)"><g><path d="M 1.171875 0.046875 C 0.910156 0.046875 0.695312 -0.0078125 0.53125 -0.125 C 0.375 -0.25 0.269531 -0.421875 0.21875 -0.640625 L 0.46875 -0.75 L 0.515625 -0.75 C 0.546875 -0.632812 0.585938 -0.539062 0.640625 -0.46875 C 0.691406 -0.40625 0.757812 -0.351562 0.84375 -0.3125 C 0.9375 -0.28125 1.046875 -0.265625 1.171875 -0.265625 C 1.367188 -0.265625 1.519531 -0.320312 1.625 -0.4375 C 1.726562 -0.550781 1.78125 -0.71875 1.78125 -0.9375 C 1.78125 -1.164062 1.726562 -1.335938 1.625 -1.453125 C 1.519531 -1.566406 1.375 -1.625 1.1875 -1.625 C 1.050781 -1.625 0.9375 -1.59375 0.84375 -1.53125 C 0.757812 -1.476562 0.679688 -1.394531 0.609375 -1.28125 L 0.34375 -1.296875 L 0.390625 -2.859375 L 2 -2.859375 L 2 -2.578125 L 0.6875 -2.578125 L 0.65625 -1.625 L 0.703125 -1.609375 C 0.765625 -1.710938 0.84375 -1.785156 0.9375 -1.828125 C 1.039062 -1.878906 1.160156 -1.90625 1.296875 -1.90625 C 1.460938 -1.90625 1.609375 -1.867188 1.734375 -1.796875 C 1.867188 -1.722656 1.96875 -1.613281 2.03125 -1.46875 C 2.101562 -1.320312 2.140625 -1.144531 2.140625 -0.9375 C 2.140625 -0.738281 2.097656 -0.5625 2.015625 -0.40625 C 1.941406 -0.257812 1.832031 -0.144531 1.6875 -0.0625 C 1.539062 0.0078125 1.367188 0.046875 1.171875 0.046875 Z M 1.171875 0.046875 "/></g></g><g transform="translate(58.492183, 36.099998)"><g><path d="M 1.40625 0.046875 C 1.195312 0.046875 1.007812 -0.00390625 0.84375 -0.109375 C 0.675781 -0.210938 0.539062 -0.375 0.4375 -0.59375 C 0.34375 -0.8125 0.296875 -1.085938 0.296875 -1.421875 C 0.296875 -1.765625 0.34375 -2.046875 0.4375 -2.265625 C 0.539062 -2.484375 0.675781 -2.640625 0.84375 -2.734375 C 1.007812 -2.835938 1.195312 -2.890625 1.40625 -2.890625 C 1.613281 -2.890625 1.800781 -2.835938 1.96875 -2.734375 C 2.132812 -2.640625 2.265625 -2.484375 2.359375 -2.265625 C 2.460938 -2.046875 2.515625 -1.765625 2.515625 -1.421875 C 2.515625 -1.085938 2.460938 -0.8125 2.359375 -0.59375 C 2.265625 -0.375 2.132812 -0.210938 1.96875 -0.109375 C 1.800781 -0.00390625 1.613281 0.046875 1.40625 0.046875 Z M 1.40625 -0.265625 C 1.65625 -0.265625 1.84375 -0.351562 1.96875 -0.53125 C 2.09375 -0.71875 2.15625 -1.015625 2.15625 -1.421875 C 2.15625 -1.835938 2.09375 -2.132812 1.96875 -2.3125 C 1.84375 -2.5 1.65625 -2.59375 1.40625 -2.59375 C 1.238281 -2.59375 1.097656 -2.550781 0.984375 -2.46875 C 0.878906 -2.394531 0.796875 -2.269531 0.734375 -2.09375 C 0.671875 -1.925781 0.640625 -1.703125 0.640625 -1.421875 C 0.640625 -1.148438 0.671875 -0.925781 0.734375 -0.75 C 0.796875 -0.582031 0.878906 -0.457031 0.984375 -0.375 C 1.097656 -0.300781 1.238281 -0.265625 1.40625 -0.265625 Z M 1.40625 -0.265625 "/></g></g></g><g fill="#ffffff" fill-opacity="1"><g transform="translate(43.634662, 54.503826)"><g><path d="M 0.203125 0 L 0.203125 -0.28125 L 0.984375 -0.28125 L 0.984375 -2.46875 L 0.9375 -2.46875 C 0.8125 -2.40625 0.703125 -2.359375 0.609375 -2.328125 C 0.515625 -2.296875 0.390625 -2.265625 0.234375 -2.234375 L 0.234375 -2.546875 C 0.390625 -2.578125 0.535156 -2.617188 0.671875 -2.671875 C 0.816406 -2.722656 0.945312 -2.785156 1.0625 -2.859375 L 1.3125 -2.859375 L 1.3125 -0.28125 L 2.015625 -0.28125 L 2.015625 0 Z M 0.203125 0 "/></g></g><g transform="translate(45.763567, 54.503826)"><g><path d="M 1.40625 0.046875 C 1.195312 0.046875 1.007812 -0.00390625 0.84375 -0.109375 C 0.675781 -0.210938 0.539062 -0.375 0.4375 -0.59375 C 0.34375 -0.8125 0.296875 -1.085938 0.296875 -1.421875 C 0.296875 -1.765625 0.34375 -2.046875 0.4375 -2.265625 C 0.539062 -2.484375 0.675781 -2.640625 0.84375 -2.734375 C 1.007812 -2.835938 1.195312 -2.890625 1.40625 -2.890625 C 1.613281 -2.890625 1.800781 -2.835938 1.96875 -2.734375 C 2.132812 -2.640625 2.265625 -2.484375 2.359375 -2.265625 C 2.460938 -2.046875 2.515625 -1.765625 2.515625 -1.421875 C 2.515625 -1.085938 2.460938 -0.8125 2.359375 -0.59375 C 2.265625 -0.375 2.132812 -0.210938 1.96875 -0.109375 C 1.800781 -0.00390625 1.613281 0.046875 1.40625 0.046875 Z M 1.40625 -0.265625 C 1.65625 -0.265625 1.84375 -0.351562 1.96875 -0.53125 C 2.09375 -0.71875 2.15625 -1.015625 2.15625 -1.421875 C 2.15625 -1.835938 2.09375 -2.132812 1.96875 -2.3125 C 1.84375 -2.5 1.65625 -2.59375 1.40625 -2.59375 C 1.238281 -2.59375 1.097656 -2.550781 0.984375 -2.46875 C 0.878906 -2.394531 0.796875 -2.269531 0.734375 -2.09375 C 0.671875 -1.925781 0.640625 -1.703125 0.640625 -1.421875 C 0.640625 -1.148438 0.671875 -0.925781 0.734375 -0.75 C 0.796875 -0.582031 0.878906 -0.457031 0.984375 -0.375 C 1.097656 -0.300781 1.238281 -0.265625 1.40625 -0.265625 Z M 1.40625 -0.265625 "/></g></g><g transform="translate(48.572159, 54.503826)"><g><path d="M 1.40625 0.046875 C 1.195312 0.046875 1.007812 -0.00390625 0.84375 -0.109375 C 0.675781 -0.210938 0.539062 -0.375 0.4375 -0.59375 C 0.34375 -0.8125 0.296875 -1.085938 0.296875 -1.421875 C 0.296875 -1.765625 0.34375 -2.046875 0.4375 -2.265625 C 0.539062 -2.484375 0.675781 -2.640625 0.84375 -2.734375 C 1.007812 -2.835938 1.195312 -2.890625 1.40625 -2.890625 C 1.613281 -2.890625 1.800781 -2.835938 1.96875 -2.734375 C 2.132812 -2.640625 2.265625 -2.484375 2.359375 -2.265625 C 2.460938 -2.046875 2.515625 -1.765625 2.515625 -1.421875 C 2.515625 -1.085938 2.460938 -0.8125 2.359375 -0.59375 C 2.265625 -0.375 2.132812 -0.210938 1.96875 -0.109375 C 1.800781 -0.00390625 1.613281 0.046875 1.40625 0.046875 Z M 1.40625 -0.265625 C 1.65625 -0.265625 1.84375 -0.351562 1.96875 -0.53125 C 2.09375 -0.71875 2.15625 -1.015625 2.15625 -1.421875 C 2.15625 -1.835938 2.09375 -2.132812 1.96875 -2.3125 C 1.84375 -2.5 1.65625 -2.59375 1.40625 -2.59375 C 1.238281 -2.59375 1.097656 -2.550781 0.984375 -2.46875 C 0.878906 -2.394531 0.796875 -2.269531 0.734375 -2.09375 C 0.671875 -1.925781 0.640625 -1.703125 0.640625 -1.421875 C 0.640625 -1.148438 0.671875 -0.925781 0.734375 -0.75 C 0.796875 -0.582031 0.878906 -0.457031 0.984375 -0.375 C 1.097656 -0.300781 1.238281 -0.265625 1.40625 -0.265625 Z M 1.40625 -0.265625 "/></g></g></g></svg>